<svg id="Layer_1" enable-background="new 0 0 512 512" height="512" viewBox="0 0 512 512" width="512" xmlns="http://www.w3.org/2000/svg"><g><path d="m444.008 188.416c0 168.56-168.88 323.584-188.008 323.584s-188.008-155.024-188.008-323.584c0-104.059 84.174-188.416 188.008-188.416s188.008 84.357 188.008 188.416z" fill="#ff6167"/><path d="m256 0c-5.204 0-10.356.222-15.453.637 96.604 7.877 172.555 88.935 172.555 187.779 0 145.495-125.819 280.899-172.555 315.232 7.409 5.443 12.836 8.352 15.453 8.352 19.128 0 188.008-155.024 188.008-323.584 0-104.059-84.174-188.416-188.008-188.416z" fill="#fe454a"/><circle cx="256" cy="188.416" fill="#f8f7f7" r="149.376"/><path d="m256 39.04c-5.217 0-10.372.271-15.453.796 75.133 7.757 133.924 71.431 133.924 148.58s-58.79 140.824-133.924 148.58c5.081.525 10.236.796 15.453.796 82.367 0 149.376-67.01 149.376-149.376s-67.009-149.376-149.376-149.376z" fill="#efefef"/><path d="m256 112.215c-4.142 0-7.5 3.358-7.5 7.5v15.992c0 4.142 3.358 7.5 7.5 7.5s7.5-3.358 7.5-7.5v-15.992c0-4.142-3.358-7.5-7.5-7.5z" fill="#afbbc6"/><path d="m317.527 240.785h-123.054c-3.9 0-7.402-2.387-8.828-6.017l-8.968-22.828h158.648l-8.968 22.828c-1.427 3.63-4.93 6.017-8.83 6.017z" fill="#7b727b"/><path d="m304.419 211.94-8.968 22.828c-1.426 3.63-4.928 6.017-8.828 6.017h30.905c3.9 0 7.402-2.387 8.828-6.017l8.968-22.828z" fill="#686169"/><path d="m323.992 211.94h-135.984v-8.242c0-37.551 30.441-67.992 67.992-67.992 37.551 0 67.992 30.441 67.992 67.992z" fill="#cfdbe4"/><g fill="#afbbc6"><path d="m256 135.707c-5.318 0-10.486.63-15.453 1.785 30.102 7 52.539 33.974 52.539 66.207v8.242h30.905v-8.242c.001-37.551-30.44-67.992-67.991-67.992z"/><path d="m339.974 204.44h-167.948c-4.142 0-7.5 3.358-7.5 7.5s3.358 7.5 7.5 7.5h167.948c4.142 0 7.5-3.358 7.5-7.5s-3.358-7.5-7.5-7.5z"/></g></g></svg>