<svg id="Layer_1" enable-background="new 0 0 512 512" height="512" viewBox="0 0 512 512" width="512" xmlns="http://www.w3.org/2000/svg"><g><path d="m270.555 290.906-28.752 6.714c-3.141.734-6.283-1.218-7.016-4.36l-45.6-195.282c-.734-3.141 1.218-6.283 4.36-7.016l28.752-6.714c3.141-.734 6.283 1.218 7.016 4.36l45.601 195.282c.732 3.141-1.22 6.282-4.361 7.016z" fill="#ffd86e"/><path d="m418.302 307.4-28.287-8.462c-3.091-.925-4.847-4.179-3.922-7.27l57.471-192.123c.925-3.091 4.179-4.847 7.27-3.922l28.287 8.462c3.091.925 4.847 4.179 3.922 7.27l-57.471 192.123c-.925 3.091-4.18 4.847-7.27 3.922z" fill="#ffd86e"/><g fill="#ffcd55"><path d="m296.343 244.599-28.907 6.008c-3.158.656-6.251-1.372-6.908-4.53l-40.809-196.338c-.656-3.158 1.372-6.251 4.53-6.908l28.907-6.008c3.158-.656 6.251 1.372 6.908 4.53l40.809 196.339c.656 3.158-1.372 6.251-4.53 6.907z"/><path d="m404.587 261.769-28.776-6.607c-3.144-.722-5.108-3.856-4.386-7l44.873-195.45c.722-3.144 3.856-5.108 7-4.386l28.776 6.607c3.144.722 5.108 3.856 4.386 7l-44.873 195.45c-.722 3.144-3.856 5.108-7 4.386z"/><path d="m348.259 213.03-29.511-.911c-3.224-.1-5.758-2.794-5.658-6.019l6.187-200.44c.1-3.224 2.794-5.758 6.019-5.658l29.511.911c3.224.1 5.758 2.794 5.658 6.019l-6.187 200.44c-.1 3.224-2.795 5.758-6.019 5.658z"/></g><path d="m324.791 274.164-29.39 2.824c-3.211.309-6.064-2.044-6.373-5.256l-19.183-199.615c-.309-3.211 2.044-6.064 5.256-6.373l29.39-2.824c3.211-.309 6.064 2.044 6.373 5.256l19.183 199.615c.308 3.211-2.045 6.064-5.256 6.373z" fill="#ffd86e"/><path d="m371.035 287.895-29.234-4.134c-3.194-.452-5.417-3.407-4.966-6.601l28.078-198.56c.452-3.194 3.407-5.417 6.601-4.966l29.234 4.134c3.194.452 5.417 3.407 4.966 6.601l-28.078 198.56c-.451 3.195-3.406 5.418-6.601 4.966z" fill="#ffd86e"/><path d="m487.414 153.712-18.541 354.382c-.115 2.189-1.926 3.906-4.121 3.906h-265.78c-2.195 0-4.006-1.716-4.121-3.906l-18.541-354.382c-.123-2.357 1.757-4.336 4.121-4.336h60.749c9.182 0 17.105 6.434 18.976 15.411l4.304 20.646c1.871 8.977 9.794 15.411 18.976 15.411h96.851c9.182 0 17.105-6.434 18.976-15.411l4.304-20.646c1.871-8.977 9.794-15.411 18.976-15.411h60.749c2.365 0 4.246 1.979 4.122 4.336z" fill="#ff6167"/><g><path d="m483.293 149.376h-30.905c2.364 0 4.244 1.979 4.121 4.336l-18.541 354.382c-.115 2.189-1.926 3.906-4.121 3.906h30.905c2.195 0 4.006-1.716 4.121-3.906l18.541-354.382c.124-2.357-1.757-4.336-4.121-4.336z" fill="#fe454a"/></g><path d="m402.024 379.622h-140.323c-2.5 0-4.527-2.027-4.527-4.527v-5.26c0-41.249 33.439-74.688 74.688-74.688 41.249 0 74.688 33.439 74.688 74.688v5.26c.001 2.5-2.026 4.527-4.526 4.527z" fill="#f8f7f7"/><path d="m331.863 295.147c-5.299 0-10.466.56-15.453 1.61 33.833 7.119 59.235 37.128 59.235 73.078v5.26c0 2.5-2.027 4.527-4.527 4.527h30.905c2.5 0 4.527-2.027 4.527-4.527v-5.26c.001-41.249-33.438-74.688-74.687-74.688z" fill="#efefef"/><g fill="#2fd9e7"><path d="m32.08 212.394h82.233c4.142 0 7.5-3.358 7.5-7.5s-3.358-7.5-7.5-7.5h-82.233c-4.142 0-7.5 3.358-7.5 7.5s3.358 7.5 7.5 7.5z"/><path d="m32.08 269.054h88.708c4.142 0 7.5-3.358 7.5-7.5s-3.358-7.5-7.5-7.5h-88.708c-4.142 0-7.5 3.358-7.5 7.5s3.358 7.5 7.5 7.5z"/><path d="m32.08 325.714h97.848c4.142 0 7.5-3.358 7.5-7.5s-3.358-7.5-7.5-7.5h-97.848c-4.142 0-7.5 3.358-7.5 7.5s3.358 7.5 7.5 7.5z"/><path d="m32.08 382.374h108.522c4.142 0 7.5-3.358 7.5-7.5s-3.358-7.5-7.5-7.5h-108.522c-4.142 0-7.5 3.358-7.5 7.5s3.358 7.5 7.5 7.5z"/><path d="m147.46 424.034h-115.38c-4.142 0-7.5 3.358-7.5 7.5s3.358 7.5 7.5 7.5h115.38c4.142 0 7.5-3.358 7.5-7.5s-3.358-7.5-7.5-7.5z"/></g></g></svg>