<svg id="Layer_1" enable-background="new 0 0 512 512" height="512" viewBox="0 0 512 512" width="512" xmlns="http://www.w3.org/2000/svg"><g><path d="m366.229 512h-220.458c-22.758 0-41.207-18.449-41.207-41.207v-429.586c-.001-22.758 18.448-41.207 41.207-41.207h220.459c22.758 0 41.207 18.449 41.207 41.207v429.586c0 22.758-18.449 41.207-41.208 41.207z" fill="#7b727b"/><path d="m366.229 0h-30.905c22.758 0 41.207 18.449 41.207 41.207v429.586c0 22.758-18.449 41.207-41.207 41.207h30.905c22.758 0 41.207-18.449 41.207-41.207v-429.586c.001-22.758-18.449-41.207-41.207-41.207z" fill="#686169"/><path d="m380.652 41.207v429.586c0 7.965-6.457 14.423-14.423 14.423h-220.458c-7.965 0-14.423-6.457-14.423-14.423v-429.586c0-7.965 6.457-14.423 14.423-14.423h41.314c2.402 0 4.538 1.524 5.32 3.795l5.444 15.816c.782 2.271 2.918 3.795 5.32 3.795h105.664c2.402 0 4.538-1.524 5.32-3.795l5.444-15.816c.782-2.271 2.918-3.795 5.32-3.795h41.314c7.964.001 14.421 6.458 14.421 14.423z" fill="#d6faec"/><g><path d="m366.229 26.785h-30.905c7.965 0 14.423 6.457 14.423 14.423v429.586c0 7.965-6.457 14.423-14.423 14.423h30.905c7.965 0 14.423-6.457 14.423-14.423v-429.587c0-7.965-6.457-14.422-14.423-14.422z" fill="#ccfae8"/></g><path d="m323.417 263.303h-134.834c-9.335 0-16.903-7.568-16.903-16.903v-12.703c0-1.872 1.517-3.389 3.389-3.389h161.862c1.872 0 3.389 1.517 3.389 3.389v12.703c0 9.335-7.568 16.903-16.903 16.903z" fill="#e0925b"/><path d="m337.013 230.308h-30.905c1.826 0 3.307 1.555 3.307 3.473v12.199c0 9.568-7.384 17.324-16.493 17.324h30.905c9.109 0 16.493-7.756 16.493-17.324v-12.199c0-1.918-1.481-3.473-3.307-3.473z" fill="#d48145"/><path d="m337.017 204.615h-162.034c-1.869 0-3.364-1.574-3.306-3.482.458-14.894 7.212-72.489 84.323-72.489s83.865 57.595 84.323 72.489c.058 1.908-1.437 3.482-3.306 3.482z" fill="#e0925b"/><path d="m256 128.645c-5.506 0-10.641.303-15.453.853 62.578 7.163 68.445 57.805 68.87 71.635.059 1.907-1.437 3.482-3.306 3.482h30.905c1.869 0 3.364-1.574 3.306-3.482-.457-14.893-7.211-72.488-84.322-72.488z" fill="#d48145"/><path d="m335.817 231.89h-159.634c-7.965 0-14.423-6.457-14.423-14.423 0-7.965 6.457-14.423 14.423-14.423h159.635c7.965 0 14.423 6.457 14.423 14.423-.001 7.966-6.458 14.423-14.424 14.423z" fill="#e07f5d"/><path d="m335.817 203.045h-30.905c7.965 0 14.423 6.457 14.423 14.423 0 7.965-6.457 14.423-14.423 14.423h30.905c7.965 0 14.423-6.457 14.423-14.423s-6.457-14.423-14.423-14.423z" fill="#d06d4a"/><path d="m318.841 414.904h-125.682c-5.69 0-10.302-4.612-10.302-10.302v-51.509c0-5.69 4.612-10.302 10.302-10.302h125.682c5.69 0 10.302 4.612 10.302 10.302v51.509c0 5.69-4.612 10.302-10.302 10.302z" fill="#2fd9e7"/><path d="m277.361 373.448-16.032-15.453c-2.983-2.875-7.731-2.787-10.605.195-2.875 2.982-2.787 7.73.195 10.604l2.648 2.553h-15.24c-4.142 0-7.5 3.358-7.5 7.5s3.358 7.5 7.5 7.5h16.599l-2.646 2.842c-2.822 3.031-2.653 7.777.379 10.6 1.445 1.345 3.279 2.011 5.108 2.011 2.01 0 4.014-.803 5.491-2.39l14.387-15.453c2.789-2.993 2.662-7.67-.284-10.509z" fill="#ff6167"/></g></svg>