<svg id="Layer_1" enable-background="new 0 0 512 512" height="512" viewBox="0 0 512 512" width="512" xmlns="http://www.w3.org/2000/svg"><g><path d="m234.498 415.385h-61.811v-70.61c0-3.228 2.617-5.845 5.845-5.845h50.12c3.228 0 5.845 2.617 5.845 5.845v70.61z" fill="#ffe589"/><g fill="#e0925b"><path d="m102.503 256h30.905v165.859h-30.905z"/><path d="m378.592 256h30.905v165.859h-30.905z"/></g><g fill="#ffcd55"><path d="m330.573 33.02c-19.067-20.985-46.248-33.02-74.573-33.02s-55.506 12.035-74.573 33.02c-2.785 3.065-2.559 7.809.507 10.594 3.066 2.786 7.809 2.559 10.595-.507 16.23-17.862 39.365-28.107 63.471-28.107s47.241 10.245 63.472 28.106c1.48 1.629 3.513 2.457 5.553 2.457 1.8 0 3.605-.644 5.042-1.949 3.065-2.786 3.291-7.529.506-10.594z"/><path d="m256 34.357c-18.667 0-36.583 7.932-49.152 21.761-2.786 3.065-2.56 7.809.505 10.594 3.064 2.785 7.809 2.561 10.595-.505 9.733-10.708 23.603-16.85 38.053-16.85s28.319 6.142 38.053 16.85c1.479 1.628 3.512 2.456 5.552 2.456 1.8 0 3.605-.644 5.043-1.95 3.064-2.786 3.291-7.529.505-10.594-12.571-13.83-30.487-21.762-49.154-21.762z"/><path d="m256 67.925c-9.245 0-18.108 3.926-24.314 10.771-2.782 3.068-2.551 7.812.518 10.594s7.812 2.551 10.594-.518c3.369-3.716 8.182-5.847 13.203-5.847s9.834 2.131 13.203 5.847c1.48 1.632 3.515 2.462 5.558 2.462 1.797 0 3.601-.642 5.036-1.944 3.068-2.783 3.3-7.526.518-10.594-6.208-6.845-15.071-10.771-24.316-10.771z"/><path d="m256 109.173c-4.143 0-7.5 3.358-7.5 7.5v31.129c0 4.142 3.357 7.5 7.5 7.5s7.5-3.358 7.5-7.5v-31.129c0-4.142-3.357-7.5-7.5-7.5z"/></g><path d="m397.135 208.77h-282.27v-45.09c0-11.51 9.331-20.841 20.841-20.841h240.587c11.51 0 20.841 9.331 20.841 20.841v45.09z" fill="#2fd9e7"/><path d="m376.294 142.839h-30.905c11.51 0 20.841 9.331 20.841 20.841v45.09h30.905v-45.09c0-11.51-9.331-20.841-20.841-20.841z" fill="#00d0e4"/><path d="m422.889 493.595h-333.778v-82.552c0-3.414 2.767-6.181 6.181-6.181h321.417c3.414 0 6.181 2.767 6.181 6.181v82.552z" fill="#2fd9e7"/><path d="m391.984 404.861v88.733h30.905v-82.552c0-3.414-2.767-6.181-6.181-6.181z" fill="#00d0e4"/><path d="m496.547 512h-481.094c-8.535 0-15.453-6.918-15.453-15.453 0-8.534 6.918-15.453 15.453-15.453h481.095c8.534 0 15.453 6.918 15.453 15.453-.001 8.535-6.919 15.453-15.454 15.453z" fill="#e0925b"/><path d="m496.547 481.095h-30.905c8.534 0 15.453 6.918 15.453 15.453 0 8.534-6.919 15.453-15.453 15.453h30.905c8.534 0 15.453-6.918 15.453-15.453s-6.919-15.453-15.453-15.453z" fill="#d48145"/><path d="m115.895 291.026c-19.344 0-35.026-15.682-35.026-35.026v-51.509c0-11.379 9.225-20.604 20.604-20.604h49.449v72.113c0 19.344-15.682 35.026-35.027 35.026z" fill="#ff6167"/><path d="m120.016 183.887v72.113c0 13.797-7.98 25.725-19.573 31.435 4.662 2.296 9.905 3.591 15.453 3.591 19.344 0 35.026-15.682 35.026-35.026v-72.113z" fill="#fe454a"/><path d="m185.948 291.026c-19.344 0-35.026-15.682-35.026-35.026v-72.113h70.052v72.113c0 19.344-15.682 35.026-35.026 35.026z" fill="#f8f7f7"/><path d="m190.068 183.887v72.113c0 13.797-7.98 25.725-19.573 31.435 4.662 2.296 9.905 3.591 15.453 3.591 19.344 0 35.026-15.682 35.026-35.026v-72.113z" fill="#efefef"/><path d="m256 291.026c-19.344 0-35.026-15.682-35.026-35.026v-72.113h70.052v72.113c0 19.344-15.682 35.026-35.026 35.026z" fill="#ff6167"/><path d="m260.121 183.887v72.113c0 13.797-7.98 25.725-19.573 31.435 4.662 2.296 9.905 3.591 15.453 3.591 19.344 0 35.026-15.682 35.026-35.026v-72.113z" fill="#fe454a"/><path d="m326.052 291.026c-19.344 0-35.026-15.682-35.026-35.026v-72.113h70.052v72.113c0 19.344-15.681 35.026-35.026 35.026z" fill="#f8f7f7"/><path d="m330.173 183.887v72.113c0 13.797-7.98 25.725-19.573 31.435 4.662 2.296 9.905 3.591 15.453 3.591 19.345 0 35.026-15.682 35.026-35.026v-72.113z" fill="#efefef"/><path d="m396.105 291.026c-19.344 0-35.026-15.682-35.026-35.026v-72.113h49.449c11.379 0 20.604 9.225 20.604 20.604v51.509c-.001 19.344-15.683 35.026-35.027 35.026z" fill="#ff6167"/><path d="m410.527 183.887h-30.905c11.379 0 20.604 9.225 20.604 20.604v51.509c0 13.797-7.98 25.725-19.573 31.435 4.662 2.296 9.905 3.591 15.453 3.591 19.345 0 35.026-15.682 35.026-35.026v-51.509c-.001-11.379-9.226-20.604-20.605-20.604z" fill="#fe454a"/></g></svg>