<svg id="Layer_1" enable-background="new 0 0 512 512" height="512" viewBox="0 0 512 512" width="512" xmlns="http://www.w3.org/2000/svg"><g><g fill="#afbbc6"><path d="m400.725 197.083-2.879-28.506c-.006-.061-.013-.121-.021-.181-1.873-14.921-11.569-27.983-25.329-34.147l-13.985-7.272c-3.673-1.91-8.203-.481-10.114 3.194s-.48 8.203 3.194 10.114l14.188 7.377c.143.074.287.144.434.208 9.062 3.996 15.462 12.539 16.719 22.309l2.869 28.41c.391 3.865 3.649 6.747 7.453 6.747.252 0 .506-.013.763-.039 4.121-.415 7.124-4.093 6.708-8.214z"/><path d="m98.462 229.756-28.211-51.521c-1.989-3.633-6.544-4.965-10.181-2.977-3.633 1.99-4.965 6.547-2.976 10.181l28.211 51.521c1.363 2.49 3.933 3.899 6.585 3.899 1.217 0 2.452-.297 3.596-.923 3.633-1.989 4.965-6.546 2.976-10.18z"/><path d="m72.112 45.68c-4.143 0-7.5 3.358-7.5 7.5v11.897c0 4.142 3.357 7.5 7.5 7.5s7.5-3.358 7.5-7.5v-11.897c0-4.142-3.357-7.5-7.5-7.5z"/></g><path d="m128.389 187.476h-112.552c-8.747 0-15.837-7.09-15.837-15.837v-14.982c0-3.362 2.725-6.087 6.087-6.087h132.051c3.362 0 6.087 2.725 6.087 6.087v14.982c0 8.747-7.09 15.837-15.836 15.837z" fill="#ff6167"/><path d="m138.123 150.57h-30.905c3.37 0 6.102 2.719 6.102 6.072v15.036c0 8.725-7.108 15.798-15.875 15.798h30.905c8.768 0 15.875-7.073 15.875-15.798v-15.036c0-3.353-2.732-6.072-6.102-6.072z" fill="#fe454a"/><path d="m122.817 121.793h-101.409v-6.135c0-27.935 22.646-50.581 50.581-50.581h.247c27.935 0 50.581 22.646 50.581 50.581z" fill="#cfdbe4"/><path d="m72.113 65.077c-5.39 0-10.58.846-15.453 2.401 20.445 6.521 35.252 25.624 35.252 48.184v6.132h30.905v-6.132c0-27.937-22.701-50.585-50.704-50.585z" fill="#afbbc6"/><path d="m118.81 150.57h-93.394c-2.96 0-5.618-2.381-6.7-6.003l-6.807-22.774h120.408l-6.807 22.774c-1.082 3.622-3.74 6.003-6.7 6.003z" fill="#7b727b"/><path d="m101.411 121.793-6.807 22.774c-1.082 3.621-3.741 6.003-6.7 6.003h30.905c2.96 0 5.618-2.381 6.7-6.003l6.807-22.774z" fill="#686169"/><path d="m16.234 363.37v28.106c0 3.401 2.767 6.158 6.181 6.158h380.989s21.11-34.133 21.11-81.052-21.11-87.505-21.11-87.505h-36.559v117.259s-54.944 1.783-67.024 1.783c-16.2 0-54.047-13.083-54.047-29.223v-30.603c0-15.575-12.673-28.201-28.307-28.201h-97.513c-57.284 0-103.72 46.239-103.72 103.278z" fill="#ff6167"/><g fill="#fe454a"><path d="m403.403 229.077h-17.487s7.691 40.586 7.691 87.505-21.11 81.052-21.11 81.052h30.905s21.11-34.133 21.11-81.052-21.109-87.505-21.109-87.505z"/><path d="m214.867 288.293v30.603c0 16.139 13.133 29.223 29.332 29.223 4.374 0 39.085-.234 50.056-.532-13.537-2.591-48.482-14.448-48.482-28.691v-30.603c0-15.575-12.673-28.201-28.307-28.201h-30.905c15.633 0 28.306 12.626 28.306 28.201z"/></g><ellipse cx="119.048" cy="399.685" fill="#7b727b" rx="66.962" ry="66.636"/><ellipse cx="421.815" cy="399.685" fill="#7b727b" rx="66.962" ry="66.636"/><ellipse cx="421.815" cy="399.685" fill="#efefef" rx="22.932" ry="22.821"/><ellipse cx="119.048" cy="399.685" fill="#efefef" rx="22.932" ry="22.821"/><path d="m32.994 397.634h172.108c2.346 0 4.237-1.951 4.127-4.285-2.246-47.664-41.763-85.622-90.181-85.622-48.417 0-87.935 37.959-90.18 85.622-.111 2.335 1.779 4.285 4.126 4.285z" fill="#2fd9e7"/><path d="m119.048 307.727c-5.272 0-10.429.475-15.453 1.339 41.119 7.067 72.727 41.809 74.728 84.283.11 2.334-1.78 4.285-4.127 4.285h30.905c2.346 0 4.236-1.951 4.127-4.285-2.246-47.663-41.763-85.622-90.18-85.622z" fill="#00d0e4"/><path d="m82.478 397.606h73.138c0-20.101-16.37-36.391-36.569-36.391s-36.569 16.29-36.569 36.391z" fill="#ffe589"/><path d="m87.694 262.168h139.195c11.88 0 21.511-9.631 21.511-21.511v-.975c0-5.64-4.572-10.212-10.212-10.212h-150.494c-9.029 0-16.349 7.32-16.349 16.349 0 9.03 7.32 16.349 16.349 16.349z" fill="#7b727b"/><path d="m238.188 229.47h-30c5.64 0 10.212 4.572 10.212 10.212v.975c0 11.88-9.631 21.511-21.511 21.511h30c11.88 0 21.511-9.631 21.511-21.511v-.975c0-5.639-4.572-10.212-10.212-10.212z" fill="#686169"/><path d="m335.847 397.634h172.024c2.345 0 4.234-1.951 4.125-4.285-2.245-47.664-41.743-85.622-90.136-85.622s-87.892 37.959-90.136 85.622c-.111 2.335 1.778 4.285 4.123 4.285z" fill="#2fd9e7"/><path d="m421.859 307.727c-5.272 0-10.429.476-15.453 1.34 41.095 7.07 72.683 41.811 74.684 84.282.11 2.334-1.779 4.285-4.124 4.285h30.905c2.345 0 4.234-1.951 4.124-4.285-2.244-47.663-41.743-85.622-90.136-85.622z" fill="#00d0e4"/><path d="m385.308 397.606h73.102c0-20.101-16.362-36.391-36.551-36.391s-36.551 16.29-36.551 36.391z" fill="#ffe589"/><path d="m365.652 229.077h83.541c5.324 0 9.64-4.316 9.64-9.64v-23.195c0-5.324-4.316-9.64-9.64-9.64h-53.848c-16.399 0-29.692 13.294-29.692 29.692v12.783z" fill="#2fd9e7"/><path d="m424.513 229.077h24.658c5.336 0 9.662-4.305 9.662-9.615v-23.242c0-5.312-4.328-9.619-9.666-9.619h-24.655v42.476z" fill="#ffe589"/><path d="m387.784 221.577h-48.179c-4.143 0-7.5 3.358-7.5 7.5s3.357 7.5 7.5 7.5h48.179c4.143 0 7.5-3.358 7.5-7.5s-3.357-7.5-7.5-7.5z" fill="#7b727b"/><ellipse cx="341.514" cy="131.242" fill="#2fd9e7" rx="20.604" ry="20.503"/><path d="m134.042 114.293h-123.859c-4.143 0-7.5 3.358-7.5 7.5s3.357 7.5 7.5 7.5h123.859c4.143 0 7.5-3.358 7.5-7.5s-3.357-7.5-7.5-7.5z" fill="#afbbc6"/></g></svg>