<svg id="Layer_1" enable-background="new 0 0 512 512" height="512" viewBox="0 0 512 512" width="512" xmlns="http://www.w3.org/2000/svg"><g><path d="m74.173 293.087c-40.96 0-74.173 33.213-74.173 74.173s33.213 74.173 74.173 74.173 74.173-33.213 74.173-74.173-33.213-74.173-74.173-74.173zm0 120.531c-25.6 0-46.358-20.758-46.358-46.358s20.758-46.358 46.358-46.358 46.358 20.758 46.358 46.358c0 25.599-20.758 46.358-46.358 46.358z" fill="#7a6d79"/><path d="m437.827 293.087c-40.96 0-74.173 33.213-74.173 74.173s33.213 74.173 74.173 74.173 74.173-33.213 74.173-74.173-33.213-74.173-74.173-74.173zm0 120.531c-25.6 0-46.358-20.758-46.358-46.358s20.758-46.358 46.358-46.358 46.358 20.758 46.358 46.358c0 25.599-20.758 46.358-46.358 46.358z" fill="#7a6d79"/><path d="m282.265 343.14-71.173-202.608c-1.373-3.908-5.652-5.962-9.562-4.59-3.908 1.373-5.963 5.654-4.59 9.562l71.173 202.608c1.084 3.086 3.981 5.016 7.076 5.016.825 0 1.664-.137 2.486-.426 3.907-1.373 5.963-5.654 4.59-9.562z" fill="#cfdbe4"/><path d="m445.263 366.278-16.932-128.284v-135.146c0-14.55-11.837-26.388-26.388-26.388h-11.505c-4.142 0-7.5 3.358-7.5 7.5s3.358 7.5 7.5 7.5h11.505c6.279 0 11.388 5.108 11.388 11.388v135.639c0 .328.021.656.064.981l16.996 128.773c.498 3.773 3.72 6.52 7.426 6.52.327 0 .658-.021.991-.065 4.107-.543 6.997-4.311 6.455-8.418z" fill="#cfdbe4"/><path d="m402.259 224.538h-47.593c-.065-.001-.133-.001-.199 0h-119.18c-1.764 0-3.471.622-4.822 1.755l-161.114 135.222c-2.528 2.122-3.372 5.647-2.078 8.684 1.188 2.787 3.918 4.561 6.896 4.561.267 0 .536-.015.806-.043l201.016-21.634c2.155-.232 4.104-1.385 5.345-3.161l77.132-110.384h43.79c4.142 0 7.5-3.358 7.5-7.5s-3.357-7.5-7.499-7.5zm-131.264 113.996-173.13 18.633 140.152-117.629h102.153z" fill="#afbbc6"/><path d="m163.414 133.414c0 13.082 10.57 23.689 23.606 23.689 6.674 0 12.703-2.778 16.996-7.244 5.395-5.613 12.803-8.824 20.574-8.824h17.537c8.584 0 16.062-7.042 16.064-15.656.001-4.334-1.747-8.241-4.578-11.082-2.819-2.829-6.721-4.583-11.028-4.583h-55.565c-15.836 0-23.606 13.635-23.606 23.7z" fill="#ff6167"/><path d="m253.613 114.298c-2.819-2.829-6.721-4.583-11.028-4.583h-30.905c4.307 0 8.208 1.754 11.028 4.583 2.831 2.841 4.579 6.747 4.578 11.082-.002 8.614-7.48 15.656-16.064 15.656h-17.537c-7.771 0-15.179 3.211-20.574 8.824-.49.509-1.005.994-1.538 1.458 4.141 3.602 9.539 5.786 15.448 5.786 6.674 0 12.703-2.778 16.996-7.244 5.395-5.613 12.803-8.824 20.574-8.824h17.537c8.584 0 16.062-7.042 16.064-15.656 0-4.335-1.748-8.242-4.579-11.082z" fill="#fe454a"/><circle cx="74.173" cy="367.26" fill="#7a6d79" r="18.543"/><circle cx="437.827" cy="367.26" fill="#7a6d79" r="18.543"/><g fill="#2fd9e7"><circle cx="275.189" cy="345.626" r="30.905"/><path d="m419.284 256.788c8.534 0 15.453-6.918 15.453-15.453v-18.543c0-8.534-6.918-15.453-15.453-15.453-8.534 0-15.453 6.918-15.453 15.453v18.543c0 8.535 6.918 15.453 15.453 15.453z"/><path d="m352.322 97.352h24.724c7.396 0 13.392-5.996 13.392-13.392 0-7.396-5.996-13.392-13.392-13.392h-24.724c-7.396 0-13.392 5.996-13.392 13.392-.001 7.396 5.995 13.392 13.392 13.392z"/></g><path d="m327.563 387.394-47.071-47.072c-2.928-2.929-7.677-2.929-10.606 0s-2.929 7.678 0 10.606l47.071 47.072c1.464 1.465 3.384 2.197 5.303 2.197s3.839-.732 5.303-2.197c2.93-2.928 2.93-7.677 0-10.606z" fill="#7a6d79"/><path d="m339.298 385.197h-35.501c-4.142 0-7.5 3.358-7.5 7.5s3.358 7.5 7.5 7.5h35.501c4.142 0 7.5-3.358 7.5-7.5s-3.358-7.5-7.5-7.5z" fill="#fe454a"/><path d="m191.9 257.405h-77.586l-22.461-32.167c-2.372-3.396-7.047-4.226-10.443-1.855-3.396 2.372-4.227 7.047-1.855 10.443l24.7 35.373c1.403 2.009 3.699 3.206 6.149 3.206h81.496c4.142 0 7.5-3.358 7.5-7.5s-3.358-7.5-7.5-7.5z" fill="#cfdbe4"/><path d="m72.113 87.324c-4.142 0-7.5 3.358-7.5 7.5v11.926c0 4.142 3.358 7.5 7.5 7.5s7.5-3.358 7.5-7.5v-11.926c0-4.142-3.358-7.5-7.5-7.5z" fill="#afbbc6"/><path d="m128.35 229.532h-112.475c-8.767 0-15.875-7.107-15.875-15.875v-15.109c0-3.37 2.732-6.102 6.102-6.102h132.022c3.37 0 6.102 2.732 6.102 6.102v15.109c-.001 8.768-7.108 15.875-15.876 15.875z" fill="#ff6167"/><path d="m138.123 192.446h-30.905c3.37 0 6.102 2.732 6.102 6.102v15.109c0 8.768-7.108 15.875-15.875 15.875h30.905c8.768 0 15.875-7.108 15.875-15.875v-15.109c0-3.37-2.732-6.102-6.102-6.102z" fill="#fe454a"/><path d="m122.817 163.601h-101.409v-6.146c0-28.003 22.701-50.705 50.705-50.705 28.003 0 50.705 22.701 50.705 50.705v6.146z" fill="#cfdbe4"/><path d="m72.113 106.75c-5.39 0-10.58.848-15.453 2.406 20.445 6.536 35.252 25.685 35.252 48.298v6.146h30.905v-6.146c0-28.003-22.701-50.704-50.704-50.704z" fill="#afbbc6"/><path d="m118.81 192.446h-93.394c-2.96 0-5.618-2.387-6.7-6.017l-6.807-22.828h120.408l-6.807 22.828c-1.082 3.63-3.74 6.017-6.7 6.017z" fill="#7b727b"/><path d="m101.411 163.601-6.807 22.828c-1.082 3.63-3.741 6.017-6.7 6.017h30.905c2.96 0 5.618-2.387 6.7-6.017l6.807-22.828z" fill="#686169"/><path d="m132.317 156.101h-120.408c-4.142 0-7.5 3.358-7.5 7.5s3.358 7.5 7.5 7.5h120.408c4.142 0 7.5-3.358 7.5-7.5s-3.358-7.5-7.5-7.5z" fill="#afbbc6"/></g></svg>