<svg id="Layer_1" enable-background="new 0 0 512 512" height="512" viewBox="0 0 512 512" width="512" xmlns="http://www.w3.org/2000/svg"><g><path d="m460.154 512h-408.308c-4.453 0-8.063-3.61-8.063-8.063v-427.717h424.435v427.717c-.001 4.453-3.611 8.063-8.064 8.063z" fill="#d48145"/><path d="m437.312 76.22v435.78h22.842c4.453 0 8.063-3.61 8.063-8.063v-427.717z" fill="#bb723b"/><path d="m43.783 87.565-43.529-84.124c-.79-1.581.36-3.441 2.128-3.441h507.236c1.768 0 2.918 1.86 2.128 3.441l-43.529 84.125h-424.434z" fill="#e0925b"/><path d="m509.618 0h-30.905c1.768 0 2.918 1.86 2.128 3.441l-43.529 84.125h30.905l43.529-84.125c.79-1.581-.36-3.441-2.128-3.441z" fill="#d48145"/><path d="m74.688 459.222v-318.878c0-12.08 9.793-21.873 21.873-21.873h318.878c12.08 0 21.873 9.793 21.873 21.873v318.878c0 12.08-9.793 21.873-21.873 21.873h-318.878c-12.08 0-21.873-9.793-21.873-21.873z" fill="#f8f7f7"/><circle cx="256" cy="299.783" fill="#e0925b" r="154.527"/><circle cx="256" cy="299.783" fill="#ffe589" r="123.622"/><path d="m256 176.161c-5.234 0-10.39.328-15.453.96 60.981 7.605 108.169 59.621 108.169 122.662s-47.188 115.057-108.169 122.662c5.063.631 10.219.96 15.453.96 68.274 0 123.622-55.347 123.622-123.622s-55.348-123.622-123.622-123.622z" fill="#ffcd55"/><path d="m246.402 223.1c2.429 10.339-5.043 16.176-15.382 18.606-10.339 2.429-19.629.53-22.058-9.809s3.983-20.689 14.322-23.119 20.689 3.983 23.118 14.322z" fill="#d64239"/><path d="m326.122 249.404c-4.85 9.448-15.632 11.6-25.081 6.75-9.448-4.85-13.985-14.866-9.135-24.314s16.441-13.176 25.89-8.326c9.449 4.851 13.177 16.442 8.326 25.89z" fill="#1fbd92"/><path d="m197.199 318.03c-6.492 8.405-17.545 8.631-25.951 2.138-8.405-6.492-10.979-17.244-4.487-25.649s18.569-9.956 26.974-3.463 9.956 18.569 3.464 26.974z" fill="#1fbd92"/><path d="m272.806 376.154c-3.246 10.112-14.075 15.678-24.187 12.432s-15.678-14.075-12.432-24.187 14.564-9.337 24.676-6.091c10.112 3.247 15.189 7.734 11.943 17.846z" fill="#d64239"/><path d="m273.811 297.46c0 10.62-5.687 19.23-16.307 19.23s-19.23-8.61-19.23-19.23 8.61-19.23 19.23-19.23 16.307 8.61 16.307 19.23z" fill="#d64239"/><path d="m327.196 343.456c-10.62 0-16.323-9.01-16.323-19.63s5.703-18.83 16.323-18.83 19.23 8.61 19.23 19.23-8.61 19.23-19.23 19.23z" fill="#1fbd92"/></g></svg>