<svg id="Layer_1" enable-background="new 0 0 512 512" height="512" viewBox="0 0 512 512" width="512" xmlns="http://www.w3.org/2000/svg"><g><g fill="#ffbead"><path d="m230.651 205.773c0 22.539-13.784 40.811-30.787 40.811s-26.881-20.983-26.881-43.523 9.877-38.099 26.881-38.099 30.787 18.271 30.787 40.811z"/><path d="m401.88 205.773c0 22.539 13.784 40.811 30.787 40.811s26.881-20.983 26.881-43.523-9.877-38.099-26.881-38.099-30.787 18.271-30.787 40.811z"/></g><path d="m453.686 512h-274.841c-9.448 0-17.107-7.659-17.107-17.107v-26.107c0-51.375 41.647-93.022 93.022-93.022h123.01c51.375 0 93.022 41.647 93.022 93.022v26.107c.001 9.448-7.658 17.107-17.106 17.107z" fill="#ffe589"/><path d="m377.771 375.764h-30.905c51.375 0 93.022 41.648 93.022 93.022v26.107c0 9.448-7.659 17.107-17.107 17.107h30.905c9.448 0 17.107-7.659 17.107-17.107v-26.107c0-51.374-41.648-93.022-93.022-93.022z" fill="#ffd86e"/><path d="m285.36 311.745h61.811v100.509h-61.811z" fill="#ffd8ca"/><path d="m316.266 311.745h30.905v100.509h-30.905z" fill="#ffbead"/><path d="m285.36 351.546s-2.958 40.977 30.905 60.707c0 0-19.256 21.5-38.733 14.671-15.432-5.411-24.165-34.196-27.126-45.919-.747-2.955.441-6.056 2.964-7.767z" fill="#f5f2f4"/><path d="m347.171 351.546s2.958 40.977-30.905 60.707c0 0 19.256 21.5 38.733 14.671 15.432-5.411 24.165-34.196 27.126-45.919.747-2.955-.441-6.056-2.964-7.767z" fill="#f5f2f4"/><path d="m216.9 232.2v-67.614c0-54.878 44.487-99.366 99.366-99.366 54.878 0 99.366 44.487 99.366 99.366v67.24c0 54.981-44.571 99.553-99.553 99.553-54.775 0-99.179-44.404-99.179-99.179z" fill="#ffd8ca"/><path d="m316.266 65.221c-5.257 0-10.417.412-15.453 1.198 47.539 7.423 83.913 48.546 83.913 98.168v67.24c0 49.72-36.45 90.923-84.085 98.355 5.031.786 10.186 1.198 15.437 1.198 54.981 0 99.553-44.571 99.553-99.553v-67.24c0-54.879-44.487-99.366-99.365-99.366z" fill="#ffbead"/><path d="m316.266 47.42c-152.388 0-109.463 131.539-106.178 138.6 3.087 6.647 6.812 24.734 6.812 24.734s21.17-17.011 20.487-23.503c-1.091-10.373-7.098-74.095 19.11-68.087 26.199 6.007 36.987 10.373 58.892 10.373s32.693-4.366 58.892-10.373c26.208-6.007 20.201 57.714 19.11 68.087-.683 6.492 22.24 23.562 22.24 23.562s1.971-18.145 5.058-24.792c4.885-10.501 47.964-138.601-104.423-138.601z" fill="#7b727b"/><g><path d="m308.354 263.107c3.057.798 5.566 1.197 8.076 1.197s5.02-.399 8.076-1.197c4.007-1.047 6.408-5.144 5.361-9.152s-5.14-6.406-9.152-5.362c-3.604.941-4.968.941-8.572 0-4.005-1.044-8.104 1.354-9.151 5.362-1.047 4.009 1.354 8.106 5.362 9.152z" fill="#ffbead"/><path d="m298.659 171.054c1.046-4.008-1.354-8.105-5.362-9.151-11.641-3.039-18.74-3.039-30.381 0-4.008 1.046-6.408 5.144-5.362 9.151 1.047 4.008 5.146 6.407 9.151 5.362 9.164-2.393 13.639-2.393 22.803 0 .635.166 1.272.245 1.899.245 3.33 0 6.371-2.235 7.252-5.607z" fill="#7b727b"/><path d="m369.943 161.902c-11.641-3.039-18.74-3.039-30.381 0-4.008 1.046-6.408 5.144-5.362 9.151 1.047 4.008 5.147 6.407 9.151 5.362 9.164-2.393 13.639-2.393 22.803 0 .635.166 1.272.245 1.899.245 3.33 0 6.371-2.235 7.252-5.607 1.047-4.007-1.354-8.104-5.362-9.151z" fill="#7b727b"/><path d="m332.2 269.588c-9.729 5.415-21.814 5.414-31.542 0-3.62-2.015-8.187-.713-10.201 2.906-2.014 3.62-.713 8.187 2.906 10.201 7.114 3.959 15.09 5.939 23.066 5.939s15.951-1.979 23.065-5.939c3.619-2.014 4.92-6.581 2.906-10.201s-6.579-4.921-10.2-2.906z" fill="#ffbead"/><g fill="#7b727b"><path d="m273.162 203.823c-4.143 0-7.5 3.358-7.5 7.5v6.181c0 4.142 3.357 7.5 7.5 7.5s7.5-3.358 7.5-7.5v-6.181c0-4.142-3.357-7.5-7.5-7.5z"/><path d="m359.697 203.823c-4.143 0-7.5 3.358-7.5 7.5v6.181c0 4.142 3.357 7.5 7.5 7.5s7.5-3.358 7.5-7.5v-6.181c0-4.142-3.357-7.5-7.5-7.5z"/></g></g><g fill="#7b727b"><path d="m316.266 435.478c-4.143 0-7.5 3.358-7.5 7.5v4.121c0 4.142 3.357 7.5 7.5 7.5s7.5-3.358 7.5-7.5v-4.121c0-4.142-3.358-7.5-7.5-7.5z"/><path d="m316.266 467.81c-4.143 0-7.5 3.358-7.5 7.5v4.121c0 4.142 3.357 7.5 7.5 7.5s7.5-3.358 7.5-7.5v-4.121c0-4.143-3.358-7.5-7.5-7.5z"/></g><path d="m435.767 116.769h-239.002l4.458-41.661c4.574-42.75 39.629-75.108 81.368-75.108h67.349c41.739 0 76.794 32.358 81.369 75.109z" fill="#ff6167"/><path d="m431.309 75.109c-4.575-42.751-39.63-75.109-81.369-75.109h-30.905c41.739 0 76.794 32.358 81.369 75.109l4.458 41.661h30.905z" fill="#fe454a"/><path d="m346.656 84.99h-60.781c-9.388 0-16.998-7.61-16.998-16.998v-13.392c0-9.388 7.61-16.998 16.998-16.998h60.781c9.388 0 16.998 7.61 16.998 16.998v13.392c0 9.388-7.61 16.998-16.998 16.998z" fill="#ffe589"/><path d="m346.656 37.602h-30.906c9.388 0 16.998 7.61 16.998 16.998v13.392c0 9.388-7.61 16.998-16.998 16.998h30.905c9.388 0 16.998-7.61 16.998-16.998v-13.392c.001-9.388-7.609-16.998-16.997-16.998z" fill="#ffd86e"/><path d="m195.067 386.277v122.169c0 1.963-1.558 3.554-3.479 3.554h-146.234c-1.922 0-3.479-1.591-3.479-3.554v-122.169c0-5.71.496-11.408 1.481-17.029l6.181-35.248h137.869l6.181 35.248c.985 5.62 1.48 11.319 1.48 17.029z" fill="#e49a6b"/><path d="m193.586 369.248-6.181-35.248h-30.905l6.181 35.248c.986 5.62 1.481 11.319 1.481 17.029v122.169c0 1.963-1.558 3.554-3.479 3.554h30.905c1.922 0 3.479-1.591 3.479-3.554v-122.169c0-5.71-.495-11.409-1.481-17.029z" fill="#e0925b"/><path d="m191.614 338.829h-146.286c-2.276 0-4.121-1.845-4.121-4.121v-22.664c0-2.276 1.845-4.121 4.121-4.121h146.286c2.276 0 4.121 1.845 4.121 4.121v22.664c-.001 2.276-1.846 4.121-4.121 4.121z" fill="#e0925b"/><path d="m191.614 307.923h-30.905c2.276 0 4.121 1.845 4.121 4.121v22.664c0 2.276-1.845 4.121-4.121 4.121h30.905c2.276 0 4.121-1.845 4.121-4.121v-22.664c-.001-2.276-1.846-4.121-4.121-4.121z" fill="#d48145"/><path d="m446.266 144.225h-260c-5.392 0-9.763-4.371-9.763-9.763v-6.399c0-8.142 6.601-14.743 14.743-14.743h250.04c8.142 0 14.743 6.601 14.743 14.743v6.399c0 5.392-4.371 9.763-9.763 9.763z" fill="#f5f2f4"/><path d="m441.285 113.32h-30.905c8.142 0 14.743 6.601 14.743 14.743v6.399c0 5.392-4.371 9.763-9.763 9.763h30.905c5.392 0 9.763-4.371 9.763-9.763v-6.399c.001-8.142-6.6-14.743-14.743-14.743z" fill="#e7e4e7"/></g></svg>