<svg id="Layer_1" enable-background="new 0 0 512 512" height="512" viewBox="0 0 512 512" width="512" xmlns="http://www.w3.org/2000/svg"><g><g fill="#e7e7e7"><path d="m49.086 119.349c-2.93-2.929-7.678-2.929-10.607 0s-2.929 7.678 0 10.606l60.378 60.378c1.465 1.464 3.385 2.197 5.304 2.197s3.839-.732 5.304-2.197c2.929-2.929 2.929-7.678 0-10.606z"/><path d="m473.521 119.349c-2.929-2.929-7.677-2.93-10.607 0l-63.258 63.257c-2.929 2.929-2.929 7.678 0 10.606 1.465 1.465 3.384 2.197 5.304 2.197 1.919 0 3.839-.732 5.304-2.197l63.258-63.257c2.928-2.929 2.928-7.678-.001-10.606z"/></g><path d="m296.255 269.907h-12.362c-4.552 0-8.241-3.69-8.241-8.241v-253.425c0-4.552 3.69-8.241 8.241-8.241h12.362c4.552 0 8.241 3.69 8.241 8.241v253.425c0 4.552-3.69 8.241-8.241 8.241z" fill="#e0925b"/><path d="m304.887 279.823-11.668-4.085c-4.296-1.504-6.559-6.206-5.055-10.502l83.736-239.19c1.504-4.296 6.206-6.559 10.502-5.055l11.668 4.085c4.296 1.504 6.559 6.206 5.055 10.502l-83.736 239.191c-1.504 4.294-6.206 6.558-10.502 5.054z" fill="#e0925b"/><path d="m416.708 176.161h-321.416l28.596-51.253c1.507-2.702 4.359-4.376 7.453-4.376h249.319c3.094 0 5.946 1.674 7.453 4.376z" fill="#efefef"/><path d="m388.112 124.908c-1.507-2.702-4.359-4.376-7.453-4.376h-30.905c3.094 0 5.946 1.674 7.453 4.376l28.596 51.253h30.905z" fill="#e7e7e7"/><path d="m389.106 512h-266.212l-27.602-335.839h321.416z" fill="#f8f7f7"/><path d="m385.803 176.161-27.602 335.839h30.905l27.602-335.839z" fill="#efefef"/><path d="m326.162 370.87h-140.324c-2.5 0-4.527-2.027-4.527-4.527v-5.26c0-41.249 33.439-74.688 74.688-74.688 41.249 0 74.688 33.439 74.688 74.688v5.26c.001 2.5-2.025 4.527-4.525 4.527z" fill="#ff6167"/><path d="m256 286.395c-5.299 0-10.466.56-15.453 1.61 33.833 7.119 59.235 37.128 59.235 73.078v5.26c0 2.5-2.027 4.527-4.527 4.527h30.905c2.5 0 4.527-2.027 4.527-4.527v-5.26c.001-41.249-33.438-74.688-74.687-74.688z" fill="#fe454a"/></g></svg>