<svg id="Layer_1" enable-background="new 0 0 512 512" height="512" viewBox="0 0 512 512" width="512" xmlns="http://www.w3.org/2000/svg"><g><path d="m459.76 396.105h-258.478c-18.301 0-33.137-14.836-33.137-33.137v-26.068c0-3.669 2.974-6.644 6.644-6.644h311.465c3.669 0 6.644 2.974 6.644 6.644v26.068c-.001 18.301-14.837 33.137-33.138 33.137z" fill="#e49a6b"/><path d="m486.529 330.256h-30.905c3.517 0 6.368 3.103 6.368 6.931v24.344c0 19.094-14.22 34.573-31.761 34.573h30.905c17.541 0 31.761-15.479 31.761-34.573v-24.344c0-3.827-2.851-6.931-6.368-6.931z" fill="#e0925b"/><path d="m486.537 263.795h-312.032c-3.599 0-6.479-3.065-6.366-6.778.881-28.995 13.889-141.121 162.382-141.121s161.501 112.126 162.382 141.121c.112 3.713-2.767 6.778-6.366 6.778z" fill="#e49a6b"/><path d="m330.521 115.895c-5.33 0-10.466.161-15.453.44 133.939 7.518 146.08 112.726 146.929 140.681.113 3.713-2.767 6.778-6.366 6.778h30.905c3.599 0 6.479-3.065 6.366-6.778-.881-28.995-13.888-141.121-162.381-141.121z" fill="#e0925b"/><path d="m488.135 335.646h-315.228c-13.18 0-23.865-10.685-23.865-23.865 0-13.18 10.685-23.865 23.865-23.865h315.228c13.18 0 23.865 10.685 23.865 23.865 0 13.18-10.685 23.865-23.865 23.865z" fill="#e07f5d"/><path d="m488.121 287.915h-30.905c13.188 0 23.879 10.685 23.879 23.865 0 13.18-10.691 23.865-23.879 23.865h30.905c13.188 0 23.879-10.685 23.879-23.865 0-13.18-10.691-23.865-23.879-23.865z" fill="#d06d4a"/><path d="m497.161 289.641h-333.28c-8.196 0-14.839-6.644-14.839-14.839v-.875c0-8.196 6.644-14.839 14.839-14.839h333.28c8.196 0 14.839 6.644 14.839 14.839v.875c0 8.195-6.644 14.839-14.839 14.839z" fill="#ffe589"/><path d="m497.577 259.087h-30.905c7.965 0 14.423 6.84 14.423 15.277s-6.457 15.277-14.423 15.277h30.905c7.965 0 14.423-6.84 14.423-15.277s-6.457-15.277-14.423-15.277z" fill="#ffcd55"/><g fill="#d6faec"><path d="m156.44 132.848h-148.94c-4.142 0-7.5 3.358-7.5 7.5s3.358 7.5 7.5 7.5h148.94c4.142 0 7.5-3.358 7.5-7.5s-3.357-7.5-7.5-7.5z"/><path d="m129.392 189.508h-121.892c-4.142 0-7.5 3.358-7.5 7.5s3.358 7.5 7.5 7.5h121.892c4.142 0 7.5-3.358 7.5-7.5s-3.358-7.5-7.5-7.5z"/><path d="m7.5 261.168h90.616c4.142 0 7.5-3.358 7.5-7.5s-3.358-7.5-7.5-7.5h-90.616c-4.142 0-7.5 3.358-7.5 7.5s3.358 7.5 7.5 7.5z"/><path d="m7.5 317.828h90.616c4.142 0 7.5-3.358 7.5-7.5s-3.358-7.5-7.5-7.5h-90.616c-4.142 0-7.5 3.358-7.5 7.5s3.358 7.5 7.5 7.5z"/><path d="m124.32 359.488h-116.82c-4.142 0-7.5 3.358-7.5 7.5s3.358 7.5 7.5 7.5h116.82c4.142 0 7.5-3.358 7.5-7.5s-3.358-7.5-7.5-7.5z"/></g><g fill="#f8f7f7"><path d="m279.684 161.75c2.33 0 4.626-1.082 6.091-3.116 2.421-3.361 1.66-8.048-1.701-10.469l-8.358-6.022c-3.362-2.421-8.049-1.659-10.469 1.701-2.421 3.361-1.66 8.048 1.701 10.469l8.358 6.022c1.326.956 2.859 1.415 4.378 1.415z"/><path d="m382.569 149.734-7.743 6.795c-3.113 2.732-3.422 7.471-.689 10.584 1.482 1.689 3.556 2.553 5.64 2.553 1.756 0 3.521-.614 4.944-1.863l7.743-6.795c3.113-2.732 3.422-7.471.689-10.584-2.731-3.113-7.47-3.423-10.584-.69z"/><path d="m335.142 161.227-10.277.71c-4.132.286-7.25 3.867-6.965 7.999.273 3.957 3.567 6.983 7.474 6.983.174 0 .349-.006.525-.019l10.277-.71c4.132-.286 7.25-3.867 6.965-7.999s-3.869-7.253-7.999-6.964z"/><path d="m378.099 196.876-7.772-6.762c-3.125-2.717-7.861-2.389-10.581.735-2.719 3.125-2.39 7.862.735 10.581l7.772 6.762c1.42 1.236 3.174 1.842 4.92 1.842 2.094 0 4.178-.873 5.661-2.577 2.719-3.125 2.39-7.862-.735-10.581z"/><path d="m285.606 188.17-9.449 4.104c-3.799 1.65-5.542 6.067-3.892 9.867 1.228 2.827 3.986 4.515 6.883 4.515.997 0 2.011-.2 2.983-.623l9.449-4.104c3.799-1.65 5.542-6.067 3.892-9.867-1.649-3.799-6.067-5.541-9.866-3.892z"/><path d="m232.585 175.33-8.269 6.145c-3.325 2.471-4.017 7.168-1.546 10.493 1.472 1.98 3.734 3.027 6.025 3.027 1.555 0 3.124-.482 4.468-1.481l8.269-6.145c3.325-2.471 4.017-7.168 1.546-10.493-2.47-3.325-7.169-4.018-10.493-1.546z"/><path d="m438.838 181.475-8.269-6.145c-3.325-2.471-8.023-1.778-10.493 1.546-2.471 3.325-1.779 8.022 1.546 10.493l8.269 6.145c1.344.999 2.913 1.481 4.468 1.481 2.292 0 4.554-1.046 6.025-3.027 2.471-3.325 1.779-8.023-1.546-10.493z"/></g></g></svg>