<svg id="Layer_1" enable-background="new 0 0 512 512" height="512" viewBox="0 0 512 512" width="512" xmlns="http://www.w3.org/2000/svg"><g><path d="m481.095 488.949h-450.19l28.638-226.582c7.483-59.204 56.705-103.518 114.983-103.518h162.947c58.278 0 107.5 44.314 114.983 103.518z" fill="#ff6167"/><path d="m452.456 262.367c-7.483-59.204-56.705-103.518-114.983-103.518h-30.905c58.278 0 107.5 44.314 114.983 103.518l28.638 226.583h30.905z" fill="#fe454a"/><circle cx="256" cy="268.362" fill="#7b727b" r="152.467"/><circle cx="256" cy="268.362" fill="#f8f7f7" r="121.561"/><path d="m256 146.801c-5.234 0-10.391.333-15.453.978 59.76 7.615 106.109 58.788 106.109 120.584s-46.349 112.969-106.109 120.584c5.061.645 10.219.978 15.453.978 67.029 0 121.561-54.532 121.561-121.561s-54.532-121.563-121.561-121.563z" fill="#efefef"/><path d="m496.547 512h-481.094c-8.535 0-15.453-6.918-15.453-15.453 0-8.534 6.918-15.453 15.453-15.453h481.095c8.534 0 15.453 6.918 15.453 15.453-.001 8.535-6.919 15.453-15.454 15.453z" fill="#f8f7f7"/><path d="m496.547 481.095h-30.905c8.534 0 15.453 6.918 15.453 15.453 0 8.534-6.918 15.453-15.453 15.453h30.905c8.534 0 15.453-6.919 15.453-15.453 0-8.535-6.918-15.453-15.453-15.453z" fill="#efefef"/><path d="m317.527 307.361h-123.054c-3.9 0-7.402-2.387-8.828-6.017l-8.968-22.828h158.648l-8.968 22.828c-1.427 3.63-4.93 6.017-8.83 6.017z" fill="#7b727b"/><path d="m304.419 278.516-8.968 22.828c-1.426 3.63-4.928 6.017-8.828 6.017h30.905c3.9 0 7.402-2.387 8.828-6.017l8.968-22.828z" fill="#686169"/><path d="m348.815 77.264h-185.63c-16.16 0-29.261 13.101-29.261 29.261v83.861h-133.924v-83.108c0-59.248 48.03-107.278 107.278-107.278h297.445c59.247 0 107.277 48.03 107.277 107.278v83.108h-133.924v-83.861c0-16.161-13.1-29.261-29.261-29.261z" fill="#ff6167"/><g fill="#fe454a"><path d="m103.018 106.525v83.861h30.905v-83.861c0-16.16 13.101-29.261 29.261-29.261h-30.905c-16.16 0-29.261 13.1-29.261 29.261z"/><path d="m404.722 0h-30.905c59.248 0 107.278 48.03 107.278 107.277v83.108h30.905v-83.108c0-59.247-48.03-107.277-107.278-107.277z"/></g><path d="m378.076 206.036v-28.845h133.924v28.845c0 6.827-5.535 12.362-12.362 12.362h-109.199c-6.828 0-12.363-5.534-12.363-12.362z" fill="#2fd9e7"/><path d="m481.095 177.191v28.845c0 6.827-5.535 12.362-12.362 12.362h30.905c6.827 0 12.362-5.535 12.362-12.362v-28.845z" fill="#00d0e4"/><path d="m0 206.036v-28.845h133.924v28.845c0 6.827-5.535 12.362-12.362 12.362h-109.2c-6.827 0-12.362-5.534-12.362-12.362z" fill="#2fd9e7"/><path d="m103.018 177.191v28.845c0 6.827-5.535 12.362-12.362 12.362h30.905c6.827 0 12.362-5.535 12.362-12.362v-28.845z" fill="#00d0e4"/><path d="m323.992 278.516h-135.984v-8.242c0-37.551 30.441-67.992 67.992-67.992 37.551 0 67.992 30.441 67.992 67.992z" fill="#cfdbe4"/><g fill="#afbbc6"><path d="m256 202.282c-5.318 0-10.486.63-15.453 1.785 30.102 7 52.539 33.974 52.539 66.207v8.242h30.905v-8.242c.001-37.551-30.44-67.992-67.991-67.992z"/><g><path d="m256 209.782c4.142 0 7.5-3.358 7.5-7.5v-15.992c0-4.142-3.358-7.5-7.5-7.5s-7.5 3.358-7.5 7.5v15.992c0 4.142 3.358 7.5 7.5 7.5z"/><path d="m335.324 271.016h-158.648c-4.142 0-7.5 3.358-7.5 7.5s3.358 7.5 7.5 7.5h158.647c4.142 0 7.5-3.358 7.5-7.5s-3.357-7.5-7.499-7.5z"/></g></g></g></svg>