<svg id="Layer_1" enable-background="new 0 0 512 512" height="512" viewBox="0 0 512 512" width="512" xmlns="http://www.w3.org/2000/svg"><g><path d="m224.434 163.799h-134.947c-9.06 0-16.405-7.345-16.405-16.405v-11.548c0-1.816 1.473-3.289 3.289-3.289h161.179c1.816 0 3.289 1.473 3.289 3.289v11.548c0 9.06-7.345 16.405-16.405 16.405z" fill="#e0925b"/><path d="m237.55 132.557h-30.744c1.817 0 3.289 1.472 3.289 3.289v11.55c0 9.059-7.346 16.403-16.407 16.403h30.744c9.061 0 16.407-7.344 16.407-16.403v-11.55c0-1.817-1.473-3.289-3.289-3.289z" fill="#d48145"/><path d="m237.553 103.869h-161.185c-1.859 0-3.347-1.533-3.288-3.391.455-14.506 7.174-70.603 83.881-70.603s83.426 56.096 83.881 70.603c.058 1.858-1.429 3.391-3.289 3.391z" fill="#e0925b"/><path d="m156.961 29.875c-5.477 0-10.585.295-15.372.831 62.251 6.976 68.087 56.301 68.51 69.771.058 1.858-1.429 3.391-3.288 3.391h30.744c1.859 0 3.347-1.533 3.288-3.391-.456-14.505-7.176-70.602-83.882-70.602z" fill="#d48145"/><path d="m236.401 132.557h-158.881c-7.901 0-14.306-6.405-14.306-14.306v-.075c0-7.901 6.405-14.306 14.306-14.306h158.88c7.901 0 14.306 6.405 14.306 14.306v.075c.001 7.901-6.404 14.306-14.305 14.306z" fill="#e07f5d"/><path d="m236.36 103.869h-30.744c7.924 0 14.347 6.422 14.347 14.344s-6.423 14.344-14.347 14.344h30.744c7.924 0 14.347-6.422 14.347-14.344s-6.423-14.344-14.347-14.344z" fill="#d06d4a"/><path d="m305.104 419.284h-289.929v-251.485c0-2.209 1.791-4 4-4h281.929c2.209 0 4 1.791 4 4z" fill="#f1f0f1"/><path d="m274.199 163.799v255.484h30.905v-251.484c0-2.209-1.791-4-4-4z" fill="#e7e4e7"/><path d="m455.011 301.843h-149.907v-90.656h119.739z" fill="#e4f7fc"/><path d="m424.843 211.187h-30.906l30.168 90.656h30.906z" fill="#d1f2fe"/><path d="m494.447 419.284h-189.343v-117.441h173.448c8.779 0 15.895 7.117 15.895 15.895z" fill="#ff6167"/><path d="m478.552 301.843h-30.905c8.779 0 15.895 7.117 15.895 15.895v101.545h30.905v-101.545c0-8.778-7.116-15.895-15.895-15.895z" fill="#fe454a"/><path d="m496.547 436.797h-481.094c-8.535 0-15.453-6.919-15.453-15.453 0-8.534 6.918-15.453 15.453-15.453h481.095c8.534 0 15.453 6.918 15.453 15.453-.001 8.534-6.919 15.453-15.454 15.453z" fill="#e0dce0"/><path d="m496.547 405.891h-30.905c8.534 0 15.453 6.918 15.453 15.453 0 8.534-6.918 15.453-15.453 15.453h30.905c8.534 0 15.453-6.918 15.453-15.453 0-8.534-6.918-15.453-15.453-15.453z" fill="#cbc4cc"/><circle cx="408.467" cy="435.767" fill="#7a6d79" r="46.358"/><circle cx="408.467" cy="435.767" fill="#d0d3d2" r="16.483"/><path d="m494.447 378.393h-18.833c-11.379 0-20.604-9.225-20.604-20.604 0-11.379 9.225-20.604 20.604-20.604h18.833z" fill="#ffe589"/><path d="m372.779 329.686h-15.215c-4.143 0-7.5 3.357-7.5 7.5s3.357 7.5 7.5 7.5h15.215c4.143 0 7.5-3.357 7.5-7.5s-3.357-7.5-7.5-7.5z" fill="#f1f0f1"/><path d="m305.104 211.187h30.905v90.656h-30.905z" fill="#fe454a"/><path d="m427.696 211.187h-122.592v-30.905h122.592c8.534 0 15.453 6.918 15.453 15.453-.001 8.534-6.919 15.452-15.453 15.452z" fill="#ff6167"/><path d="m427.696 180.282h-30.906c8.534 0 15.453 6.919 15.453 15.453s-6.918 15.453-15.453 15.453h30.905c8.534 0 15.453-6.919 15.453-15.453s-6.918-15.453-15.452-15.453z" fill="#fe454a"/><circle cx="95.973" cy="435.767" fill="#7a6d79" r="46.358"/><circle cx="95.973" cy="435.767" fill="#d0d3d2" r="16.483"/><path d="m254.076 280.208-35.808-39.742c-2.773-3.078-7.516-3.325-10.592-.551-3.077 2.772-3.324 7.515-.551 10.592l24.527 27.222h-152.162c-4.142 0-7.5 3.358-7.5 7.5s3.358 7.5 7.5 7.5h151.938l-24.255 26.4c-2.802 3.05-2.602 7.795.449 10.597 1.44 1.323 3.259 1.977 5.072 1.977 2.026 0 4.046-.816 5.525-2.426l35.808-38.974c2.617-2.848 2.638-7.22.049-10.095z" fill="#ff6167"/></g></svg>