<svg id="Layer_1" enable-background="new 0 0 512 512" height="512" viewBox="0 0 512 512" width="512" xmlns="http://www.w3.org/2000/svg"><g><g fill="#ffbead"><path d="m170.386 205.773c0 22.539-13.784 40.811-30.787 40.811s-26.881-20.983-26.881-43.523 9.877-38.099 26.881-38.099 30.787 18.271 30.787 40.811z"/><path d="m341.614 205.773c0 22.539 13.784 40.811 30.787 40.811s26.881-20.983 26.881-43.523-9.877-38.099-26.881-38.099-30.787 18.271-30.787 40.811z"/></g><path d="m192.65 336.097-40.647-29.951v-95.334c0-4.142-3.357-7.5-7.5-7.5s-7.5 3.358-7.5 7.5v99.124c0 2.383 1.133 4.624 3.051 6.038l43.698 32.199c1.34.987 2.898 1.462 4.443 1.462 2.302 0 4.573-1.056 6.044-3.051 2.457-3.334 1.745-8.029-1.589-10.487z" fill="#686169"/><path d="m158.095 223.048h-8.734c-9.541 0-17.275-7.734-17.275-17.275 0-9.541 7.734-17.275 17.275-17.275h8.734c2.845 0 5.151 2.306 5.151 5.151v24.249c0 2.844-2.307 5.15-5.151 5.15z" fill="#7b727b"/><path d="m393.42 512h-274.84c-9.448 0-17.107-7.659-17.107-17.107v-26.107c0-51.375 41.647-93.022 93.022-93.022h123.01c51.375 0 93.022 41.647 93.022 93.022v26.107c0 9.448-7.659 17.107-17.107 17.107z" fill="#ff6167"/><path d="m317.505 375.764h-30.905c51.375 0 93.022 41.648 93.022 93.022v26.107c0 9.448-7.659 17.107-17.107 17.107h30.905c9.448 0 17.107-7.659 17.107-17.107v-26.107c0-51.374-41.647-93.022-93.022-93.022z" fill="#fe454a"/><path d="m225.095 311.745h61.811v100.509h-61.811z" fill="#ffd8ca"/><path d="m256 311.745h30.905v100.509h-30.905z" fill="#ffbead"/><path d="m225.095 351.546s-2.958 40.977 30.905 60.707c0 0-19.256 21.5-38.733 14.671-15.432-5.411-24.165-34.196-27.126-45.919-.747-2.955.441-6.056 2.964-7.767z" fill="#f5f2f4"/><path d="m286.905 351.546s2.958 40.977-30.905 60.707c0 0 19.256 21.5 38.733 14.671 15.432-5.411 24.165-34.196 27.126-45.919.747-2.955-.441-6.056-2.964-7.767z" fill="#f5f2f4"/><path d="m156.634 232.2v-67.614c0-54.878 44.487-99.366 99.366-99.366 54.878 0 99.366 44.487 99.366 99.366v67.24c0 54.981-44.571 99.553-99.553 99.553-54.775 0-99.179-44.404-99.179-99.179z" fill="#ffd8ca"/><path d="m256 65.221c-5.257 0-10.417.412-15.453 1.198 47.539 7.423 83.913 48.546 83.913 98.168v67.24c0 49.72-36.45 90.923-84.085 98.355 5.031.786 10.186 1.198 15.437 1.198 54.981 0 99.553-44.571 99.553-99.553v-67.24c.001-54.879-44.487-99.366-99.365-99.366z" fill="#ffbead"/><path d="m256 47.42c-152.388 0-109.463 131.539-106.178 138.6 3.087 6.647 6.812 24.734 6.812 24.734s21.17-17.011 20.487-23.503c-1.091-10.373-7.098-74.095 19.11-68.087 26.199 6.007 36.987 10.373 58.892 10.373s32.693-4.366 58.892-10.373c26.208-6.007 20.201 57.714 19.11 68.087-.683 6.492 22.24 23.562 22.24 23.562s1.971-18.145 5.058-24.792c4.886-10.501 47.965-138.601-104.423-138.601z" fill="#9b523c"/><g><path d="m248.088 263.107c3.057.798 5.566 1.197 8.076 1.197s5.02-.399 8.076-1.197c4.007-1.047 6.408-5.144 5.361-9.152-1.046-4.007-5.139-6.405-9.152-5.362-3.605.942-4.969.941-8.572 0-4.008-1.043-8.104 1.354-9.151 5.362-1.046 4.009 1.354 8.106 5.362 9.152z" fill="#ffbead"/><path d="m238.394 171.054c1.046-4.008-1.354-8.105-5.362-9.151-11.641-3.039-18.74-3.039-30.381 0-4.008 1.046-6.408 5.144-5.362 9.151 1.047 4.008 5.147 6.408 9.151 5.362 9.164-2.393 13.639-2.393 22.803 0 .635.166 1.272.245 1.899.245 3.33 0 6.371-2.235 7.252-5.607z" fill="#9b523c"/><path d="m309.678 161.902c-11.641-3.039-18.74-3.039-30.381 0-4.008 1.046-6.408 5.144-5.362 9.151 1.047 4.008 5.146 6.408 9.151 5.362 9.164-2.393 13.639-2.393 22.803 0 .635.166 1.272.245 1.899.245 3.33 0 6.371-2.235 7.252-5.607 1.046-4.007-1.354-8.104-5.362-9.151z" fill="#9b523c"/><path d="m271.935 269.588c-9.729 5.415-21.814 5.414-31.542 0-3.62-2.015-8.187-.713-10.201 2.906-2.014 3.62-.713 8.187 2.906 10.201 7.114 3.959 15.09 5.939 23.066 5.939s15.951-1.979 23.065-5.939c3.619-2.014 4.92-6.581 2.906-10.201-2.015-3.619-6.579-4.921-10.2-2.906z" fill="#ffbead"/><g fill="#9b523c"><path d="m212.896 203.823c-4.143 0-7.5 3.358-7.5 7.5v6.181c0 4.142 3.357 7.5 7.5 7.5s7.5-3.358 7.5-7.5v-6.181c0-4.142-3.357-7.5-7.5-7.5z"/><path d="m299.432 203.823c-4.143 0-7.5 3.358-7.5 7.5v6.181c0 4.142 3.357 7.5 7.5 7.5s7.5-3.358 7.5-7.5v-6.181c0-4.142-3.358-7.5-7.5-7.5z"/></g></g><g fill="#686169"><path d="m256 435.478c-4.143 0-7.5 3.358-7.5 7.5v4.121c0 4.142 3.357 7.5 7.5 7.5s7.5-3.358 7.5-7.5v-4.121c0-4.142-3.357-7.5-7.5-7.5z"/><path d="m256 467.81c-4.143 0-7.5 3.358-7.5 7.5v4.121c0 4.142 3.357 7.5 7.5 7.5s7.5-3.358 7.5-7.5v-4.121c0-4.143-3.357-7.5-7.5-7.5z"/></g><path d="m375.501 115.077h-239.002l4.458-41.057c4.574-42.131 39.63-74.02 81.368-74.02h67.349c41.739 0 76.794 31.889 81.369 74.02z" fill="#ff6167"/><path d="m371.043 74.02c-4.574-42.131-39.63-74.02-81.368-74.02h-30.905c41.739 0 76.794 31.889 81.369 74.02l4.458 41.057h30.905z" fill="#fe454a"/><path d="m323.992 115.077h-135.984v-45.913c0-15.087 12.231-27.318 27.318-27.318h81.347c15.087 0 27.318 12.231 27.318 27.318v45.913z" fill="#2fd9e7"/><path d="m296.883 41.846h-30.905c14.972 0 27.109 12.325 27.109 27.529v45.702h30.905v-45.702c0-15.204-12.137-27.529-27.109-27.529z" fill="#00d0e4"/><path d="m349.791 488.451h-39.939c-4.76 0-8.62-3.859-8.62-8.62v-12.768c0-4.76 3.859-8.62 8.62-8.62h39.939c4.76 0 8.62 3.859 8.62 8.62v12.768c0 4.761-3.86 8.62-8.62 8.62z" fill="#f5f2f4"/><path d="m386 144.225h-260c-5.392 0-9.763-4.371-9.763-9.763v-6.399c0-8.142 6.601-14.743 14.743-14.743h250.04c8.142 0 14.743 6.601 14.743 14.743v6.399c0 5.392-4.371 9.763-9.763 9.763z" fill="#f5f2f4"/><path d="m381.02 113.32h-30.905c8.142 0 14.743 6.601 14.743 14.743v6.399c0 5.392-4.371 9.763-9.763 9.763h30.905c5.392 0 9.763-4.371 9.763-9.763v-6.399c0-8.142-6.601-14.743-14.743-14.743z" fill="#e7e4e7"/></g></svg>