<svg id="Layer_1" enable-background="new 0 0 512 512" height="512" viewBox="0 0 512 512" width="512" xmlns="http://www.w3.org/2000/svg"><g><path d="m459.542 181.827h-228.573s-6.593-109.199 114.286-109.199 114.287 109.199 114.287 109.199z" fill="#d6faec"/><path d="m345.255 72.628c-5.405 0-10.545.227-15.453.644 104.84 8.912 98.833 108.555 98.833 108.555h30.905c.001 0 6.595-109.199-114.285-109.199z" fill="#ccfae8"/><path d="m360.708 30.905v150.922h-30.905v-146.801c0-2.277-1.844-4.121-4.121-4.121h-42.237v-30.905h46.358c17.07 0 30.905 13.835 30.905 30.905z" fill="#f8f7f7"/><path d="m431.349 512h-172.187c-5.456 0-9.966-4.292-10.284-9.787l-16.942-292.162h226.64l-16.942 292.162c-.32 5.495-4.829 9.787-10.285 9.787z" fill="#ff6167"/><path d="m427.67 210.051-16.942 292.162c-.318 5.495-4.828 9.787-10.284 9.787h30.905c5.456 0 9.966-4.292 10.284-9.787l16.942-292.162z" fill="#fe454a"/><path d="m360.708 73.266v108.56h-30.905v-108.56c4.904-.422 10.055-.639 15.453-.639s10.548.217 15.452.639z" fill="#efefef"/><path d="m394.61 388.751h-98.71c-1.759 0-3.184-1.426-3.184-3.184v-3.7c0-29.017 23.523-52.539 52.539-52.539 29.017 0 52.539 23.523 52.539 52.539v3.7c0 1.759-1.425 3.184-3.184 3.184z" fill="#f8f7f7"/><path d="m345.255 329.327c-5.379 0-10.567.812-15.453 2.314 21.474 6.599 37.087 26.588 37.087 50.226v3.7c0 1.759-1.426 3.184-3.184 3.184h30.905c1.759 0 3.184-1.426 3.184-3.184v-3.7c0-29.017-23.522-52.54-52.539-52.54z" fill="#efefef"/><g fill="#d6faec"><path d="m39.249 148.072c21.27.118 45.136.177 69.016.177 23.881 0 47.776-.059 69.104-.177 4.142-.023 7.48-3.399 7.458-7.542-.023-4.128-3.376-7.458-7.499-7.458h-.043c-42.603.236-95.465.236-137.952 0h-.043c-4.122 0-7.476 3.331-7.499 7.458-.022 4.142 3.317 7.519 7.458 7.542z"/><path d="m39.377 189.696c-.029 0-.059 0-.088 0-4.102 0-7.451 3.302-7.497 7.415-.048 4.142 3.271 7.538 7.413 7.585 21.283.243 41.874.364 62.519.364 20.639 0 41.33-.121 62.795-.364 4.142-.047 7.461-3.442 7.414-7.584-.046-4.142-3.469-7.501-7.584-7.415-42.817.483-82.528.483-124.972-.001z"/><path d="m39.29 261.319h.055c42.459-.304 95.31-.304 137.929 0h.055c4.117 0 7.47-3.323 7.499-7.447.029-4.142-3.305-7.523-7.446-7.553-42.686-.303-95.618-.303-138.144 0-4.142.03-7.476 3.412-7.446 7.554.029 4.124 3.381 7.446 7.498 7.446z"/><path d="m39.291 317.943h.01c42.123-.055 110.793-.055 153.074 0h.01c4.138 0 7.495-3.352 7.5-7.49.005-4.142-3.348-7.504-7.49-7.51-42.293-.055-110.979-.055-153.113 0-4.143.005-7.496 3.368-7.49 7.51.005 4.139 3.362 7.49 7.499 7.49z"/><path d="m202.061 359.567h-.035c-42.742.193-120.29.193-162.7 0h-.036c-4.126 0-7.48 3.335-7.499 7.466-.019 4.142 3.324 7.515 7.466 7.534 21.223.097 51.237.145 81.294.145 30.056 0 60.154-.048 81.543-.145 4.142-.019 7.484-3.392 7.466-7.534-.019-4.131-3.373-7.466-7.499-7.466z"/></g><path d="m475.968 212.732h-261.426c-2.342 0-4.241-1.899-4.241-4.241v-9.408c0-10.54 8.544-19.083 19.083-19.083h231.74c10.54 0 19.083 8.544 19.083 19.083v9.408c.002 2.343-1.897 4.241-4.239 4.241z" fill="#efefef"/><path d="m461.666 180h-30.906c10.241 0 18.543 8.793 18.543 19.639v8.729c0 2.41-1.845 4.364-4.121 4.364h30.905c2.276 0 4.121-1.954 4.121-4.364v-8.729c.001-10.846-8.301-19.639-18.542-19.639z" fill="#e7e4e7"/></g></svg>