<svg id="Layer_1" enable-background="new 0 0 512 512" height="512" viewBox="0 0 512 512" width="512" xmlns="http://www.w3.org/2000/svg"><g><path d="m395.018 512h-278.036c-7.266 0-13.318-5.62-13.913-12.922l-30.441-373.462h366.744l-30.441 373.462c-.595 7.302-6.646 12.922-13.913 12.922z" fill="#f8f7f7"/><path d="m408.467 125.616-30.441 373.462c-.595 7.302-6.647 12.922-13.913 12.922h30.905c7.267 0 13.318-5.62 13.913-12.922l30.441-373.462z" fill="#efefef"/><path d="m413.339 445.006 18.964-232.662h-352.606l18.964 232.662z" fill="#ff6167"/><path d="m401.398 212.344-18.965 232.662h30.906l18.964-232.662z" fill="#fe454a"/><path d="m191.905 407.059c-6.253-5.808-6.613-15.586-.804-21.839l44.873-48.305c5.808-6.253 15.586-6.613 21.839-.804 6.253 5.808 6.613 15.586.804 21.839l-44.873 48.305c-5.809 6.253-15.586 6.613-21.839.804z" fill="#f8f7f7"/><ellipse cx="278.269" cy="314.09" fill="#e07f5d" rx="74.736" ry="56.456" transform="matrix(.681 -.733 .733 .681 -141.24 304.196)"/><path d="m329.135 259.334c-12.514-11.625-30.565-14.669-48.948-10.09 6.716 1.942 12.858 5.273 18.043 10.09 22.844 21.221 18.59 62.939-9.503 93.18-12.703 13.675-28.105 22.643-43.28 26.422 22.872 6.614 52.47-3.045 74.186-26.422 28.092-30.241 32.346-71.959 9.502-93.18z" fill="#d06d4a"/><path d="m453.795 128.773h-395.59c-2.276 0-4.121-1.845-4.121-4.121v-14.561c0-9.027 7.318-16.344 16.344-16.344h371.143c9.027 0 16.344 7.318 16.344 16.344v14.561c0 2.276-1.844 4.121-4.12 4.121z" fill="#2fd9e7"/><path d="m441.571 93.746h-30.905c9.027 0 16.344 7.318 16.344 16.344v14.561c0 2.276-1.845 4.121-4.121 4.121h30.905c2.276 0 4.121-1.845 4.121-4.121v-14.561c0-9.026-7.317-16.344-16.344-16.344z" fill="#00d0e4"/><path d="m243.234 183.784c-7.305-5.432-8.823-15.758-3.39-23.062l117.669-158.227c2.039-2.742 5.914-3.311 8.656-1.272l16.524 12.289c2.742 2.039 3.311 5.914 1.272 8.656l-117.668 158.225c-5.433 7.305-15.758 8.823-23.063 3.391z" fill="#fe454a"/></g></svg>