<svg id="Layer_1" enable-background="new 0 0 512 512" height="512" viewBox="0 0 512 512" width="512" xmlns="http://www.w3.org/2000/svg"><g><path d="m347.58 451.734c-34.55-25.909-36.603-78.294-36.603-78.294h-109.943s-2.053 52.385-36.608 78.294z" fill="#d7d7d7"/><path d="m512 330.762v-257.005c0-19.968-16.187-36.155-36.155-36.155h-439.69c-19.968 0-36.155 16.187-36.155 36.155v257.005z" fill="#7b727b"/><path d="m481.095 73.757v257.005h30.905v-257.005c0-19.968-16.187-36.155-36.155-36.155h-30.905c19.967 0 36.155 16.187 36.155 36.155z" fill="#686169"/><path d="m30.905 325.022v-252.515c0-2.209 1.791-4 4-4h442.189c2.209 0 4 1.791 4 4v252.515z" fill="#d6faec"/><path d="m450.189 68.507v256.515h30.905v-252.515c0-2.209-1.791-4-4-4z" fill="#ccfae8"/><path d="m475.845 380.652h-439.69c-19.968 0-36.155-16.187-36.155-36.155v-19.474h512v19.474c0 19.968-16.187 36.155-36.155 36.155z" fill="#f8f7f7"/><path d="m481.095 325.022v19.474c0 19.968-16.187 36.155-36.155 36.155h30.905c19.968 0 36.155-16.187 36.155-36.155v-19.474z" fill="#efefef"/><path d="m381.445 474.398h-250.89c-3.545 0-6.418-2.873-6.418-6.418 0-12.955 10.502-23.457 23.457-23.457h216.812c12.955 0 23.457 10.502 23.457 23.457 0 3.545-2.873 6.418-6.418 6.418z" fill="#f8f7f7"/><path d="m364.406 444.523h-30.906c12.955 0 23.457 10.502 23.457 23.457 0 3.545-2.873 6.418-6.418 6.418h30.905c3.545 0 6.418-2.873 6.418-6.418.001-12.955-10.501-23.457-23.456-23.457z" fill="#efefef"/><path d="m234.318 264.094h-135.654c-9.109 0-16.493-7.384-16.493-16.493v-11.614c0-1.826 1.48-3.307 3.307-3.307h162.026c1.826 0 3.307 1.48 3.307 3.307v11.614c0 9.109-7.384 16.493-16.493 16.493z" fill="#e0925b"/><path d="m247.504 232.68h-30.905c1.826 0 3.307 1.48 3.307 3.307v11.614c0 9.109-7.384 16.493-16.493 16.493h30.905c9.109 0 16.493-7.384 16.493-16.493v-11.614c0-1.826-1.48-3.307-3.307-3.307z" fill="#d48145"/><path d="m247.508 203.835h-162.034c-1.869 0-3.364-1.542-3.306-3.41.458-14.586 7.212-70.99 84.323-70.99s83.865 56.404 84.323 70.99c.059 1.869-1.437 3.41-3.306 3.41z" fill="#e0925b"/><path d="m166.491 129.435c-5.506 0-10.641.296-15.453.836 62.578 7.014 68.445 56.61 68.87 70.154.059 1.868-1.437 3.41-3.306 3.41h30.905c1.869 0 3.364-1.542 3.306-3.41-.457-14.585-7.211-70.99-84.322-70.99z" fill="#d48145"/><path d="m246.308 232.68h-159.634c-7.965 0-14.423-6.457-14.423-14.423 0-7.965 6.457-14.423 14.423-14.423h159.635c7.965 0 14.423 6.457 14.423 14.423-.001 7.966-6.458 14.423-14.424 14.423z" fill="#e07f5d"/><path d="m246.309 203.835h-30.905c7.965 0 14.423 6.457 14.423 14.423 0 7.965-6.457 14.423-14.423 14.423h30.905c7.965 0 14.423-6.457 14.423-14.423-.001-7.965-6.458-14.423-14.423-14.423z" fill="#d06d4a"/><path d="m408.485 294.876c-8.118 2.632-16.833-1.816-19.465-9.934l-20.332-62.718c-2.632-8.118 1.816-16.833 9.934-19.465 8.118-2.632 16.833 1.816 19.465 9.934l20.332 62.718c2.632 8.118-1.816 16.833-9.934 19.465z" fill="#f8f7f7"/><ellipse cx="369.354" cy="174.166" fill="#e07f5d" rx="56.456" ry="74.736" transform="matrix(.951 -.308 .308 .951 -35.708 122.389)"/><path d="m346.307 103.072c-5.099 1.653-9.714 4.211-13.818 7.484 25.256 1.168 50.631 23.217 61.171 55.731s2.927 65.257-16.84 81.02c5.243.242 10.482-.394 15.581-2.047 29.66-9.615 43.386-49.24 30.658-88.504-12.729-39.264-47.092-63.299-76.752-53.684z" fill="#d06d4a"/></g></svg>