<svg id="Layer_1" enable-background="new 0 0 512 512" height="512" viewBox="0 0 512 512" width="512" xmlns="http://www.w3.org/2000/svg"><g><path d="m77.264 163.185v185.631c0 16.16 13.101 29.261 29.261 29.261h92.815v133.923h-92.063c-59.247 0-107.277-48.03-107.277-107.277v-297.445c0-59.248 48.03-107.278 107.278-107.278h92.063v133.924h-92.815c-16.162 0-29.262 13.1-29.262 29.261z" fill="#ff6167"/><g fill="#fe454a"><path d="m106.525 133.924h-30.906c-16.16 0-29.261 13.101-29.261 29.261v185.631c0 16.16 13.101 29.261 29.261 29.261h30.905c-16.16 0-29.261-13.101-29.261-29.261v-185.631c.001-16.161 13.101-29.261 29.262-29.261z"/><path d="m146.286 0h53.054v133.924h-53.054z"/><path d="m146.286 378.076h53.054v133.924h-53.054z"/></g><path d="m206.036 133.924h-28.845v-133.924h28.845c6.827 0 12.362 5.535 12.362 12.362v109.199c0 6.828-5.534 12.363-12.362 12.363z" fill="#2fd9e7"/><path d="m206.036 512h-28.845v-133.924h28.845c6.827 0 12.362 5.535 12.362 12.362v109.199c0 6.828-5.534 12.363-12.362 12.363z" fill="#2fd9e7"/><path d="m470.157 109.718c-54.234-53.208-141.631-52.892-195.471.949-42.323 42.322-51.568 105.381-27.743 156.767 6.671 14.389 7.038 30.905.774 45.475l-13.207 30.717c-1.13 2.629 1.544 5.283 4.164 4.133l30.237-13.272c14.573-6.397 31.184-6.227 45.633.444 52.236 24.118 116.469 14.104 158.731-30.045 52.835-55.193 51.423-141.66-3.118-195.168z" fill="#f8f7f7"/><g><path d="m470.157 109.718c-30.908-30.323-72.586-43.253-112.686-38.808 29.831 3.317 58.786 16.249 81.78 38.808 54.54 53.508 55.953 139.975 3.118 195.168-23.463 24.51-53.699 38.482-84.893 41.95 41.465 4.595 84.613-9.372 115.799-41.95 52.835-55.193 51.422-141.66-3.118-195.168z" fill="#efefef"/></g><path d="m440.39 268.467h-134.71c-9.37 0-16.965-7.595-16.965-16.965v-12.87c0-1.878 1.523-3.401 3.401-3.401h161.837c1.878 0 3.401 1.523 3.401 3.401v12.87c.001 9.37-7.594 16.965-16.964 16.965z" fill="#e0925b"/><path d="m454.048 235.231h-30.905c1.826 0 3.307 1.566 3.307 3.499v12.288c0 9.638-7.384 17.45-16.493 17.45h30.905c9.109 0 16.493-7.813 16.493-17.45v-12.288c0-1.933-1.48-3.499-3.307-3.499z" fill="#d48145"/><path d="m454.052 210.821h-162.034c-1.869 0-3.364-1.596-3.306-3.53.458-15.098 7.212-73.482 84.323-73.482s83.865 58.384 84.323 73.482c.059 1.934-1.437 3.53-3.306 3.53z" fill="#e0925b"/><path d="m373.035 133.809c-5.506 0-10.641.307-15.453.865 62.578 7.261 68.445 58.597 68.87 72.617.059 1.934-1.437 3.53-3.306 3.53h30.905c1.869 0 3.364-1.596 3.306-3.53-.457-15.098-7.211-73.482-84.322-73.482z" fill="#d48145"/><path d="m452.852 237.054h-159.634c-7.965 0-14.423-6.457-14.423-14.423 0-7.965 6.457-14.423 14.423-14.423h159.635c7.965 0 14.423 6.457 14.423 14.423-.001 7.966-6.458 14.423-14.424 14.423z" fill="#e07f5d"/><path d="m452.853 208.209h-30.905c7.965 0 14.423 6.457 14.423 14.423 0 7.965-6.457 14.423-14.423 14.423h30.905c7.965 0 14.423-6.457 14.423-14.423-.001-7.966-6.458-14.423-14.423-14.423z" fill="#d06d4a"/></g></svg>