<svg id="Layer_1" enable-background="new 0 0 512 512" height="512" viewBox="0 0 512 512" width="512" xmlns="http://www.w3.org/2000/svg"><g><path d="m271.453 128.931h-30.906l-4.674-47.388h40.254z" fill="#c3cfd8"/><circle cx="256" cy="66.962" fill="#e0ebf0" r="30.905"/><path d="m256 36.056c-5.631 0-10.906 1.514-15.453 4.145 9.235 5.345 15.453 15.323 15.453 26.761s-6.218 21.416-15.453 26.761c4.547 2.631 9.821 4.145 15.453 4.145 17.069 0 30.905-13.837 30.905-30.905s-13.836-30.907-30.905-30.907z" fill="#cfdbe4"/><path d="m485.625 319.118h-459.228s-13.217-198.587 229.172-198.587 230.056 198.587 230.056 198.587z" fill="#e0ebf0"/><path d="m255.57 120.531c-5.273 0-10.418.1-15.452.284 226.397 8.269 214.602 198.303 214.602 198.303h30.905s12.333-198.587-230.055-198.587z" fill="#cfdbe4"/><path d="m487.276 351.292h-462.552c-13.655 0-24.724-11.07-24.724-24.725v-7.086c0-2.914 2.362-5.276 5.276-5.276h501.448c2.914 0 5.276 2.362 5.276 5.276v7.086c0 13.655-11.069 24.725-24.724 24.725z" fill="#cfdbe4"/><path d="m506.724 314.205h-30.905c2.914 0 5.276 2.362 5.276 5.276v7.086c0 13.655-11.069 24.724-24.724 24.724h30.905c13.655 0 24.724-11.069 24.724-24.724v-7.086c0-2.914-2.362-5.276-5.276-5.276z" fill="#c3cfd8"/><path d="m410.311 360.476c0 10.295-8.302 18.64-18.543 18.64h-96.053c-22.855 0-45.378 5.494-65.692 16.023l-111.062 57.568c-9.044 4.688-18.785 7.882-28.846 9.459l-87.736 13.752c-1.25.196-2.379-.771-2.379-2.038v-89.614c0-1.043.777-1.922 1.81-2.048l50.131-6.152c9.129-1.12 17.997-3.805 26.217-7.937l36.028-18.111c10.763-5.41 20.469-12.725 28.652-21.594l60.03-65.057c6.176-6.693 16.355-7.747 23.767-2.462 8.234 5.871 10.109 17.374 4.169 25.58l-32.353 44.695c-3.21 4.434-.059 10.656 5.397 10.656h187.919c10.242 0 18.544 8.345 18.544 18.64z" fill="#ffd8ca"/><g fill="#ffbead"><path d="m199.899 286.485-32.353 44.695c-3.21 4.434-.059 10.656 5.397 10.656h30.905c-5.455 0-8.606-6.222-5.397-10.656l32.353-44.695c5.94-8.206 4.065-19.709-4.17-25.58-7.419-5.29-17.59-4.233-23.775 2.47l-2.365 2.563c3.908 6.131 3.932 14.293-.595 20.547z"/><path d="m391.768 341.836h-30.905c10.241 0 18.543 8.345 18.543 18.64 0 10.295-8.302 18.64-18.543 18.64h30.905c10.241 0 18.543-8.345 18.543-18.64 0-10.295-8.302-18.64-18.543-18.64z"/><path d="m199.117 395.138-111.062 57.569c-9.045 4.688-18.781 7.882-28.836 9.458l-59.219 9.282v2.433c0 1.267 1.129 2.235 2.379 2.039l87.746-13.754c10.055-1.576 19.791-4.77 28.836-9.458l111.062-57.568c20.313-10.529 42.837-16.023 65.692-16.023h-30.905c-22.856 0-45.38 5.493-65.693 16.022z"/></g></g></svg>