<svg id="Layer_1" enable-background="new 0 0 512 512" height="512" viewBox="0 0 512 512" width="512" xmlns="http://www.w3.org/2000/svg"><g><path d="m465.449 216.338h-113.32v-178.05c0-21.146 17.143-38.288 38.289-38.288h36.743c21.146 0 38.288 17.142 38.288 38.288z" fill="#e07f5d"/><path d="m427.161 0h-30.905c21.146 0 38.288 17.142 38.288 38.288v178.05h30.905v-178.05c0-21.146-17.142-38.288-38.288-38.288z" fill="#d06d4a"/><path d="m312.66 216.338h-113.32v-178.05c0-21.146 17.142-38.288 38.288-38.288h36.743c21.146 0 38.288 17.142 38.288 38.288v178.05z" fill="#e07f5d"/><path d="m274.372 0h-30.905c21.146 0 38.288 17.142 38.288 38.288v178.05h30.905v-178.05c0-21.146-17.142-38.288-38.288-38.288z" fill="#d06d4a"/><g fill="#eba592"><path d="m379.944 43.983h57.69c4.142 0 7.5-3.358 7.5-7.5s-3.358-7.5-7.5-7.5h-57.69c-4.142 0-7.5 3.358-7.5 7.5s3.358 7.5 7.5 7.5z"/><path d="m437.634 57.715h-57.69c-4.142 0-7.5 3.358-7.5 7.5s3.358 7.5 7.5 7.5h57.69c4.142 0 7.5-3.358 7.5-7.5s-3.358-7.5-7.5-7.5z"/><path d="m437.634 86.447h-57.69c-4.142 0-7.5 3.358-7.5 7.5s3.358 7.5 7.5 7.5h57.69c4.142 0 7.5-3.358 7.5-7.5s-3.358-7.5-7.5-7.5z"/><path d="m284.845 28.983h-57.69c-4.142 0-7.5 3.358-7.5 7.5s3.358 7.5 7.5 7.5h57.69c4.142 0 7.5-3.358 7.5-7.5s-3.358-7.5-7.5-7.5z"/><path d="m284.845 57.715h-57.69c-4.142 0-7.5 3.358-7.5 7.5s3.358 7.5 7.5 7.5h57.69c4.142 0 7.5-3.358 7.5-7.5s-3.358-7.5-7.5-7.5z"/><path d="m284.845 86.447h-57.69c-4.142 0-7.5 3.358-7.5 7.5s3.358 7.5 7.5 7.5h57.69c4.142 0 7.5-3.358 7.5-7.5s-3.358-7.5-7.5-7.5z"/></g><path d="m512 127.348v246.529c0 11.992-9.721 21.713-21.713 21.713h-315.077c-11.992 0-21.713-9.721-21.713-21.713v-246.528c0-3.321 3.727-5.278 6.46-3.392l21.073 14.534c1.408.971 3.271.971 4.679 0l25.194-17.376c1.408-.971 3.271-.971 4.679 0l25.196 17.376c1.409.971 3.271.971 4.679 0l25.189-17.376c1.409-.972 3.271-.972 4.68 0l25.192 17.376c1.409.971 3.271.971 4.679 0l25.193-17.376c1.408-.971 3.271-.971 4.679 0l25.197 17.377c1.408.971 3.27.971 4.679 0l25.198-17.377c1.408-.971 3.27-.971 4.679 0l25.199 17.377c1.408.971 3.27.971 4.679 0l25.198-17.377c1.408-.971 3.27-.971 4.679 0l25.203 17.378c1.408.971 3.27.971 4.678 0l21.082-14.536c2.734-1.887 6.46.07 6.46 3.391z" fill="#e49a6b"/><g><path d="m505.54 123.955-21.082 14.536c-1.001.69-2.23.88-3.364.589v234.796c0 11.992-9.721 21.713-21.713 21.713h30.905c11.992 0 21.713-9.721 21.713-21.713v-246.528c.001-3.321-3.725-5.278-6.459-3.393z" fill="#e0925b"/></g><path d="m410.311 396.532c0 10.295-8.302 18.64-18.543 18.64h-96.053c-22.855 0-45.378 5.494-65.692 16.023l-111.062 57.568c-9.044 4.688-18.785 7.882-28.846 9.459l-87.736 13.753c-1.25.196-2.379-.772-2.379-2.039v-89.614c0-1.043.777-1.922 1.81-2.048l50.131-6.152c9.129-1.12 17.997-3.805 26.217-7.937l36.028-18.111c10.763-5.41 20.469-12.725 28.652-21.594l60.03-65.057c6.176-6.693 16.355-7.747 23.767-2.462 8.234 5.871 10.109 17.374 4.169 25.58l-32.353 44.695c-3.21 4.434-.059 10.656 5.397 10.656h187.919c10.242 0 18.544 8.345 18.544 18.64z" fill="#ffd8ca"/><g fill="#ffbead"><path d="m199.899 322.541-32.353 44.695c-3.21 4.434-.059 10.656 5.397 10.656h30.905c-5.455 0-8.606-6.222-5.397-10.656l32.353-44.695c5.94-8.206 4.065-19.709-4.17-25.58-7.419-5.29-17.59-4.233-23.775 2.47l-2.365 2.563c3.908 6.132 3.932 14.294-.595 20.547z"/><path d="m391.768 377.892h-30.905c10.241 0 18.543 8.345 18.543 18.64 0 10.295-8.302 18.64-18.543 18.64h30.905c10.241 0 18.543-8.345 18.543-18.64 0-10.295-8.302-18.64-18.543-18.64z"/><path d="m199.117 431.195-111.062 57.568c-9.045 4.688-18.781 7.882-28.836 9.458l-59.219 9.282v2.433c0 1.267 1.129 2.235 2.379 2.039l87.746-13.754c10.055-1.576 19.791-4.77 28.836-9.458l111.062-57.568c20.313-10.529 42.837-16.023 65.692-16.023h-30.905c-22.856 0-45.38 5.494-65.693 16.023z"/></g></g></svg>