<svg id="Layer_1" enable-background="new 0 0 512 512" height="512" viewBox="0 0 512 512" width="512" xmlns="http://www.w3.org/2000/svg"><g><path d="m378.828 145.128h-157.06c-18.076 0-32.73-14.654-32.73-32.73v-79.668c0-18.076 14.654-32.73 32.73-32.73h157.06c18.076 0 32.73 14.654 32.73 32.73v79.669c-.001 18.076-14.654 32.729-32.73 32.729z" fill="#ffe589"/><path d="m379.087 0h-30.905c17.933 0 32.471 14.771 32.471 32.991v79.146c0 18.221-14.538 32.991-32.471 32.991h30.905c17.933 0 32.471-14.77 32.471-32.991v-79.146c-.001-18.22-14.538-32.991-32.471-32.991z" fill="#ffd86e"/><path d="m300.298 347.714c-4.142 0-7.5 3.358-7.5 7.5v63.657c0 4.142 3.358 7.5 7.5 7.5s7.5-3.358 7.5-7.5v-63.657c0-4.142-3.358-7.5-7.5-7.5z" fill="#7b727b"/><path d="m67.477 392.937c-4.142 0-7.5 3.358-7.5 7.5v98.99c0 4.142 3.358 7.5 7.5 7.5s7.5-3.358 7.5-7.5v-98.99c0-4.143-3.358-7.5-7.5-7.5z" fill="#7b727b"/><path d="m133.408 249.977h30.905v177.904h-30.905z" fill="#e0925b"/><path d="m436.282 249.977h30.905v177.904h-30.905z" fill="#e0925b"/><path d="m326.139 369.305h-51.682c-11.769 0-21.31-9.541-21.31-21.31 0-11.769 9.541-21.31 21.31-21.31h51.682c11.769 0 21.31 9.541 21.31 21.31-.001 11.77-9.542 21.31-21.31 21.31z" fill="#2fd9e7"/><path d="m326.139 326.686h-30.905c11.769 0 21.31 9.541 21.31 21.31s-9.541 21.31-21.31 21.31h30.905c11.769 0 21.31-9.541 21.31-21.31s-9.542-21.31-21.31-21.31z" fill="#00d0e4"/><path d="m441.433 208.77h-282.27v-45.09c0-11.51 9.331-20.841 20.841-20.841h240.587c11.51 0 20.841 9.331 20.841 20.841v45.09z" fill="#2fd9e7"/><path d="m420.591 142.839h-30.905c11.51 0 20.841 9.331 20.841 20.841v45.09h30.905v-45.09c.001-11.51-9.33-20.841-20.841-20.841z" fill="#00d0e4"/><path d="m133.408 404.861h333.779v85.597h-333.779z" fill="#2fd9e7"/><path d="m436.282 404.861h30.905v85.597h-30.905z" fill="#00d0e4"/><path d="m94.803 418.769h-54.652c-1.977 0-3.579-1.602-3.579-3.579v-132.947c0-1.977 1.602-3.579 3.579-3.579h54.652c1.977 0 3.579 1.602 3.579 3.579v132.946c0 1.977-1.602 3.58-3.579 3.58z" fill="#ffe589"/><path d="m94.803 278.664h-30.905c1.977 0 3.579 1.602 3.579 3.579v132.946c0 1.977-1.602 3.579-3.579 3.579h30.905c1.977 0 3.579-1.603 3.579-3.579v-132.946c0-1.977-1.602-3.579-3.579-3.579z" fill="#ffd86e"/><path d="m160.193 291.026c-19.344 0-35.026-15.682-35.026-35.026v-51.509c0-11.379 9.225-20.604 20.604-20.604h49.449v72.113c-.001 19.344-15.682 35.026-35.027 35.026z" fill="#ff6167"/><path d="m164.314 183.887v72.113c0 13.797-7.98 25.725-19.573 31.435 4.662 2.296 9.905 3.591 15.453 3.591 19.344 0 35.026-15.682 35.026-35.026v-72.113z" fill="#fe454a"/><path d="m230.246 291.026c-19.344 0-35.026-15.682-35.026-35.026v-72.113h70.052v72.113c0 19.344-15.682 35.026-35.026 35.026z" fill="#f8f7f7"/><path d="m234.366 183.887v72.113c0 13.797-7.98 25.725-19.573 31.435 4.662 2.296 9.905 3.591 15.453 3.591 19.344 0 35.026-15.682 35.026-35.026v-72.113z" fill="#efefef"/><path d="m300.298 291.026c-19.344 0-35.026-15.682-35.026-35.026v-72.113h70.052v72.113c0 19.344-15.682 35.026-35.026 35.026z" fill="#ff6167"/><path d="m304.419 183.887v72.113c0 13.797-7.98 25.725-19.573 31.435 4.662 2.296 9.905 3.591 15.453 3.591 19.344 0 35.026-15.682 35.026-35.026v-72.113z" fill="#fe454a"/><path d="m370.35 291.026c-19.344 0-35.026-15.682-35.026-35.026v-72.113h70.052v72.113c0 19.344-15.681 35.026-35.026 35.026z" fill="#f8f7f7"/><path d="m374.471 183.887v72.113c0 13.797-7.98 25.725-19.573 31.435 4.662 2.296 9.905 3.591 15.453 3.591 19.345 0 35.026-15.682 35.026-35.026v-72.113z" fill="#efefef"/><path d="m440.402 291.026c-19.344 0-35.026-15.682-35.026-35.026v-72.113h49.449c11.379 0 20.604 9.225 20.604 20.604v51.509c0 19.344-15.682 35.026-35.027 35.026z" fill="#ff6167"/><path d="m454.825 183.887h-30.905c11.379 0 20.604 9.225 20.604 20.604v51.509c0 13.797-7.98 25.725-19.573 31.435 4.662 2.296 9.905 3.591 15.453 3.591 19.345 0 35.026-15.682 35.026-35.026v-51.509c-.001-11.379-9.226-20.604-20.605-20.604z" fill="#fe454a"/><g fill="#2fd9e7"><path d="m383.721 32.635c-4.142 0-7.5 3.358-7.5 7.5v23.723h-29.748v-23.723c0-4.142-3.358-7.5-7.5-7.5s-7.5 3.358-7.5 7.5v64.663c0 4.142 3.358 7.5 7.5 7.5s7.5-3.358 7.5-7.5v-25.94h29.748v25.94c0 4.142 3.358 7.5 7.5 7.5s7.5-3.358 7.5-7.5v-64.663c0-4.142-3.358-7.5-7.5-7.5z"/><path d="m305.191 78.213h-.719c.089-15.454.134-31.92-.057-34.219-.437-5.243-3.594-9.521-8.043-10.899-4.417-1.366-9.11.335-12.553 4.558-3.688 4.525-20.68 35.158-25.8 44.438-1.282 2.324-1.241 5.151.108 7.436s3.805 3.687 6.458 3.687h24.786c-.03 4.077-.061 7.986-.091 11.521-.036 4.142 3.293 7.528 7.435 7.564h.066c4.111 0 7.463-3.315 7.498-7.436.019-2.188.054-6.407.094-11.649h.819c4.142 0 7.5-3.358 7.5-7.5s-3.359-7.501-7.501-7.501zm-15.721 0h-12.139c4.49-8.027 8.862-15.723 12.221-21.482-.005 5.947-.037 13.572-.082 21.482z"/><path d="m252.303 97.149c-6.403.081-13.191.134-18.859.146 3.577-4.789 8.52-11.547 15.163-21.04 4.144-5.921 6.848-11.521 8.037-16.644.057-.246.102-.495.133-.745l.319-2.501c.041-.315.061-.632.061-.95 0-13.259-10.787-24.046-24.046-24.046-11.465 0-21.388 8.156-23.595 19.394-.798 4.064 1.85 8.006 5.914 8.805 4.063.797 8.006-1.849 8.805-5.914.829-4.221 4.562-7.284 8.876-7.284 4.852 0 8.824 3.839 9.037 8.64l-.198 1.547c-.804 3.173-2.697 6.904-5.632 11.098-10.241 14.633-16.352 22.634-19.635 26.933-4.087 5.351-5.952 7.793-4.676 11.941.75 2.44 2.598 4.312 5.068 5.135.995.332 1.948.65 14.57.65 4.933 0 11.65-.049 20.846-.164 4.142-.052 7.457-3.452 7.405-7.594-.052-4.143-3.481-7.478-7.593-7.407z"/></g><path d="m496.547 512h-481.094c-8.535 0-15.453-6.918-15.453-15.453 0-8.534 6.918-15.453 15.453-15.453h481.095c8.534 0 15.453 6.918 15.453 15.453-.001 8.535-6.919 15.453-15.454 15.453z" fill="#e0925b"/><path d="m496.547 481.095h-30.905c8.534 0 15.453 6.918 15.453 15.453 0 8.534-6.919 15.453-15.453 15.453h30.905c8.534 0 15.453-6.918 15.453-15.453s-6.919-15.453-15.453-15.453z" fill="#d48145"/></g></svg>