<svg id="Layer_1" enable-background="new 0 0 512 512" height="512" viewBox="0 0 512 512" width="512" xmlns="http://www.w3.org/2000/svg"><g><path d="m369.32 0h-226.64c-28.443 0-51.509 23.066-51.509 51.509v100.491h329.658v-100.491c0-28.443-23.066-51.509-51.509-51.509zm20.604 83.445c0 6.83-5.532 12.362-12.362 12.362h-243.123c-6.83 0-12.362-5.532-12.362-12.362v-25.755c0-14.793 11.991-26.785 26.785-26.785h214.278c14.793 0 26.785 11.991 26.785 26.785v25.755z" fill="#2fd9e7"/><path d="m465.13 210.39c0 4.518-3.662 8.18-8.18 8.18h-401.9c-4.518 0-8.18-3.662-8.18-8.18v-.33c0-.32.03-.63.09-.93.01-.1.04-.2.07-.29l1.15-2.15 42.99-79.98h329.66l43.73 81.37c.18.34.32.69.41 1.05.11.42.16.84.16 1.26z" fill="#ff6167"/><path d="m465.13 210.39c0 4.518-3.662 8.18-8.18 8.18h-22.73v-9.44l-44.3-82.42h30.91l43.73 81.37c.18.34.32.69.41 1.05.11.42.16.84.16 1.26z" fill="#fe454a"/><path d="m465.13 210.39v274.83c0 14.79-12 26.78-26.79 26.78h-364.68c-14.79 0-26.79-11.99-26.79-26.78v-275.16c0-.32.03-.63.09-.93h418.01c.11.42.16.84.16 1.26z" fill="#f8f7f7"/><path d="m465.13 210.39v274.83c0 14.79-12 26.78-26.79 26.78h-30.9c14.79 0 26.78-11.99 26.78-26.78v-276.09h30.75c.11.42.16.84.16 1.26z" fill="#efefef"/><path d="m323.827 423.374h-135.654c-9.109 0-16.493-7.384-16.493-16.493v-11.614c0-1.826 1.48-3.307 3.307-3.307h162.026c1.826 0 3.307 1.48 3.307 3.307v11.614c0 9.109-7.384 16.493-16.493 16.493z" fill="#e0925b"/><path d="m337.013 391.961h-30.905c1.826 0 3.307 1.48 3.307 3.307v11.614c0 9.109-7.384 16.493-16.493 16.493h30.905c9.109 0 16.493-7.384 16.493-16.493v-11.614c0-1.827-1.481-3.307-3.307-3.307z" fill="#d48145"/><path d="m337.017 363.116h-162.034c-1.869 0-3.364-1.542-3.306-3.41.458-14.586 7.212-70.99 84.323-70.99s83.865 56.404 84.323 70.99c.058 1.868-1.437 3.41-3.306 3.41z" fill="#e0925b"/><path d="m256 288.716c-5.506 0-10.641.296-15.453.836 62.578 7.014 68.445 56.61 68.87 70.154.059 1.868-1.437 3.41-3.306 3.41h30.905c1.869 0 3.364-1.542 3.306-3.41-.457-14.586-7.211-70.99-84.322-70.99z" fill="#d48145"/><path d="m335.817 391.961h-159.634c-7.965 0-14.423-6.457-14.423-14.423 0-7.965 6.457-14.423 14.423-14.423h159.635c7.965 0 14.423 6.457 14.423 14.423-.001 7.966-6.458 14.423-14.424 14.423z" fill="#e07f5d"/><path d="m335.817 363.116h-30.905c7.965 0 14.423 6.457 14.423 14.423 0 7.965-6.457 14.423-14.423 14.423h30.905c7.965 0 14.423-6.457 14.423-14.423s-6.457-14.423-14.423-14.423z" fill="#d06d4a"/></g></svg>