<svg id="Layer_1" enable-background="new 0 0 512 512" height="512" viewBox="0 0 512 512" width="512" xmlns="http://www.w3.org/2000/svg"><g><g fill="#e0925b"><path d="m102.503 130.159h30.905v150.764h-30.905z"/><path d="m378.592 130.159h30.905v150.764h-30.905z"/></g><path d="m234.498 277.832h-61.811v-77.62c0-2.276 1.845-4.121 4.121-4.121h53.569c2.276 0 4.121 1.845 4.121 4.121z" fill="#ffe589"/><path d="m397.135 65.932h-282.27v-45.09c0-11.511 9.331-20.842 20.842-20.842h240.587c11.51 0 20.841 9.331 20.841 20.841z" fill="#2fd9e7"/><path d="m376.294 0h-30.905c11.51 0 20.841 9.331 20.841 20.841v45.09h30.905v-45.09c0-11.51-9.331-20.841-20.841-20.841z" fill="#00d0e4"/><path d="m422.889 338.256h-333.778v-70.052c0-3.414 2.767-6.181 6.181-6.181h321.417c3.414 0 6.181 2.767 6.181 6.181v70.052z" fill="#2fd9e7"/><path d="m391.984 262.023v76.233h30.905v-70.052c0-3.414-2.767-6.181-6.181-6.181z" fill="#00d0e4"/><path d="m115.895 148.188c-19.344 0-35.026-15.682-35.026-35.026v-51.51c0-11.379 9.225-20.604 20.604-20.604h49.449v72.113c0 19.345-15.682 35.027-35.027 35.027z" fill="#ff6167"/><path d="m120.016 41.049v72.113c0 13.797-7.98 25.725-19.573 31.435 4.662 2.296 9.905 3.591 15.453 3.591 19.344 0 35.026-15.682 35.026-35.026v-72.113z" fill="#fe454a"/><path d="m185.948 148.188c-19.344 0-35.026-15.682-35.026-35.026v-72.113h70.052v72.113c0 19.344-15.682 35.026-35.026 35.026z" fill="#f8f7f7"/><path d="m190.068 41.049v72.113c0 13.797-7.98 25.725-19.573 31.435 4.662 2.296 9.905 3.591 15.453 3.591 19.344 0 35.026-15.682 35.026-35.026v-72.113z" fill="#efefef"/><path d="m256 148.188c-19.344 0-35.026-15.682-35.026-35.026v-72.113h70.052v72.113c0 19.344-15.682 35.026-35.026 35.026z" fill="#ff6167"/><path d="m260.121 41.049v72.113c0 13.797-7.98 25.725-19.573 31.435 4.662 2.296 9.905 3.591 15.453 3.591 19.344 0 35.026-15.682 35.026-35.026v-72.113z" fill="#fe454a"/><path d="m326.052 148.188c-19.344 0-35.026-15.682-35.026-35.026v-72.113h70.052v72.113c0 19.344-15.681 35.026-35.026 35.026z" fill="#f8f7f7"/><path d="m330.173 41.049v72.113c0 13.797-7.98 25.725-19.573 31.435 4.662 2.296 9.905 3.591 15.453 3.591 19.345 0 35.026-15.682 35.026-35.026v-72.113z" fill="#efefef"/><path d="m396.105 148.188c-19.344 0-35.026-15.682-35.026-35.026v-72.113h49.449c11.379 0 20.604 9.225 20.604 20.604v51.509c-.001 19.344-15.683 35.026-35.027 35.026z" fill="#ff6167"/><path d="m410.527 41.049h-30.905c11.379 0 20.604 9.225 20.604 20.604v51.509c0 13.797-7.98 25.725-19.573 31.435 4.662 2.296 9.905 3.591 15.453 3.591 19.345 0 35.026-15.682 35.026-35.026v-51.51c-.001-11.379-9.226-20.603-20.605-20.603z" fill="#fe454a"/><path d="m116.174 406.555 7.225 14.671c2.053 4.17 6.022 7.06 10.614 7.728l16.156 2.353c11.562 1.684 16.179 15.923 7.812 24.096l-11.69 11.42c-3.322 3.246-4.838 7.922-4.054 12.504l2.76 16.125c1.975 11.541-10.112 20.341-20.453 14.892l-14.45-7.613c-4.107-2.164-9.013-2.164-13.119 0l-14.45 7.613c-10.342 5.449-22.428-3.352-20.453-14.892l2.76-16.125c.784-4.583-.732-9.259-4.054-12.504l-11.69-11.42c-8.367-8.173-3.75-22.413 7.812-24.096l16.156-2.353c4.591-.669 8.56-3.559 10.614-7.728l7.225-14.671c5.168-10.5 20.108-10.5 25.279 0z" fill="#ffe589"/><g><path d="m150.169 431.307-16.156-2.353c-4.591-.668-8.56-3.558-10.614-7.728l-7.225-14.672c-5.171-10.499-20.111-10.499-25.282 0l-4.929 10.01 6.531 13.261c2.053 4.169 6.022 7.06 10.614 7.728l16.156 2.353c11.562 1.684 16.179 15.924 7.812 24.097l-11.69 11.42c-3.322 3.245-4.838 7.922-4.054 12.505l2.76 16.125c.049.284.082.565.114.846l10.338 5.447c10.342 5.449 22.428-3.352 20.453-14.893l-2.76-16.125c-.784-4.582.732-9.259 4.054-12.504l11.69-11.421c8.367-8.173 3.75-22.412-7.812-24.096z" fill="#ffd86e"/></g><path d="m421.108 406.555 7.225 14.671c2.053 4.17 6.022 7.06 10.614 7.728l16.156 2.353c11.562 1.684 16.179 15.923 7.812 24.097l-11.69 11.42c-3.322 3.246-4.838 7.922-4.054 12.504l2.76 16.125c1.975 11.541-10.112 20.341-20.453 14.892l-14.45-7.613c-4.107-2.164-9.013-2.164-13.119 0l-14.45 7.613c-10.342 5.449-22.428-3.352-20.453-14.892l2.76-16.125c.784-4.583-.732-9.259-4.054-12.504l-11.69-11.42c-8.367-8.173-3.75-22.413 7.812-24.097l16.156-2.353c4.591-.669 8.56-3.559 10.614-7.728l7.225-14.671c5.168-10.5 20.108-10.5 25.279 0z" fill="#ffe589"/><g><path d="m455.102 431.307-16.155-2.353c-4.592-.669-8.561-3.558-10.614-7.728l-7.225-14.672c-5.171-10.499-20.111-10.499-25.282 0l-4.714 9.573 6.316 12.825c2.053 4.17 6.022 7.059 10.614 7.728l16.155 2.353c11.562 1.684 16.179 15.924 7.813 24.097l-11.69 11.421c-3.322 3.245-4.839 7.922-4.054 12.504l2.76 16.125c.102.595.157 1.18.186 1.758l10.266 5.409c10.342 5.449 22.428-3.352 20.453-14.893l-2.76-16.125c-.784-4.582.732-9.259 4.054-12.504l11.69-11.421c8.366-8.174 3.749-22.413-7.813-24.097z" fill="#ffd86e"/></g><path d="m270.415 391.218 8.239 16.805c2.342 4.776 6.868 8.086 12.103 8.852l18.423 2.695c13.185 1.929 18.45 18.24 8.909 27.601l-13.331 13.081c-3.789 3.718-5.518 9.074-4.623 14.323l3.147 18.471c2.252 13.219-11.531 23.3-23.324 17.059l-16.478-8.721c-4.683-2.478-10.278-2.478-14.961 0l-16.478 8.721c-11.793 6.241-25.576-3.839-23.324-17.059l3.147-18.471c.894-5.249-.834-10.606-4.623-14.323l-13.331-13.081c-9.541-9.362-4.276-25.673 8.909-27.601l18.423-2.695c5.236-.766 9.762-4.076 12.103-8.852l8.239-16.805c5.897-12.027 22.934-12.027 28.831 0z" fill="#ffe589"/><g><path d="m309.181 419.57-18.423-2.695c-5.236-.766-9.762-4.076-12.103-8.852l-8.239-16.806c-5.896-12.027-22.933-12.027-28.83 0l-3.136 6.397c.382.582.741 1.192 1.061 1.845l8.239 16.805c2.342 4.776 6.868 8.087 12.103 8.852l18.423 2.695c13.185 1.929 18.45 18.24 8.909 27.602l-13.331 13.081c-3.789 3.718-5.517 9.074-4.623 14.323l3.147 18.471c.287 1.682.311 3.312.115 4.866l7.466 3.951c11.793 6.241 25.576-3.84 23.324-17.058l-3.147-18.471c-.894-5.249.834-10.606 4.623-14.323l13.331-13.081c9.541-9.362 4.276-25.673-8.909-27.602z" fill="#ffd86e"/></g><path d="m456.886 330.756h-401.772c-4.143 0-7.5 3.358-7.5 7.5s3.357 7.5 7.5 7.5h401.771c4.143 0 7.5-3.358 7.5-7.5s-3.357-7.5-7.499-7.5z" fill="#7b727b"/></g></svg>