<svg id="Layer_1" enable-background="new 0 0 512 512" height="512" viewBox="0 0 512 512" width="512" xmlns="http://www.w3.org/2000/svg"><g><path d="m297.207 512h-220.459c-22.758 0-41.207-18.449-41.207-41.207v-429.586c0-22.758 18.449-41.207 41.207-41.207h220.459c22.758 0 41.207 18.449 41.207 41.207v429.586c0 22.758-18.449 41.207-41.207 41.207z" fill="#7b727b"/><path d="m297.207 0h-30.905c22.758 0 41.207 18.449 41.207 41.207v429.586c0 22.758-18.449 41.207-41.207 41.207h30.905c22.758 0 41.207-18.449 41.207-41.207v-429.586c0-22.758-18.449-41.207-41.207-41.207z" fill="#686169"/><path d="m311.63 41.207v429.586c0 7.965-6.457 14.423-14.423 14.423h-220.459c-7.965 0-14.423-6.457-14.423-14.423v-429.586c0-7.965 6.457-14.423 14.423-14.423h41.314c2.402 0 4.538 1.524 5.32 3.795l5.444 15.816c.782 2.271 2.918 3.795 5.32 3.795h105.664c2.402 0 4.538-1.524 5.32-3.795l5.444-15.816c.782-2.271 2.918-3.795 5.32-3.795h41.314c7.965.001 14.422 6.458 14.422 14.423z" fill="#d6faec"/><path d="m227.155 418.769h-80.354c-11.948 0-21.634-9.686-21.634-21.634 0-11.948 9.686-21.634 21.634-21.634h80.354c11.948 0 21.634 9.686 21.634 21.634 0 11.948-9.686 21.634-21.634 21.634z" fill="#ff6167"/><g><path d="m297.207 26.785h-30.905c7.965 0 14.423 6.457 14.423 14.423v429.586c0 7.965-6.457 14.423-14.423 14.423h30.905c7.965 0 14.423-6.457 14.423-14.423v-429.587c0-7.965-6.457-14.422-14.423-14.422z" fill="#ccfae8"/></g><path d="m462.036 319.871h-259.605c-7.965 0-14.423-6.457-14.423-14.423v-191.613c0-7.965 6.457-14.423 14.423-14.423h259.606c7.965 0 14.423 6.457 14.423 14.423v191.614c-.001 7.965-6.458 14.422-14.424 14.422z" fill="#7edbb0"/><path d="m462.036 99.412h-30.905c7.965 0 14.423 6.457 14.423 14.423v191.614c0 7.965-6.457 14.423-14.423 14.423h30.905c7.965 0 14.423-6.457 14.423-14.423v-191.614c0-7.965-6.458-14.423-14.423-14.423z" fill="#51d39e"/><path d="m167.069 202.326-21.132-26.151c-2.602-3.221-7.324-3.721-10.547-1.12-3.222 2.604-3.723 7.326-1.119 10.547l11.262 13.937h-29.941c-4.143 0-7.5 3.358-7.5 7.5s3.357 7.5 7.5 7.5h29.941l-11.262 13.937c-2.604 3.222-2.103 7.944 1.119 10.547 1.388 1.122 3.054 1.667 4.709 1.667 2.188 0 4.356-.953 5.838-2.787l21.132-26.151c2.223-2.748 2.223-6.676 0-9.426z" fill="#ff6167"/><g fill="#f8f7f7"><path d="m364.395 131.778c-3.818-1.602-8.215.193-9.818 4.013l-56.685 135.068c-1.603 3.819.194 8.215 4.014 9.818.948.398 1.932.586 2.899.586 2.93 0 5.714-1.729 6.919-4.6l56.685-135.068c1.602-3.819-.195-8.215-4.014-9.817z"/><path d="m326.502 161.503c0-20.185-14.601-36.605-32.547-36.605s-32.546 16.421-32.546 36.605 14.6 36.605 32.546 36.605 32.547-16.42 32.547-36.605zm-32.547 21.605c-9.675 0-17.546-9.692-17.546-21.605s7.871-21.605 17.546-21.605c9.676 0 17.547 9.692 17.547 21.605s-7.871 21.605-17.547 21.605z"/><path d="m370.512 217.247c-17.946 0-32.547 16.421-32.547 36.605s14.601 36.605 32.547 36.605 32.546-16.421 32.546-36.605-14.6-36.605-32.546-36.605zm0 58.21c-9.676 0-17.547-9.692-17.547-21.605s7.871-21.605 17.547-21.605c9.675 0 17.546 9.692 17.546 21.605s-7.871 21.605-17.546 21.605z"/></g></g></svg>