<svg id="Layer_1" enable-background="new 0 0 512 512" height="512" viewBox="0 0 512 512" width="512" xmlns="http://www.w3.org/2000/svg"><g><g><path d="m512 106.131c0 .05 0 .1-.01.15l-.04.36s0 .01-.01.02l-31.642 243.022c-.542 4.163-4.089 7.278-8.287 7.278h-308.361l-32.61-250.36c-.02-.1-.03-.21-.04-.31-.01-.07-.01-.13-.01-.2 0-.16.02-.31.04-.47.01-.01.01-.03.01-.04.03-.14.07-.28.12-.41l.26-.46 10.42-18.67h359.29l10.44 18.68c.02.04.05.07.07.11.03.05.06.1.09.16.1.2.17.41.22.63.03.17.05.34.05.51z" fill="#f8f7f7"/><path d="m511.95 105.621h-380.92c.01-.01.01-.03.01-.04.03-.14.07-.28.12-.41l.26-.46 10.42-18.67 22.98-41.19c1.79-3.2 5.17-5.19 8.84-5.19h295.67c3.67 0 7.05 1.99 8.84 5.19l33.47 59.98c.03.05.06.1.09.16.1.2.17.41.22.63z" fill="#efefef"/><path d="m511.95 105.621h-36.52l-10.93-19.58-22.98-41.19c-1.79-3.2-5.17-5.19-8.84-5.19h36.65c3.67 0 7.05 1.99 8.84 5.19l33.47 59.98c.03.05.06.1.09.16.1.2.17.41.22.63z" fill="#e7e7e7"/><path d="m512 106.131c0 .05 0 .1-.01.15l-.04.36s0 .01-.01.02l-31.642 243.022c-.542 4.163-4.089 7.278-8.287 7.278h-29.311l32.73-251.34h36.52c.03.17.05.34.05.51z" fill="#efefef"/><path d="m393.863 237.672h-140.323c-2.5 0-4.527-2.027-4.527-4.527v-5.26c0-41.249 33.439-74.688 74.688-74.688 41.249 0 74.688 33.439 74.688 74.688v5.26c.001 2.5-2.026 4.527-4.526 4.527z" fill="#ff6167"/><path d="m323.702 153.197c-5.299 0-10.466.56-15.453 1.61 33.832 7.119 59.235 37.128 59.235 73.078v5.26c0 2.5-2.027 4.527-4.527 4.527h30.905c2.5 0 4.527-2.027 4.527-4.527v-5.26c.001-41.249-33.438-74.688-74.687-74.688z" fill="#fe454a"/></g><path d="m410.311 356.871c0 10.295-8.302 18.64-18.543 18.64h-96.053c-22.855 0-45.378 5.494-65.692 16.023l-111.062 57.568c-9.044 4.688-18.785 7.882-28.846 9.459l-87.736 13.753c-1.25.196-2.379-.772-2.379-2.039v-89.614c0-1.043.777-1.922 1.81-2.048l50.131-6.152c9.129-1.12 17.997-3.805 26.217-7.937l36.028-18.111c10.763-5.41 20.469-12.725 28.652-21.594l60.03-65.057c6.176-6.693 16.355-7.747 23.767-2.462 8.234 5.871 10.109 17.374 4.169 25.58l-32.353 44.695c-3.21 4.434-.059 10.656 5.397 10.656h187.919c10.242 0 18.544 8.346 18.544 18.64z" fill="#ffd8ca"/><g fill="#ffbead"><path d="m199.899 282.88-32.353 44.695c-3.21 4.434-.059 10.656 5.397 10.656h30.905c-5.455 0-8.606-6.222-5.397-10.656l32.353-44.695c5.94-8.206 4.065-19.709-4.17-25.58-7.419-5.29-17.59-4.233-23.775 2.47l-2.365 2.563c3.908 6.132 3.932 14.294-.595 20.547z"/><path d="m391.768 338.231h-30.905c10.241 0 18.543 8.345 18.543 18.64 0 10.295-8.302 18.64-18.543 18.64h30.905c10.241 0 18.543-8.345 18.543-18.64 0-10.295-8.302-18.64-18.543-18.64z"/><path d="m199.117 391.534-111.062 57.568c-9.045 4.688-18.781 7.882-28.836 9.458l-59.219 9.282v2.433c0 1.267 1.129 2.235 2.379 2.039l87.746-13.754c10.055-1.576 19.791-4.77 28.836-9.458l111.062-57.568c20.313-10.529 42.837-16.023 65.692-16.023h-30.905c-22.856 0-45.38 5.494-65.693 16.023z"/></g></g></svg>