<svg id="Layer_1" enable-background="new 0 0 512 512" height="512" viewBox="0 0 512 512" width="512" xmlns="http://www.w3.org/2000/svg"><g><g><path d="m353.867 488.256h-195.734v-108.243l97.867-88.713 97.867 88.713z" fill="#f8f7f7"/><path d="m322.962 351.998v136.258h30.905v-108.243z" fill="#efefef"/><path d="m294.117 488.383h-76.233v-72.19c0-21.051 17.065-38.117 38.117-38.117 21.051 0 38.117 17.065 38.117 38.117v72.19z" fill="#686169"/><path d="m387.994 386.251-121.561-111.259c-5.903-5.405-14.962-5.405-20.865 0l-121.562 111.259c-6.296 5.762-6.728 15.536-.967 21.832 5.763 6.295 15.538 6.727 21.832.966l111.129-101.711 111.129 101.711c2.965 2.714 6.702 4.054 10.429 4.054 4.184 0 8.355-1.69 11.403-5.02 5.761-6.296 5.329-16.07-.967-21.832z" fill="#ff6167"/><path d="m161.533 134.658h-134.586c-9.404 0-17.027-7.623-17.027-17.027v-13.038c0-1.885 1.528-3.414 3.414-3.414h161.812c1.885 0 3.414 1.528 3.414 3.414v13.038c0 9.404-7.623 17.027-17.027 17.027z" fill="#e0925b"/><path d="m175.253 101.179h-30.905c1.826 0 3.307 1.578 3.307 3.524v12.377c0 9.708-7.384 17.578-16.493 17.578h30.905c9.109 0 16.493-7.87 16.493-17.578v-12.377c0-1.946-1.481-3.524-3.307-3.524z" fill="#d48145"/><path d="m175.257 76.769h-162.034c-1.869 0-3.364-1.591-3.306-3.518.458-15.051 7.212-73.251 84.323-73.251s83.865 58.2 84.323 73.251c.058 1.927-1.437 3.518-3.306 3.518z" fill="#e0925b"/><path d="m94.24 0c-5.506 0-10.641.306-15.453.862 62.578 7.238 68.445 58.412 68.87 72.388.059 1.928-1.437 3.518-3.306 3.518h30.905c1.869 0 3.364-1.591 3.306-3.518-.457-15.05-7.211-73.25-84.322-73.25z" fill="#d48145"/><path d="m174.057 103.245h-159.634c-7.966 0-14.423-6.457-14.423-14.423 0-7.965 6.457-14.422 14.423-14.422h159.635c7.965 0 14.423 6.457 14.423 14.423-.001 7.965-6.458 14.422-14.424 14.422z" fill="#e07f5d"/><path d="m174.057 74.4h-30.905c7.965 0 14.423 6.457 14.423 14.423s-6.457 14.423-14.423 14.423h30.905c7.965 0 14.423-6.457 14.423-14.423s-6.457-14.423-14.423-14.423z" fill="#d06d4a"/><path d="m497.808 6.08v178.774c0 4.329-5.234 6.497-8.295 3.436l-126.403-126.419c-2.421-2.421-2.376-6.376.12-8.719 33.779-31.696 78.755-51.605 128.348-53.148 3.414-.107 6.23 2.661 6.23 6.076z" fill="#e49a6b"/><path d="m491.578.003c-8.768.273-17.387 1.131-25.83 2.516.723 1.002 1.155 2.231 1.155 3.561v159.596l22.611 22.613c3.061 3.061 8.295.893 8.295-3.436v-178.773c-.001-3.415-2.817-6.183-6.231-6.077z" fill="#e0925b"/><path d="m497.808 38.147v-32.067c0-3.415-2.816-6.183-6.23-6.077-49.594 1.544-94.569 21.452-128.348 53.149-2.497 2.343-2.541 6.298-.12 8.719l21.285 21.287c31.146-25.901 70.413-42.361 113.413-45.011z" fill="#e0925b"/><g><path d="m491.578.003c-8.768.273-17.387 1.131-25.83 2.516.723 1.003 1.154 2.231 1.154 3.561v36.451c10.035-2.248 20.357-3.734 30.905-4.384v-32.067c.001-3.416-2.815-6.183-6.229-6.077z" fill="#d48145"/></g><g fill="#d64239"><circle cx="426.336" cy="118.887" r="17.513"/><circle cx="494.487" cy="138.513" r="17.513"/><circle cx="469.861" cy="79.4" r="17.513"/></g><g fill="#686169"><path d="m87.605 164.718c4.142 0 7.5-3.357 7.5-7.5v-5.151c0-4.143-3.358-7.5-7.5-7.5s-7.5 3.357-7.5 7.5v5.151c0 4.142 3.358 7.5 7.5 7.5z"/><path d="m87.605 205.826c4.142 0 7.5-3.357 7.5-7.5v-10.05c0-4.143-3.358-7.5-7.5-7.5s-7.5 3.357-7.5 7.5v10.05c0 4.143 3.358 7.5 7.5 7.5z"/><path d="m94.844 227.723c-.864-3.188-3.778-5.533-7.239-5.533-4.142 0-7.5 3.357-7.5 7.5v5.15c0 4.143 3.358 7.5 7.5 7.5h4.868c4.142 0 7.5-3.357 7.5-7.5 0-3.314-2.149-6.125-5.129-7.117z"/><path d="m137.86 227.34h-11.576c-4.142 0-7.5 3.357-7.5 7.5s3.358 7.5 7.5 7.5h11.576c4.142 0 7.5-3.357 7.5-7.5s-3.358-7.5-7.5-7.5z"/><path d="m176.234 227.34h-4.868c-4.142 0-7.5 3.357-7.5 7.5 0 3.313 2.148 6.125 5.128 7.117.864 3.188 3.778 5.534 7.24 5.534 4.142 0 7.5-3.357 7.5-7.5v-5.151c0-4.143-3.358-7.5-7.5-7.5z"/><path d="m176.234 252.272c-4.142 0-7.5 3.357-7.5 7.5v6.4c0 4.143 3.358 7.5 7.5 7.5s7.5-3.357 7.5-7.5v-6.4c0-4.142-3.358-7.5-7.5-7.5z"/><path d="m176.234 278.649c-4.142 0-7.5 3.357-7.5 7.5v5.15c0 4.143 3.358 7.5 7.5 7.5s7.5-3.357 7.5-7.5v-5.15c0-4.142-3.358-7.5-7.5-7.5z"/><path d="m426.336 157.351c-4.142 0-7.5 3.357-7.5 7.5v5.151c0 4.143 3.358 7.5 7.5 7.5s7.5-3.357 7.5-7.5v-5.151c0-4.143-3.357-7.5-7.5-7.5z"/><path d="m426.336 186.149c-4.142 0-7.5 3.357-7.5 7.5v7.651c0 4.143 3.358 7.5 7.5 7.5s7.5-3.357 7.5-7.5v-7.651c0-4.142-3.357-7.5-7.5-7.5z"/><path d="m426.336 217.679c-3.427 0-6.317 2.299-7.213 5.438-3.14.896-5.438 3.786-5.438 7.213 0 4.143 3.358 7.5 7.5 7.5h5.151c4.142 0 7.5-3.357 7.5-7.5v-5.151c0-4.143-3.357-7.5-7.5-7.5z"/><path d="m387.92 222.83h-10.764c-4.142 0-7.5 3.357-7.5 7.5s3.358 7.5 7.5 7.5h10.764c4.142 0 7.5-3.357 7.5-7.5s-3.358-7.5-7.5-7.5z"/><path d="m343.565 222.83h-5.151c-4.142 0-7.5 3.357-7.5 7.5v5.15c0 4.143 3.358 7.5 7.5 7.5 3.427 0 6.317-2.299 7.213-5.438 3.139-.896 5.438-3.786 5.438-7.213 0-4.141-3.357-7.499-7.5-7.499z"/><path d="m338.415 248.084c-4.142 0-7.5 3.357-7.5 7.5v6.505c0 4.143 3.358 7.5 7.5 7.5s7.5-3.357 7.5-7.5v-6.505c0-4.143-3.358-7.5-7.5-7.5z"/><path d="m338.415 274.889c-4.142 0-7.5 3.357-7.5 7.5v5.15c0 4.143 3.358 7.5 7.5 7.5s7.5-3.357 7.5-7.5v-5.15c0-4.143-3.358-7.5-7.5-7.5z"/></g></g><path d="m379.622 512h-247.244c-8.534 0-15.453-6.918-15.453-15.453 0-8.534 6.918-15.453 15.453-15.453h247.243c8.534 0 15.453 6.918 15.453 15.453 0 8.535-6.918 15.453-15.452 15.453z" fill="#e07f5d"/><path d="m379.622 481.095h-30.905c8.534 0 15.453 6.919 15.453 15.453s-6.919 15.453-15.453 15.453h30.905c8.534 0 15.453-6.919 15.453-15.453-.001-8.535-6.919-15.453-15.453-15.453z" fill="#d06d4a"/></g></svg>