<svg id="Layer_1" enable-background="new 0 0 512 512" height="512" viewBox="0 0 512 512" width="512" xmlns="http://www.w3.org/2000/svg"><g><path d="m415.03 512h-318.06c-12.306 0-22.282-9.976-22.282-22.282v-167.851c0-12.306 9.976-22.282 22.282-22.282h318.06c12.306 0 22.282 9.976 22.282 22.282v167.851c0 12.306-9.976 22.282-22.282 22.282z" fill="#e0925b"/><path d="m415.026 299.585h-30.915c12.308 0 22.286 9.974 22.286 22.278v167.858c0 12.304-9.978 22.278-22.286 22.278h30.915c12.308 0 22.286-9.974 22.286-22.278v-167.858c0-12.304-9.978-22.278-22.286-22.278z" fill="#d48145"/><path d="m415.026 299.585h-318.052c-12.308 0-22.286 9.974-22.286 22.278v18.097h362.624v-18.097c0-12.304-9.978-22.278-22.286-22.278z" fill="#686169"/><path d="m415.026 299.585h-30.915c12.308 0 22.286 9.974 22.286 22.278v18.097h30.915v-18.097c0-12.304-9.978-22.278-22.286-22.278z" fill="#555055"/><g fill="#ffbead"><path d="m170.386 205.773c0 22.539-13.784 40.811-30.787 40.811s-26.881-20.983-26.881-43.523 9.877-38.099 26.881-38.099 30.787 18.271 30.787 40.811z"/><path d="m341.614 205.773c0 22.539 13.784 40.811 30.787 40.811s26.881-20.983 26.881-43.523-9.877-38.099-26.881-38.099-30.787 18.271-30.787 40.811z"/></g><path d="m393.42 512h-274.84c-9.448 0-17.107-7.659-17.107-17.107v-26.107c0-51.375 41.647-93.022 93.022-93.022h123.01c51.375 0 93.022 41.647 93.022 93.022v26.107c0 9.448-7.659 17.107-17.107 17.107z" fill="#ffe589"/><path d="m317.505 375.764h-30.905c51.375 0 93.022 41.648 93.022 93.022v26.107c0 9.448-7.659 17.107-17.107 17.107h30.905c9.448 0 17.107-7.659 17.107-17.107v-26.107c0-51.374-41.647-93.022-93.022-93.022z" fill="#ffd86e"/><path d="m225.095 311.745h61.811v100.509h-61.811z" fill="#ffd8ca"/><path d="m256 311.745h30.905v100.509h-30.905z" fill="#ffbead"/><path d="m225.095 351.546s-2.958 40.977 30.905 60.707c0 0-19.256 21.5-38.733 14.671-15.432-5.411-24.165-34.196-27.126-45.919-.747-2.955.441-6.056 2.964-7.767z" fill="#f5f2f4"/><path d="m286.905 351.546s2.958 40.977-30.905 60.707c0 0 19.256 21.5 38.733 14.671 15.432-5.411 24.165-34.196 27.126-45.919.747-2.955-.441-6.056-2.964-7.767z" fill="#f5f2f4"/><path d="m156.634 232.2v-67.614c0-54.878 44.487-99.366 99.366-99.366 54.878 0 99.366 44.487 99.366 99.366v67.24c0 54.981-44.571 99.553-99.553 99.553-54.775 0-99.179-44.404-99.179-99.179z" fill="#ffd8ca"/><path d="m256 65.221c-5.257 0-10.417.412-15.453 1.198 47.539 7.423 83.913 48.546 83.913 98.168v67.24c0 49.72-36.45 90.923-84.085 98.355 5.031.786 10.186 1.198 15.437 1.198 54.981 0 99.553-44.571 99.553-99.553v-67.24c.001-54.879-44.487-99.366-99.365-99.366z" fill="#ffbead"/><path d="m256 47.42c-152.388 0-109.463 131.539-106.178 138.6 3.087 6.647 6.812 24.734 6.812 24.734s21.17-17.011 20.487-23.503c-1.091-10.373-7.098-74.095 19.11-68.087 26.199 6.007 36.987 10.373 58.892 10.373s32.693-4.366 58.892-10.373c26.208-6.007 20.201 57.714 19.11 68.087-.683 6.492 22.24 23.562 22.24 23.562s1.971-18.145 5.058-24.792c4.886-10.501 47.965-138.601-104.423-138.601z" fill="#7b727b"/><path d="m386 144.225h-260c-5.392 0-9.763-4.371-9.763-9.763v-6.399c0-8.142 6.601-14.743 14.743-14.743h250.04c8.142 0 14.743 6.601 14.743 14.743v6.399c0 5.392-4.371 9.763-9.763 9.763z" fill="#f5f2f4"/><path d="m381.02 113.32h-30.905c8.142 0 14.743 6.601 14.743 14.743v6.399c0 5.392-4.371 9.763-9.763 9.763h30.905c5.392 0 9.763-4.371 9.763-9.763v-6.399c0-8.142-6.601-14.743-14.743-14.743z" fill="#e7e4e7"/><g><path d="m247.679 263.107c3.057.798 5.566 1.197 8.076 1.197s5.02-.399 8.076-1.197c4.007-1.047 6.408-5.145 5.361-9.152s-5.14-6.407-9.152-5.361c-3.604.941-4.966.941-8.571 0-4.009-1.047-8.105 1.354-9.152 5.362-1.046 4.008 1.355 8.105 5.362 9.151z" fill="#ffbead"/><path d="m238.394 171.054c1.046-4.008-1.354-8.104-5.362-9.151-11.642-3.039-18.739-3.039-30.381 0-4.008 1.047-6.409 5.144-5.362 9.151s5.146 6.412 9.151 5.362c9.164-2.393 13.639-2.393 22.803 0 .635.166 1.272.245 1.899.245 3.33 0 6.371-2.234 7.252-5.607z" fill="#7b727b"/><path d="m309.678 161.902c-11.641-3.039-18.74-3.039-30.381 0-4.008 1.047-6.408 5.144-5.362 9.151 1.047 4.008 5.147 6.411 9.151 5.362 9.164-2.393 13.639-2.393 22.803 0 .635.166 1.272.245 1.899.245 3.33 0 6.371-2.234 7.252-5.607 1.046-4.007-1.354-8.104-5.362-9.151z" fill="#7b727b"/><path d="m271.935 269.588c-9.727 5.415-21.813 5.414-31.542 0-3.619-2.014-8.187-.712-10.201 2.906-2.014 3.62-.713 8.187 2.907 10.201 7.114 3.959 15.089 5.938 23.065 5.938s15.951-1.979 23.065-5.938c3.619-2.015 4.92-6.581 2.906-10.201s-6.58-4.92-10.2-2.906z" fill="#ffbead"/><g fill="#7b727b"><path d="m212.896 203.823c-4.142 0-7.5 3.357-7.5 7.5v6.181c0 4.143 3.358 7.5 7.5 7.5s7.5-3.357 7.5-7.5v-6.181c0-4.142-3.357-7.5-7.5-7.5z"/><path d="m299.432 203.823c-4.143 0-7.5 3.357-7.5 7.5v6.181c0 4.143 3.357 7.5 7.5 7.5s7.5-3.357 7.5-7.5v-6.181c0-4.142-3.358-7.5-7.5-7.5z"/></g></g><g fill="#555055"><path d="m256 435.478c-4.142 0-7.5 3.357-7.5 7.5v4.121c0 4.143 3.358 7.5 7.5 7.5 4.143 0 7.5-3.357 7.5-7.5v-4.121c0-4.143-3.357-7.5-7.5-7.5z"/><path d="m256 467.81c-4.142 0-7.5 3.357-7.5 7.5v4.121c0 4.143 3.358 7.5 7.5 7.5 4.143 0 7.5-3.357 7.5-7.5v-4.121c0-4.143-3.357-7.5-7.5-7.5z"/></g><path d="m375.501 113.32h-239.002l4.458-40.43c4.574-41.487 39.63-72.89 81.368-72.89h67.349c41.739 0 76.794 31.403 81.369 72.89z" fill="#ff6167"/><path d="m371.043 72.89c-4.574-41.488-39.63-72.89-81.368-72.89h-30.905c41.739 0 76.794 31.402 81.369 72.89l4.458 40.43h30.905z" fill="#fe454a"/><path d="m286.39 84.99h-60.78c-9.388 0-16.998-7.61-16.998-16.998v-13.392c0-9.388 7.61-16.998 16.998-16.998h60.781c9.388 0 16.998 7.61 16.998 16.998v13.392c-.001 9.388-7.611 16.998-16.999 16.998z" fill="#ffe589"/><path d="m286.39 37.602h-30.905c9.388 0 16.998 7.61 16.998 16.998v13.392c0 9.388-7.61 16.998-16.998 16.998h30.905c9.388 0 16.998-7.61 16.998-16.998v-13.392c0-9.388-7.61-16.998-16.998-16.998z" fill="#ffd86e"/><g fill="#7b727b"><path d="m140.62 339.96h30.905v172.04h-30.905z"/><path d="m340.475 339.96h30.905v172.04h-30.905z"/></g></g></svg>