<svg id="Layer_1" enable-background="new 0 0 512 512" height="512" viewBox="0 0 512 512" width="512" xmlns="http://www.w3.org/2000/svg"><g><path d="m200.055 376.531h-149.776l-9.587-236.622h168.95z" fill="#f8f7f7"/><path d="m178.736 139.909-9.586 236.622h30.905l9.587-236.622z" fill="#efefef"/><path d="m461.721 376.531h-149.776l-9.587-236.622h168.95z" fill="#f8f7f7"/><path d="m440.402 139.909-9.586 236.622h30.905l9.587-236.622z" fill="#efefef"/><path d="m485.73 337.103v68.797c0 9.952-7.659 18.02-17.106 18.02h-157.401c-9.447 0-17.106-8.068-17.106-18.02 0-9.952-7.659-18.02-17.106-18.02h-42.021c-9.447 0-17.106 8.068-17.106 18.02 0 9.952-7.659 18.02-17.106 18.02h-157.402c-9.447 0-17.106-8.068-17.106-18.02v-68.797z" fill="#e49a6b"/><g fill="#e0925b"><path d="m186.978 405.9c0 9.952-7.659 18.02-17.106 18.02h30.905c9.447 0 17.106-8.068 17.106-18.02 0-9.952 7.659-18.02 17.106-18.02h-30.905c-9.447 0-17.106 8.068-17.106 18.02z"/><path d="m454.825 337.103v68.797c0 9.952-7.659 18.02-17.106 18.02h30.905c9.447 0 17.106-8.068 17.106-18.02v-68.797z"/></g><path d="m206.551 128.384h-162.768l3.64-22.783c1.626-10.177 8.919-17.521 17.401-17.521h120.687c8.481 0 15.775 7.344 17.401 17.521z" fill="#7b727b"/><path d="m202.911 105.601c-1.626-10.177-8.919-17.521-17.401-17.521h-30.905c8.482 0 15.775 7.344 17.401 17.521l3.64 22.783h30.905z" fill="#686169"/><path d="m468.217 128.384h-162.768l3.64-22.783c1.626-10.177 8.919-17.521 17.401-17.521h120.687c8.481 0 15.775 7.344 17.401 17.521z" fill="#7b727b"/><path d="m464.577 105.601c-1.626-10.177-8.919-17.521-17.401-17.521h-30.905c8.481 0 15.775 7.344 17.401 17.521l3.64 22.783h30.905z" fill="#686169"/><path d="m222.647 149.891h-194.96c-2.49 0-4.508-2.018-4.508-4.508v-13.868c0-5.782 4.687-10.469 10.469-10.469h183.037c5.782 0 10.469 4.687 10.469 10.469v13.868c.001 2.49-2.017 4.508-4.507 4.508z" fill="#686169"/><path d="m216.686 121.046h-30.906c5.782 0 10.469 4.687 10.469 10.469v13.868c0 2.49-2.018 4.508-4.508 4.508h30.905c2.49 0 4.508-2.018 4.508-4.508v-13.868c.001-5.782-4.686-10.469-10.468-10.469z" fill="#555055"/><path d="m484.313 149.891h-194.96c-2.49 0-4.508-2.018-4.508-4.508v-13.868c0-5.782 4.687-10.469 10.469-10.469h183.037c5.782 0 10.469 4.687 10.469 10.469v13.868c.001 2.49-2.017 4.508-4.507 4.508z" fill="#686169"/><path d="m478.352 121.046h-30.905c5.782 0 10.469 4.687 10.469 10.469v13.868c0 2.49-2.018 4.508-4.508 4.508h30.905c2.49 0 4.508-2.018 4.508-4.508v-13.868c0-5.782-4.687-10.469-10.469-10.469z" fill="#555055"/><path d="m493.457 341.505h-474.914c-10.241 0-18.543-8.302-18.543-18.543v-8.241c0-2.276 1.845-4.121 4.121-4.121h503.759c2.276 0 4.121 1.845 4.121 4.121v8.241c-.001 10.241-8.303 18.543-18.544 18.543z" fill="#e0925b"/><path d="m507.879 310.6h-30.905c2.276 0 4.121 1.845 4.121 4.121v8.241c0 10.241-8.302 18.543-18.543 18.543h30.905c10.241 0 18.543-8.302 18.543-18.543v-8.241c0-2.277-1.845-4.121-4.121-4.121z" fill="#d48145"/></g></svg>