<svg id="Layer_1" enable-background="new 0 0 512 512" height="512" viewBox="0 0 512 512" width="512" xmlns="http://www.w3.org/2000/svg"><g><path d="m500.695 125.528c-2.308-3.44-6.967-4.359-10.406-2.055l-195.87 131.268 98.114-118.904c2.636-3.195 2.184-7.922-1.012-10.559-3.192-2.635-7.921-2.183-10.559 1.012l-117.462 142.354v-137.581c0-4.143-3.357-7.5-7.5-7.5s-7.5 3.357-7.5 7.5v137.581l-117.463-142.354c-2.637-3.194-7.364-3.648-10.559-1.012-3.195 2.637-3.647 7.363-1.012 10.559l98.114 118.904-195.869-131.267c-3.441-2.307-8.099-1.386-10.406 2.055-2.306 3.441-1.386 8.1 2.055 10.406l238.438 159.795c.006.004.013.009.019.013l.007.005c.003.002.007.004.011.006.046.031.095.056.141.086.077.049.155.096.234.142.151.089.306.172.464.25.04.02.077.044.117.063.015.007.031.013.047.021.021.01.043.017.064.026.168.076.341.145.515.209.072.026.143.055.216.079.064.021.128.045.193.065.022.007.044.01.066.017.1.029.203.053.305.078.068.017.134.037.202.052.128.028.259.048.389.069.076.012.152.025.229.035.059.008.116.02.175.027.266.028.535.045.808.045s.542-.017.808-.045c.059-.006.116-.019.175-.027.077-.01.153-.023.229-.035.13-.021.261-.041.389-.069.068-.015.135-.035.202-.052.102-.025.204-.049.305-.078.022-.007.044-.01.066-.017.065-.02.129-.043.194-.065.073-.024.143-.052.215-.079.175-.064.347-.133.516-.209.021-.009.043-.016.064-.026.015-.007.031-.013.047-.021.04-.019.077-.043.116-.063.158-.078.312-.162.464-.25.079-.046.157-.093.234-.142.046-.03.096-.055.141-.086.003-.002.007-.004.011-.006l.007-.005c.006-.004.013-.009.019-.013l238.438-159.796c3.441-2.306 4.361-6.964 2.055-10.406z" fill="#7b727b"/><path d="m509.043 140.19c-7.827-5.42-24.846-13.02-58.875-13.02-37.548 0-54.395 9.24-61.018 14.61-1.203.98-2.69 1.41-4.156 1.3-1.163-.08-2.306-.52-3.266-1.3-4.5-3.65-13.733-9.09-30.974-12.2-8.12-1.46-18.02-2.41-30.044-2.41-38.296 0-55.062 9.62-61.392 14.94-1.911 1.6-4.723 1.6-6.634 0-6.33-5.32-23.097-14.94-61.392-14.94-37.548 0-54.395 9.24-61.018 14.61-.961.78-2.103 1.22-3.266 1.3-1.466.11-2.953-.32-4.156-1.3-6.624-5.37-23.471-14.61-61.018-14.61-34.018 0-51.048 7.59-58.864 13.02-1.557 1.07-3.56-.56-2.801-2.28 13.214-29.94 73.544-137.91 255.831-137.91s242.617 107.97 255.834 137.92c.759 1.71-1.244 3.34-2.791 2.27z" fill="#ff6167"/><g><path d="m256 0c-5.321 0-10.511.115-15.626.295 155.566 5.455 216.753 91.697 235.89 128.647 17.257 2.573 27.287 7.452 32.778 11.256 1.55 1.074 3.55-.562 2.793-2.277-13.213-29.937-73.535-137.921-255.835-137.921z" fill="#fe454a"/></g><path d="m384.994 143.08c-1.163-.08-2.306-.52-3.266-1.3-4.5-3.65-13.733-9.09-30.974-12.2-8.12-1.46-18.02-2.41-30.044-2.41-38.296 0-55.062 9.62-61.392 14.94-1.911 1.6-4.723 1.6-6.634 0-6.33-5.32-23.097-14.94-61.392-14.94-37.548 0-54.395 9.24-61.018 14.61-.961.78-2.103 1.22-3.266 1.3 3.638-19.23 30.82-143.08 128.992-143.08s125.354 123.85 128.994 143.08z" fill="#2fd9e7"/><g><path d="m384.994 143.08c-1.163-.08-2.306-.52-3.266-1.3-4.5-3.65-13.733-9.09-30.974-12.2-9.819-37-39.499-118.29-110.377-128.46 4.995-.72 10.192-1.12 15.623-1.12 98.171 0 125.354 123.85 128.994 143.08z" fill="#00d0e4"/></g><path d="m358.944 512h-205.888c-11.42 0-20.678-9.258-20.678-20.678v-191.465c0-11.42 9.258-20.678 20.678-20.678h205.888c11.42 0 20.678 9.258 20.678 20.678v191.465c0 11.42-9.258 20.678-20.678 20.678z" fill="#f8f7f7"/><path d="m358.944 279.179h-30.905c11.42 0 20.678 9.258 20.678 20.678v191.465c0 11.42-9.258 20.678-20.678 20.678h30.905c11.42 0 20.678-9.258 20.678-20.678v-191.465c0-11.42-9.258-20.678-20.678-20.678z" fill="#efefef"/><path d="m256 325.26c-4.143 0-7.5 3.357-7.5 7.5v15.991c0 4.143 3.357 7.5 7.5 7.5s7.5-3.357 7.5-7.5v-15.991c0-4.143-3.357-7.5-7.5-7.5z" fill="#afbbc6"/><path d="m317.527 453.829h-123.054c-3.9 0-7.402-2.387-8.828-6.017l-8.968-22.828h158.648l-8.968 22.828c-1.427 3.63-4.93 6.017-8.83 6.017z" fill="#7b727b"/><path d="m304.418 424.984-8.968 22.828c-1.426 3.63-4.928 6.017-8.828 6.017h30.905c3.9 0 7.402-2.387 8.828-6.017l8.968-22.828z" fill="#686169"/><path d="m323.992 424.984h-135.984v-8.242c0-37.551 30.441-67.992 67.992-67.992 37.551 0 67.992 30.441 67.992 67.992z" fill="#cfdbe4"/><g fill="#afbbc6"><path d="m256 348.751c-5.318 0-10.486.63-15.453 1.785 30.102 7 52.539 33.974 52.539 66.207v8.242h30.905v-8.242c.001-37.551-30.44-67.992-67.991-67.992z"/><path d="m334.293 417.484h-156.586c-4.143 0-7.5 3.357-7.5 7.5s3.357 7.5 7.5 7.5h156.586c4.143 0 7.5-3.357 7.5-7.5s-3.357-7.5-7.5-7.5z"/></g></g></svg>