<svg id="Layer_1" enable-background="new 0 0 512 512" height="512" viewBox="0 0 512 512" width="512" xmlns="http://www.w3.org/2000/svg"><g><path d="m366.229 512h-220.458c-22.758 0-41.207-18.449-41.207-41.207v-429.586c-.001-22.758 18.448-41.207 41.207-41.207h220.459c22.758 0 41.207 18.449 41.207 41.207v429.586c0 22.758-18.449 41.207-41.208 41.207z" fill="#7b727b"/><path d="m366.229 0h-30.905c22.758 0 41.207 18.449 41.207 41.207v429.586c0 22.758-18.449 41.207-41.207 41.207h30.905c22.758 0 41.207-18.449 41.207-41.207v-429.586c.001-22.758-18.449-41.207-41.207-41.207z" fill="#686169"/><path d="m380.652 41.207v429.586c0 7.965-6.457 14.423-14.423 14.423h-220.458c-7.965 0-14.423-6.457-14.423-14.423v-429.586c0-7.965 6.457-14.423 14.423-14.423h41.314c2.402 0 4.538 1.524 5.32 3.795l5.444 15.816c.782 2.271 2.918 3.795 5.32 3.795h105.664c2.402 0 4.538-1.524 5.32-3.795l5.444-15.816c.782-2.271 2.918-3.795 5.32-3.795h41.314c7.964.001 14.421 6.458 14.421 14.423z" fill="#d6faec"/><g><path d="m366.229 26.785h-30.905c7.965 0 14.423 6.457 14.423 14.423v429.586c0 7.965-6.457 14.423-14.423 14.423h30.905c7.965 0 14.423-6.457 14.423-14.423v-429.587c0-7.965-6.457-14.422-14.423-14.422z" fill="#ccfae8"/></g><path d="m256 145.481c-4.142 0-7.5 3.357-7.5 7.5v21.634c0 4.143 3.358 7.5 7.5 7.5s7.5-3.357 7.5-7.5v-21.634c0-4.142-3.358-7.5-7.5-7.5z" fill="#686169"/><path d="m275.573 152.982h-39.147c-7.965 0-14.423-6.457-14.423-14.423 0-7.965 6.457-14.423 14.423-14.423h39.147c7.965 0 14.423 6.457 14.423 14.423 0 7.966-6.457 14.423-14.423 14.423z" fill="#7b727b"/><path d="m275.573 124.137h-30.905c7.965 0 14.423 6.457 14.423 14.423s-6.457 14.423-14.423 14.423h30.905c7.965 0 14.423-6.457 14.423-14.423s-6.457-14.423-14.423-14.423z" fill="#686169"/><path d="m296.177 437.091h-80.354c-11.948 0-21.634-9.686-21.634-21.634 0-11.948 9.686-21.634 21.634-21.634h80.354c11.948 0 21.634 9.686 21.634 21.634 0 11.948-9.686 21.634-21.634 21.634z" fill="#ff6167"/><circle cx="256" cy="256" fill="#2fd9e7" r="81.384"/><path d="m256 167.115c-49.011 0-88.884 39.873-88.884 88.885s39.874 88.885 88.884 88.885 88.884-39.873 88.884-88.885-39.873-88.885-88.884-88.885zm0 162.77c-40.74 0-73.884-33.145-73.884-73.885s33.144-73.885 73.884-73.885 73.884 33.145 73.884 73.885-33.144 73.885-73.884 73.885z" fill="#7b727b"/><g><path d="m256 216.091c-4.142 0-7.5 3.357-7.5 7.5v32.409c0 4.143 3.358 7.5 7.5 7.5s7.5-3.357 7.5-7.5v-32.409c0-4.143-3.358-7.5-7.5-7.5z" fill="#ff6167"/><g fill="#f8f7f7"><path d="m256 188.875c-4.142 0-7.5 3.357-7.5 7.5v2.683c0 4.143 3.358 7.5 7.5 7.5s7.5-3.357 7.5-7.5v-2.683c0-4.143-3.358-7.5-7.5-7.5z"/><path d="m256 303.104c-4.142 0-7.5 3.357-7.5 7.5v2.684c0 4.143 3.358 7.5 7.5 7.5s7.5-3.357 7.5-7.5v-2.684c0-4.142-3.358-7.5-7.5-7.5z"/><path d="m295.438 222.894c1.919 0 3.839-.732 5.304-2.197l1.897-1.897c2.928-2.93 2.928-7.678-.001-10.606-2.929-2.93-7.677-2.929-10.607.001l-1.897 1.897c-2.928 2.93-2.928 7.678.001 10.606 1.465 1.464 3.384 2.196 5.303 2.196z"/><path d="m211.258 288.966-1.897 1.897c-2.928 2.93-2.928 7.678.001 10.606 1.464 1.465 3.383 2.196 5.303 2.196s3.839-.732 5.304-2.197l1.897-1.897c2.928-2.93 2.928-7.678-.001-10.606-2.929-2.93-7.677-2.928-10.607.001z"/><path d="m314.457 247.331h-2.683c-4.142 0-7.5 3.357-7.5 7.5s3.358 7.5 7.5 7.5h2.683c4.142 0 7.5-3.357 7.5-7.5s-3.358-7.5-7.5-7.5z"/><path d="m200.227 247.331h-2.683c-4.142 0-7.5 3.357-7.5 7.5s3.358 7.5 7.5 7.5h2.683c4.142 0 7.5-3.357 7.5-7.5s-3.358-7.5-7.5-7.5z"/><path d="m300.742 288.966c-2.929-2.929-7.678-2.93-10.607-.001s-2.93 7.677-.001 10.606l1.897 1.897c1.465 1.465 3.384 2.197 5.304 2.197 1.919 0 3.838-.732 5.303-2.196 2.929-2.929 2.93-7.677.001-10.606z"/><path d="m219.969 208.193c-2.929-2.929-7.678-2.93-10.607-.001s-2.93 7.677-.001 10.606l1.897 1.897c1.465 1.465 3.384 2.197 5.304 2.197 1.919 0 3.838-.732 5.303-2.196 2.929-2.929 2.93-7.677.001-10.606z"/></g></g></g></svg>