<svg id="Layer_1" enable-background="new 0 0 512 512" height="512" viewBox="0 0 512 512" width="512" xmlns="http://www.w3.org/2000/svg"><g><path d="m405.771 512h-299.542c-21.201 0-39.055-16.188-41.57-37.69l-16.756-143.292h416.193l-16.755 143.292c-2.515 21.502-20.369 37.69-41.57 37.69z" fill="#e7e7e7"/><path d="m433.191 331.018-16.756 143.292c-2.514 21.502-20.369 37.69-41.57 37.69h30.905c21.201 0 39.055-16.188 41.57-37.69l16.756-143.292z" fill="#d7d7d7"/><path d="m479.549 334.809h-447.098c-8.534 0-15.453-6.918-15.453-15.453 0-8.534 6.918-15.453 15.453-15.453h447.099c8.534 0 15.453 6.918 15.453 15.453-.001 8.534-6.919 15.453-15.454 15.453z" fill="#f8f7f7"/><path d="m479.549 303.903h-30.905c8.534 0 15.453 6.919 15.453 15.453s-6.918 15.453-15.453 15.453h30.905c8.534 0 15.453-6.918 15.453-15.453s-6.918-15.453-15.453-15.453z" fill="#efefef"/><g fill="#686169"><path d="m133.408 469.763c-8.534 0-15.453-6.918-15.453-15.453v-32.966c0-8.534 6.918-15.453 15.453-15.453 8.534 0 15.453 6.918 15.453 15.453v32.966c0 8.534-6.918 15.453-15.453 15.453z"/><path d="m194.704 469.763c-8.534 0-15.453-6.918-15.453-15.453v-32.966c0-8.534 6.918-15.453 15.453-15.453 8.534 0 15.453 6.918 15.453 15.453v32.966c0 8.534-6.918 15.453-15.453 15.453z"/><path d="m256 469.763c-8.534 0-15.453-6.918-15.453-15.453v-32.966c0-8.534 6.918-15.453 15.453-15.453 8.534 0 15.453 6.918 15.453 15.453v32.966c0 8.534-6.919 15.453-15.453 15.453z"/><path d="m317.296 469.763c-8.534 0-15.453-6.918-15.453-15.453v-32.966c0-8.534 6.918-15.453 15.453-15.453 8.534 0 15.453 6.918 15.453 15.453v32.966c0 8.534-6.919 15.453-15.453 15.453z"/><path d="m378.592 469.763c-8.534 0-15.453-6.918-15.453-15.453v-32.966c0-8.534 6.918-15.453 15.453-15.453 8.534 0 15.453 6.918 15.453 15.453v32.966c-.001 8.534-6.919 15.453-15.453 15.453z"/></g><path d="m372.175 104.251c-1.28-58.639-48.982-104.806-107.632-104.246-58.32.557-105.588 48.168-105.588 106.618 0 45.946 29.21 85.193 70.035 100.153 11.432 4.189 20.596 12.955 25.104 24.264l9.504 23.842c.813 2.041 3.706 2.03 4.504-.017l9.209-23.617c4.438-11.382 13.547-20.307 25.011-24.529 41.447-15.262 70.877-55.564 69.853-102.468z" fill="#7edbb0"/><path d="m372.175 104.251c-1.28-58.639-48.982-104.806-107.632-104.246-4.862.047-9.646.427-14.333 1.107 50.815 7.326 89.902 50.136 91.059 103.139 1.024 46.904-28.406 87.206-69.852 102.469-8.779 3.233-16.167 9.23-21.144 16.969 1.496 2.303 2.786 4.757 3.821 7.352l9.504 23.842c.813 2.041 3.706 2.03 4.504-.017l9.209-23.617c4.438-11.382 13.547-20.307 25.011-24.529 41.447-15.263 70.877-55.565 69.853-102.469z" fill="#51d39e"/><path d="m319.775 80.155-30.728-26.664c-3.129-2.715-7.866-2.379-10.58.75-2.715 3.128-2.379 7.865.749 10.58l15.557 13.499h-38.802c-20.691 0-37.525 16.833-37.525 37.524v29.617c0 4.143 3.358 7.5 7.5 7.5s7.5-3.357 7.5-7.5v-29.617c0-12.42 10.104-22.524 22.525-22.524h38.854l-15.618 13.599c-3.124 2.72-3.452 7.457-.731 10.581 1.483 1.703 3.565 2.575 5.659 2.575 1.747 0 3.501-.606 4.922-1.844l30.728-26.755c1.638-1.426 2.577-3.491 2.575-5.662-.003-2.171-.945-4.235-2.585-5.659z" fill="#f8f7f7"/><g fill="#ff6167"><path d="m182.985 375.629c-6.01 6.01-15.755 6.01-21.766 0l-156.711-156.712c-6.01-6.01-6.01-15.755 0-21.766 6.01-6.01 15.755-6.01 21.766 0l156.712 156.712c6.01 6.011 6.01 15.756-.001 21.766z"/><path d="m329.015 375.629c6.01 6.01 15.755 6.01 21.766 0l156.712-156.712c6.01-6.01 6.01-15.755 0-21.766-6.01-6.01-15.755-6.01-21.766 0l-156.712 156.712c-6.011 6.011-6.011 15.756 0 21.766z"/></g></g></svg>