<svg id="Layer_1" enable-background="new 0 0 512 512" height="512" viewBox="0 0 512 512" width="512" xmlns="http://www.w3.org/2000/svg"><g><path d="m444.008 188.416c0 168.56-168.88 323.584-188.008 323.584s-188.008-155.024-188.008-323.584c0-104.059 84.174-188.416 188.008-188.416s188.008 84.357 188.008 188.416z" fill="#ff6167"/><path d="m256 0c-5.204 0-10.356.222-15.453.637 96.604 7.877 172.555 88.935 172.555 187.779 0 145.495-125.819 280.899-172.555 315.232 7.409 5.443 12.836 8.352 15.453 8.352 19.128 0 188.008-155.024 188.008-323.584 0-104.059-84.174-188.416-188.008-188.416z" fill="#fe454a"/><circle cx="256" cy="188.416" fill="#f8f7f7" r="149.376"/><path d="m256 39.04c-5.217 0-10.372.271-15.453.796 75.133 7.757 133.924 71.431 133.924 148.58s-58.79 140.824-133.924 148.58c5.081.525 10.236.796 15.453.796 82.367 0 149.376-67.01 149.376-149.376s-67.009-149.376-149.376-149.376z" fill="#efefef"/><path d="m323.101 242.547h-134.202c-9.51 0-17.219-7.709-17.219-17.219v-13.568c0-1.907 1.546-3.452 3.452-3.452h161.735c1.907 0 3.452 1.546 3.452 3.452v13.568c.001 9.51-7.708 17.219-17.218 17.219z" fill="#e0925b"/><path d="m337.013 208.308h-30.905c1.826 0 3.307 1.614 3.307 3.604v12.658c0 9.928-7.384 17.977-16.493 17.977h30.905c9.109 0 16.493-8.049 16.493-17.977v-12.658c0-1.991-1.481-3.604-3.307-3.604z" fill="#d48145"/><path d="m337.017 185.538h-162.034c-1.869 0-3.364-1.609-3.306-3.559.458-15.223 7.212-74.091 84.323-74.091s83.865 58.868 84.323 74.091c.058 1.95-1.437 3.559-3.306 3.559z" fill="#e0925b"/><path d="m256 107.889c-5.506 0-10.641.309-15.453.872 62.578 7.321 68.445 59.082 68.87 73.218.059 1.95-1.437 3.559-3.306 3.559h30.905c1.869 0 3.364-1.609 3.306-3.559-.457-15.222-7.211-74.09-84.322-74.09z" fill="#d48145"/><path d="m335.817 211.134h-159.634c-7.965 0-14.423-6.457-14.423-14.423 0-7.965 6.457-14.423 14.423-14.423h159.635c7.965 0 14.423 6.457 14.423 14.423-.001 7.966-6.458 14.423-14.424 14.423z" fill="#e07f5d"/><path d="m335.817 182.289h-30.905c7.965 0 14.423 6.457 14.423 14.423 0 7.965-6.457 14.423-14.423 14.423h30.905c7.965 0 14.423-6.457 14.423-14.423s-6.457-14.423-14.423-14.423z" fill="#d06d4a"/></g></svg>