<svg id="Layer_1" enable-background="new 0 0 512 512" height="512" viewBox="0 0 512 512" width="512" xmlns="http://www.w3.org/2000/svg"><g><path d="m299.268 512h-220.459c-22.758 0-41.207-18.449-41.207-41.207v-429.586c0-22.758 18.449-41.207 41.207-41.207h220.459c22.758 0 41.207 18.449 41.207 41.207v429.586c0 22.758-18.449 41.207-41.207 41.207z" fill="#7b727b"/><path d="m299.268 0h-30.905c22.758 0 41.207 18.449 41.207 41.207v429.586c0 22.758-18.449 41.207-41.207 41.207h30.905c22.758 0 41.207-18.449 41.207-41.207v-429.586c0-22.758-18.449-41.207-41.207-41.207z" fill="#686169"/><path d="m313.69 41.207v429.586c0 7.965-6.457 14.423-14.423 14.423h-220.458c-7.965 0-14.423-6.457-14.423-14.423v-429.586c0-7.965 6.457-14.423 14.423-14.423h41.314c2.402 0 4.538 1.524 5.32 3.795l5.444 15.816c.782 2.271 2.918 3.795 5.32 3.795h105.663c2.402 0 4.538-1.524 5.32-3.795l5.444-15.816c.782-2.271 2.918-3.795 5.32-3.795h41.314c7.965.001 14.422 6.458 14.422 14.423z" fill="#d6faec"/><g><path d="m299.268 26.785h-30.905c7.965 0 14.423 6.457 14.423 14.423v429.586c0 7.965-6.457 14.423-14.423 14.423h30.905c7.965 0 14.423-6.457 14.423-14.423v-429.587c-.001-7.965-6.458-14.422-14.423-14.422z" fill="#ccfae8"/></g><path d="m432.678 111.811c-54.076-53.208-141.217-52.892-194.9.949-42.199 42.322-51.418 105.381-27.662 156.767 6.652 14.389 7.018 30.905.771 45.475l-13.168 30.717c-1.127 2.629 1.539 5.283 4.152 4.133l30.149-13.272c14.53-6.397 31.093-6.227 45.5.444 52.084 24.118 116.13 14.104 158.268-30.045 52.68-55.193 51.271-141.66-3.11-195.168z" fill="#f8f7f7"/><g><path d="m431.705 111.811c-30.818-30.323-72.374-43.253-112.357-38.808 29.744 3.317 58.615 16.249 81.542 38.808 54.381 53.508 55.79 139.975 3.109 195.168-23.394 24.51-53.542 38.482-84.645 41.95 41.344 4.595 84.366-9.372 115.461-41.95 52.68-55.193 51.271-141.66-3.11-195.168z" fill="#efefef"/></g><path d="m229.215 418.769h-80.354c-11.948 0-21.634-9.686-21.634-21.634 0-11.948 9.686-21.634 21.634-21.634h80.354c11.948 0 21.634 9.686 21.634 21.634 0 11.948-9.686 21.634-21.634 21.634z" fill="#ff6167"/><path d="m336.382 124.252c-4.143 0-7.5 3.357-7.5 7.5v15.991c0 4.143 3.357 7.5 7.5 7.5s7.5-3.357 7.5-7.5v-15.991c0-4.143-3.358-7.5-7.5-7.5z" fill="#afbbc6"/><path d="m397.909 252.822h-123.055c-3.9 0-7.402-2.387-8.828-6.017l-8.968-22.828h158.648l-8.968 22.828c-1.427 3.63-4.929 6.017-8.829 6.017z" fill="#7b727b"/><path d="m384.8 223.977-8.968 22.828c-1.426 3.63-4.928 6.017-8.828 6.017h30.905c3.9 0 7.402-2.387 8.828-6.017l8.968-22.828z" fill="#686169"/><path d="m404.373 223.977h-135.983v-8.242c0-37.551 30.441-67.992 67.992-67.992 37.551 0 67.992 30.441 67.992 67.992v8.242z" fill="#cfdbe4"/><g fill="#afbbc6"><path d="m336.382 147.744c-5.318 0-10.486.63-15.453 1.785 30.103 7 52.539 33.974 52.539 66.207v8.242h30.905v-8.242c0-37.551-30.441-67.992-67.991-67.992z"/><path d="m417.154 216.477h-161.545c-4.143 0-7.5 3.357-7.5 7.5s3.357 7.5 7.5 7.5h161.545c4.143 0 7.5-3.357 7.5-7.5s-3.357-7.5-7.5-7.5z"/></g></g></svg>