<svg id="Layer_1" enable-background="new 0 0 512 512" height="512" viewBox="0 0 512 512" width="512" xmlns="http://www.w3.org/2000/svg"><g><path d="m444.008 188.416c0 168.56-168.88 323.584-188.008 323.584s-188.008-155.024-188.008-323.584c0-104.059 84.174-188.416 188.008-188.416s188.008 84.357 188.008 188.416z" fill="#ff6167"/><path d="m256 0c-5.204 0-10.356.222-15.453.637 96.604 7.877 172.555 88.935 172.555 187.779 0 145.495-125.819 280.899-172.555 315.232 7.409 5.443 12.836 8.352 15.453 8.352 19.128 0 188.008-155.024 188.008-323.584 0-104.059-84.174-188.416-188.008-188.416z" fill="#fe454a"/><circle cx="256" cy="188.416" fill="#f8f7f7" r="149.376"/><path d="m256 39.04c-5.217 0-10.372.271-15.453.796 75.133 7.757 133.924 71.431 133.924 148.58s-58.79 140.824-133.924 148.58c5.081.525 10.236.796 15.453.796 82.367 0 149.376-67.01 149.376-149.376s-67.009-149.376-149.376-149.376z" fill="#efefef"/><path d="m313.294 171.938h-16.807c-4.143 0-7.5 3.357-7.5 7.5s3.357 7.5 7.5 7.5h16.807c5.769 0 10.462 4.693 10.462 10.463 0 5.769-4.693 10.462-10.462 10.462h-16.807c-4.143 0-7.5 3.357-7.5 7.5s3.357 7.5 7.5 7.5h16.807c14.04 0 25.462-11.422 25.462-25.462s-11.422-25.463-25.462-25.463z" fill="#afbbc6"/><path d="m270.659 261.283h-29.318c-18.645 0-33.759-15.115-33.759-33.759v-59.078c0-2.209 1.791-4 4-4h88.837c2.209 0 4 1.791 4 4v59.078c0 18.644-15.115 33.759-33.76 33.759z" fill="#cfdbe4"/><path d="m273.513 164.446v63.078c0 18.379-14.689 33.316-32.966 33.739.265.006.527.02.794.02h29.318c18.645 0 33.759-15.115 33.759-33.759v-59.078c0-2.209-1.791-4-4-4z" fill="#afbbc6"/><path d="m291.462 278.196h-70.924c-10.997 0-21.102-5.961-26.295-15.512l-4.839-8.899c-1.091-2.006.384-4.433 2.694-4.433h127.803c2.31 0 3.785 2.427 2.694 4.433l-4.839 8.899c-5.192 9.55-15.297 15.512-26.294 15.512z" fill="#7b727b"/><path d="m319.901 249.351h-30.905c2.31 0 3.785 2.427 2.694 4.433l-4.839 8.899c-5.193 9.551-15.298 15.512-26.295 15.512h30.905c10.997 0 21.102-5.961 26.294-15.512l4.839-8.899c1.092-2.006-.383-4.433-2.693-4.433z" fill="#686169"/><g fill="#afbbc6"><path d="m254.516 81.712c0-4.143-3.357-7.5-7.5-7.5-3.97 0-7.22 3.085-7.482 6.988-.994.957-4.077 2.388-5.976 3.269-5.832 2.707-14.646 6.797-14.646 16.365s8.812 13.659 14.645 16.365c1.584.735 3.993 1.854 5.325 2.76-1.332.907-3.741 2.025-5.326 2.761-5.831 2.706-14.644 6.797-14.644 16.365 0 4.143 3.357 7.5 7.5 7.5 3.971 0 7.221-3.085 7.482-6.989.993-.957 4.077-2.389 5.977-3.271 5.832-2.706 14.645-6.797 14.645-16.366 0-9.568-8.812-13.659-14.645-16.365-1.584-.735-3.992-1.854-5.324-2.76 1.332-.906 3.74-2.023 5.324-2.759 5.832-2.706 14.645-6.795 14.645-16.363z"/><path d="m285.942 103.594c-1.584-.735-3.993-1.854-5.324-2.76 1.332-.906 3.74-2.023 5.324-2.759 5.831-2.706 14.645-6.795 14.645-16.363 0-4.143-3.357-7.5-7.5-7.5-3.97 0-7.22 3.085-7.482 6.988-.994.957-4.077 2.388-5.977 3.269-5.832 2.707-14.646 6.797-14.646 16.365 0 9.569 8.813 13.659 14.645 16.365 1.585.735 3.994 1.854 5.325 2.76-1.331.907-3.741 2.025-5.325 2.761-5.832 2.706-14.645 6.797-14.645 16.365 0 4.143 3.357 7.5 7.5 7.5 3.971 0 7.221-3.085 7.482-6.989.993-.957 4.078-2.389 5.977-3.271 5.832-2.706 14.646-6.797 14.646-16.366s-8.814-13.659-14.645-16.365z"/></g></g></svg>