<svg id="Layer_1" enable-background="new 0 0 512 512" height="512" viewBox="0 0 512 512" width="512" xmlns="http://www.w3.org/2000/svg"><g><path d="m425.564 125.719-2.331-18.665c-1.579-12.644-9.774-23.71-21.401-28.913l-15.111-7.293c-3.732-1.8-8.213-.235-10.014 3.495-1.8 3.73-.236 8.214 3.495 10.015l15.214 7.343c.073.035.147.069.221.102 6.905 3.061 11.776 9.617 12.711 17.111l2.331 18.665c.474 3.795 3.705 6.571 7.433 6.571.31 0 .624-.02.939-.059 4.11-.514 7.026-4.262 6.513-8.372z" fill="#686169"/><path d="m261.666 512h-220.459c-22.758 0-41.207-18.449-41.207-41.207v-429.586c0-22.758 18.449-41.207 41.207-41.207h220.459c22.758 0 41.207 18.449 41.207 41.207v429.586c0 22.758-18.449 41.207-41.207 41.207z" fill="#7b727b"/><path d="m261.666 0h-30.905c22.758 0 41.207 18.449 41.207 41.207v429.586c0 22.758-18.449 41.207-41.207 41.207h30.905c22.758 0 41.207-18.449 41.207-41.207v-429.586c0-22.758-18.449-41.207-41.207-41.207z" fill="#686169"/><path d="m276.089 41.207v429.586c0 7.965-6.457 14.423-14.423 14.423h-220.459c-7.965 0-14.423-6.457-14.423-14.423v-429.586c0-7.965 6.457-14.423 14.423-14.423h41.314c2.402 0 4.538 1.524 5.32 3.795l5.444 15.816c.782 2.271 2.918 3.795 5.32 3.795h105.664c2.402 0 4.538-1.524 5.32-3.795l5.444-15.816c.782-2.271 2.918-3.795 5.32-3.795h41.314c7.964.001 14.422 6.458 14.422 14.423z" fill="#d6faec"/><g><path d="m261.666 26.785h-30.905c7.965 0 14.423 6.457 14.423 14.423v429.586c0 7.965-6.457 14.423-14.423 14.423h30.905c7.965 0 14.423-6.457 14.423-14.423v-429.587c0-7.965-6.458-14.422-14.423-14.422z" fill="#ccfae8"/></g><path d="m127.059 266.421v22.862c0 2.766 2.24 5.009 5.003 5.009h292.524s17.087-27.765 17.087-65.93-17.087-71.179-17.087-71.179h-29.593v95.381s-44.475 1.45-54.253 1.45c-13.113 0-27.877-10.642-27.877-23.77v-24.893c0-12.669-10.259-22.939-22.913-22.939h-78.933c-46.37.001-83.958 37.613-83.958 84.009z" fill="#ff6167"/><g fill="#fe454a"><path d="m281.956 205.352v24.893c0 13.128 14.764 23.77 27.877 23.77 4.199 0 14.797-.267 25.523-.572-11.462-2.364-22.495-11.849-22.495-23.198v-24.893c0-12.669-10.259-22.939-22.913-22.939h-30.905c12.655-.001 22.913 10.27 22.913 22.939z"/><path d="m424.586 157.184h-29.593v2.725c3.993 8.624 15.775 36.752 15.775 68.454 0 38.165-17.087 65.93-17.087 65.93h30.905s17.087-27.765 17.087-65.93-17.087-71.179-17.087-71.179z"/></g><circle cx="210.283" cy="295.961" fill="#7b727b" r="54.203"/><circle cx="439.489" cy="295.961" fill="#7b727b" r="54.203"/><circle cx="439.489" cy="295.961" fill="#efefef" r="18.563"/><circle cx="210.283" cy="295.961" fill="#efefef" r="18.563"/><path d="m140.625 294.293h139.315c1.899 0 3.429-1.587 3.34-3.485-1.818-38.771-33.806-69.647-72.998-69.647s-71.18 30.877-72.998 69.647c-.088 1.898 1.442 3.485 3.341 3.485z" fill="#2fd9e7"/><path d="m210.283 221.16c-5.304 0-10.469.583-15.453 1.658 31.838 6.862 55.973 34.466 57.545 67.989.089 1.899-1.441 3.485-3.34 3.485h30.905c1.899 0 3.429-1.587 3.34-3.485-1.818-38.77-33.806-69.647-72.997-69.647z" fill="#00d0e4"/><path d="m180.681 294.27h59.203c0-16.35-13.251-29.601-29.601-29.601s-29.602 13.25-29.602 29.601z" fill="#ffe589"/><path d="m186.669 182.539h113.32c8.534 0 15.453-6.918 15.453-15.453 0-8.534-6.918-15.453-15.453-15.453h-113.32c-8.534 0-15.453 6.918-15.453 15.453 0 8.535 6.919 15.453 15.453 15.453z" fill="#7b727b"/><path d="m299.989 151.634h-30.905c8.534 0 15.453 6.919 15.453 15.453 0 8.534-6.918 15.453-15.453 15.453h30.905c8.534 0 15.453-6.919 15.453-15.453 0-8.535-6.919-15.453-15.453-15.453z" fill="#686169"/><path d="m369.411 294.293h139.246c1.898 0 3.428-1.587 3.339-3.485-1.817-38.771-33.789-69.647-72.962-69.647s-71.145 30.877-72.962 69.647c-.088 1.898 1.441 3.485 3.339 3.485z" fill="#2fd9e7"/><path d="m439.034 221.16c-5.304 0-10.47.585-15.453 1.659 31.819 6.865 55.938 34.467 57.509 67.988.089 1.899-1.44 3.485-3.339 3.485h30.905c1.898 0 3.428-1.587 3.339-3.485-1.816-38.77-33.788-69.647-72.961-69.647z" fill="#00d0e4"/><path d="m409.938 294.27h59.174c0-16.35-13.244-29.601-29.587-29.601s-29.587 13.25-29.587 29.601z" fill="#ffe589"/><path d="m394.028 157.184h67.604c4.32 0 7.823-3.502 7.823-7.823v-18.906c0-4.32-3.502-7.823-7.823-7.823h-43.51c-13.307 0-24.094 10.787-24.094 24.094z" fill="#2fd9e7"/><path d="m441.673 157.184h19.96c4.319 0 7.821-3.502 7.821-7.821v-18.906c0-4.321-3.503-7.824-7.824-7.824h-19.957z" fill="#ffe589"/><path d="m411.769 149.684h-38.826c-4.142 0-7.5 3.357-7.5 7.5s3.358 7.5 7.5 7.5h38.826c4.142 0 7.5-3.357 7.5-7.5s-3.358-7.5-7.5-7.5z" fill="#686169"/><circle cx="374.488" cy="77.603" fill="#2fd9e7" r="16.678"/><path d="m210.765 408.112-20.872-21.885c-2.858-2.998-7.605-3.109-10.604-.252-2.998 2.859-3.11 7.606-.251 10.604l8.783 9.21h-81c-4.142 0-7.5 3.357-7.5 7.5s3.358 7.5 7.5 7.5h80.759l-8.493 8.733c-2.888 2.97-2.821 7.718.148 10.605 1.458 1.417 3.344 2.123 5.229 2.123 1.954 0 3.907-.76 5.377-2.271l20.872-21.463c2.812-2.89 2.835-7.486.052-10.404z" fill="#7b727b"/></g></svg>