<svg id="Layer_1" enable-background="new 0 0 512 512" height="512" viewBox="0 0 512 512" width="512" xmlns="http://www.w3.org/2000/svg"><g><path d="m347.58 490.168c-34.55-26.459-36.603-79.958-36.603-79.958h-109.943s-2.053 53.498-36.608 79.958z" fill="#d7d7d7"/><path d="m512 369.116v-257.757c0-19.968-16.187-36.155-36.155-36.155h-439.69c-19.968-.001-36.155 16.186-36.155 36.155v257.758h512z" fill="#7b727b"/><path d="m481.095 111.359v257.758h30.905v-257.758c0-19.968-16.187-36.155-36.155-36.155h-30.905c19.967-.001 36.155 16.186 36.155 36.155z" fill="#686169"/><path d="m30.905 362.624v-252.515c0-2.209 1.791-4 4-4h442.189c2.209 0 4 1.791 4 4v252.515z" fill="#d6faec"/><path d="m450.189 106.109v256.515h30.905v-252.515c0-2.209-1.791-4-4-4z" fill="#ccfae8"/><path d="m475.845 418.254h-439.69c-19.968 0-36.155-16.188-36.155-36.156v-19.474h512v19.474c0 19.968-16.187 36.156-36.155 36.156z" fill="#f8f7f7"/><path d="m481.095 362.624v19.474c0 19.968-16.187 36.155-36.155 36.155h30.905c19.968 0 36.155-16.187 36.155-36.155v-19.474z" fill="#efefef"/><path d="m381.445 512h-250.89c-3.545 0-6.418-2.873-6.418-6.418 0-12.955 10.502-23.457 23.457-23.457h216.812c12.955 0 23.457 10.502 23.457 23.457 0 3.545-2.873 6.418-6.418 6.418z" fill="#f8f7f7"/><path d="m364.406 482.125h-30.906c12.955 0 23.457 10.502 23.457 23.457 0 3.545-2.873 6.418-6.418 6.418h30.905c3.545 0 6.418-2.873 6.418-6.418.001-12.955-10.501-23.457-23.456-23.457z" fill="#efefef"/><path d="m456.131 96.812c0 86.61-86.774 166.264-96.603 166.264s-96.603-79.655-96.603-166.264c.001-53.468 43.251-96.812 96.603-96.812s96.603 43.344 96.603 96.812z" fill="#ff6167"/><path d="m359.528 0c-5.26 0-10.421.428-15.453 1.238 46.006 7.413 81.15 47.378 81.15 95.573 0 67.936-53.384 131.585-81.15 155.877 7.632 6.677 13.334 10.388 15.453 10.388 9.829 0 96.602-79.655 96.602-166.265.001-53.467-43.25-96.811-96.602-96.811z" fill="#fe454a"/><path d="m481.095 286.957v41.207h-450.19v-41.207h63.563v-180.848h41.207v180.848z" fill="#2fd9e7"/><g><path d="m450.189 286.957h30.905v41.207h-30.905z" fill="#00d0e4"/></g><path d="m359.528 32.568c-4.142 0-7.5 3.357-7.5 7.5v11.955c0 4.143 3.358 7.5 7.5 7.5s7.5-3.357 7.5-7.5v-11.955c0-4.142-3.358-7.5-7.5-7.5z" fill="#afbbc6"/><path d="m406.225 137.935h-93.394c-2.96 0-5.618-2.393-6.7-6.032l-6.807-22.886h120.408l-6.807 22.886c-1.082 3.639-3.74 6.032-6.7 6.032z" fill="#7b727b"/><path d="m388.827 109.017-6.807 22.886c-1.082 3.639-3.741 6.032-6.7 6.032h30.905c2.96 0 5.618-2.393 6.7-6.032l6.807-22.886z" fill="#686169"/><path d="m410.233 109.018h-101.41v-6.289c0-28.003 22.701-50.705 50.705-50.705 28.003 0 50.705 22.701 50.705 50.705z" fill="#cfdbe4"/><g fill="#afbbc6"><path d="m359.528 52.024c-5.39 0-10.58.851-15.453 2.412 20.445 6.553 35.252 25.749 35.252 48.42v6.162h30.905v-6.162c.001-28.074-22.7-50.832-50.704-50.832z"/><path d="m423.308 101.518h-127.559c-4.142 0-7.5 3.357-7.5 7.5s3.358 7.5 7.5 7.5h127.559c4.142 0 7.5-3.357 7.5-7.5s-3.358-7.5-7.5-7.5z"/></g></g></svg>