<svg id="Layer_1" enable-background="new 0 0 512 512" height="512" viewBox="0 0 512 512" width="512" xmlns="http://www.w3.org/2000/svg"><g><path d="m444.008 188.416c0 168.56-168.88 323.584-188.008 323.584s-188.008-155.024-188.008-323.584c0-104.059 84.174-188.416 188.008-188.416s188.008 84.357 188.008 188.416z" fill="#ff6167"/><path d="m256 0c-5.204 0-10.356.222-15.453.637 96.604 7.877 172.555 88.935 172.555 187.779 0 145.495-125.819 280.899-172.555 315.232 7.409 5.443 12.836 8.352 15.453 8.352 19.128 0 188.008-155.024 188.008-323.584 0-104.059-84.174-188.416-188.008-188.416z" fill="#fe454a"/><circle cx="256" cy="188.416" fill="#f8f7f7" r="149.376"/><path d="m256 39.04c-5.217 0-10.372.271-15.453.796 75.133 7.757 133.924 71.431 133.924 148.58s-58.79 140.824-133.924 148.58c5.081.525 10.236.796 15.453.796 82.367 0 149.376-67.01 149.376-149.376s-67.009-149.376-149.376-149.376z" fill="#efefef"/><path d="m301.46 99.635v178.774c0 4.329-5.234 6.497-8.295 3.436l-126.403-126.419c-2.421-2.421-2.376-6.376.12-8.719 33.779-31.696 78.755-51.605 128.348-53.148 3.414-.107 6.23 2.661 6.23 6.076z" fill="#e49a6b"/><path d="m295.23 93.558c-8.768.273-17.387 1.131-25.83 2.516.723 1.002 1.155 2.231 1.155 3.561v159.596l22.611 22.613c3.061 3.061 8.295.893 8.295-3.436v-178.773c-.001-3.415-2.817-6.183-6.231-6.077z" fill="#e0925b"/><path d="m301.46 131.702v-32.067c0-3.415-2.816-6.183-6.23-6.077-49.594 1.544-94.569 21.452-128.348 53.149-2.497 2.343-2.541 6.298-.12 8.719l21.285 21.287c31.146-25.9 70.413-42.361 113.413-45.011z" fill="#e0925b"/><g><path d="m295.23 93.558c-8.768.273-17.387 1.131-25.83 2.516.723 1.003 1.154 2.231 1.154 3.561v36.451c10.035-2.248 20.357-3.734 30.905-4.384v-32.067c.001-3.415-2.815-6.183-6.229-6.077z" fill="#d48145"/></g><g fill="#d64239"><circle cx="229.989" cy="212.442" r="17.513"/><circle cx="298.139" cy="232.068" r="17.513"/><circle cx="273.513" cy="172.955" r="17.513"/></g></g></svg>