<svg id="Layer_1" enable-background="new 0 0 512 512" height="512" viewBox="0 0 512 512" width="512" xmlns="http://www.w3.org/2000/svg"><g><path d="m284.845 512h-220.459c-22.758 0-41.207-18.449-41.207-41.207v-429.586c0-22.758 18.449-41.207 41.207-41.207h220.459c22.758 0 41.207 18.449 41.207 41.207v429.586c0 22.758-18.449 41.207-41.207 41.207z" fill="#7b727b"/><path d="m284.845 0h-30.905c22.758 0 41.207 18.449 41.207 41.207v429.586c0 22.758-18.449 41.207-41.207 41.207h30.905c22.758 0 41.207-18.449 41.207-41.207v-429.586c0-22.758-18.449-41.207-41.207-41.207z" fill="#686169"/><path d="m299.268 41.207v429.586c0 7.965-6.457 14.423-14.423 14.423h-220.459c-7.965 0-14.423-6.457-14.423-14.423v-429.586c0-7.965 6.457-14.423 14.423-14.423h41.314c2.402 0 4.538 1.524 5.32 3.795l5.444 15.816c.782 2.271 2.918 3.795 5.32 3.795h105.664c2.402 0 4.538-1.524 5.32-3.795l5.444-15.816c.782-2.271 2.918-3.795 5.32-3.795h41.314c7.964.001 14.422 6.458 14.422 14.423z" fill="#d6faec"/><g><path d="m284.845 26.785h-30.905c7.965 0 14.423 6.457 14.423 14.423v429.586c0 7.965-6.457 14.423-14.423 14.423h30.905c7.965 0 14.423-6.457 14.423-14.423v-429.587c0-7.965-6.458-14.422-14.423-14.422z" fill="#ccfae8"/></g><path d="m214.793 418.769h-80.354c-11.948 0-21.634-9.686-21.634-21.634s9.686-21.634 21.634-21.634h80.354c11.948 0 21.634 9.686 21.634 21.634s-9.686 21.634-21.634 21.634z" fill="#2fd9e7"/><path d="m468.598 329.143h-355.144c-11.169 0-20.223-9.054-20.223-20.223v-206.798c0-11.169 9.054-20.223 20.223-20.223h355.143c11.169 0 20.223 9.054 20.223 20.223v206.798c.001 11.169-9.053 20.223-20.222 20.223z" fill="#2fd9e7"/><path d="m468.598 81.899h-30.905c11.169 0 20.223 9.054 20.223 20.223v206.798c0 11.169-9.054 20.223-20.223 20.223h30.905c11.169 0 20.223-9.054 20.223-20.223v-206.798c0-11.168-9.054-20.223-20.223-20.223z" fill="#00d0e4"/><g fill="#f8f7f7"><path d="m384.571 232.459c-.025-.067-.052-.135-.079-.202-1.37-3.333-4.582-5.486-8.186-5.486h-.004c-3.605.001-6.819 2.158-8.187 5.494-.023.058-.047.116-.069.176l-22.374 58.746c-1.475 3.87.469 8.203 4.34 9.678.878.335 1.78.493 2.668.493 3.021 0 5.87-1.84 7.01-4.833l3.732-9.8h25.595l3.691 9.779c1.462 3.875 5.79 5.832 9.665 4.368 3.875-1.462 5.831-5.789 4.368-9.665zm-15.435 39.266 7.144-18.756 7.078 18.756z"/><path d="m451.185 228.136c-3.471-2.261-8.118-1.277-10.377 2.193l-12.601 19.357-12.744-19.517c-2.265-3.469-6.913-4.443-10.38-2.179-3.468 2.265-4.444 6.911-2.18 10.38l17.808 27.271-.07 28.195c-.01 4.143 3.34 7.509 7.481 7.519h.019c4.134 0 7.49-3.346 7.5-7.481l.07-28.221 17.667-27.14c2.26-3.472 1.278-8.118-2.193-10.377z"/><path d="m326.079 226.771h-16.591c-1.993 0-3.904.794-5.312 2.205-1.407 1.412-2.195 3.326-2.188 5.319v59.561c0 4.143 3.357 7.5 7.5 7.5s7.5-3.357 7.5-7.5v-18.422c3.324-.017 6.976-.033 9.091-.033 13.589 0 24.645-10.908 24.645-24.315s-11.056-24.315-24.645-24.315zm0 33.629c-2.101 0-5.707.016-9.016.032-.018-3.424-.033-7.188-.033-9.348 0-1.831-.01-5.729-.02-9.314h9.068c5.228 0 9.645 4.266 9.645 9.314.001 5.051-4.416 9.316-9.644 9.316z"/></g><path d="m209.642 175.646h-63.871c-3.414 0-6.181-2.767-6.181-6.181v-41.207c0-3.414 2.767-6.181 6.181-6.181h63.871c3.414 0 6.181 2.767 6.181 6.181v41.207c0 3.414-2.767 6.181-6.181 6.181z" fill="#ffe589"/><path d="m183.887 290.847h-90.656v-53.569h90.656c14.793 0 26.785 11.992 26.785 26.785 0 14.792-11.992 26.784-26.785 26.784z" fill="#ff6167"/><g fill="#f8f7f7"><path d="m282.171 133.191c-4.143 0-7.5 3.357-7.5 7.5v12.362c0 4.143 3.357 7.5 7.5 7.5s7.5-3.357 7.5-7.5v-12.362c0-4.142-3.358-7.5-7.5-7.5z"/><path d="m409.606 133.191c-4.143 0-7.5 3.357-7.5 7.5v12.362c0 4.143 3.357 7.5 7.5 7.5s7.5-3.357 7.5-7.5v-12.362c0-4.142-3.357-7.5-7.5-7.5z"/><path d="m437.148 133.191c-4.143 0-7.5 3.357-7.5 7.5v12.362c0 4.143 3.357 7.5 7.5 7.5s7.5-3.357 7.5-7.5v-12.362c0-4.142-3.357-7.5-7.5-7.5z"/><path d="m322.161 133.191c-4.143 0-7.5 3.357-7.5 7.5v12.362c0 4.143 3.357 7.5 7.5 7.5s7.5-3.357 7.5-7.5v-12.362c0-4.142-3.357-7.5-7.5-7.5z"/><path d="m351.353 133.191c-4.143 0-7.5 3.357-7.5 7.5v12.362c0 4.143 3.357 7.5 7.5 7.5s7.5-3.357 7.5-7.5v-12.362c0-4.142-3.358-7.5-7.5-7.5z"/></g></g></svg>