<svg id="Layer_1" enable-background="new 0 0 512 512" height="512" viewBox="0 0 512 512" width="512" xmlns="http://www.w3.org/2000/svg"><g><path d="m468.163 471.622h-337.062c-4.143 0-7.5 3.357-7.5 7.5s3.357 7.5 7.5 7.5h337.062c4.143 0 7.5-3.357 7.5-7.5s-3.357-7.5-7.5-7.5z" fill="#afbbc6"/><circle cx="116.878" cy="479.122" fill="#686169" r="32.878"/><circle cx="479.122" cy="479.122" fill="#686169" r="32.878"/><g fill="#afbbc6"><path d="m167.924 381.82c-3.667-1.922-8.201-.512-10.126 3.157l-47.562 90.66c-1.924 3.668-.511 8.201 3.157 10.126 1.112.583 2.304.86 3.479.86 2.698 0 5.307-1.462 6.647-4.018l47.562-90.66c1.924-3.667.511-8.2-3.157-10.125z"/><path d="m485.88 475.869-43.646-90.66c-1.798-3.733-6.284-5.301-10.011-3.505-3.732 1.797-5.302 6.279-3.505 10.011l43.646 90.66c1.292 2.684 3.972 4.249 6.763 4.249 1.092 0 2.2-.239 3.248-.744 3.732-1.797 5.302-6.279 3.505-10.011z"/></g><path d="m117.355 170.429-4.313-30.962c-2.771-19.895-20.008-34.896-40.094-34.896h-47.435c-4.143 0-7.5 3.357-7.5 7.5s3.357 7.5 7.5 7.5h47.436c12.643 0 23.492 9.443 25.236 21.967l4.313 30.962c.523 3.751 3.736 6.466 7.419 6.466.345 0 .693-.023 1.045-.072 4.102-.574 6.965-4.363 6.393-8.465z" fill="#afbbc6"/><path d="m465.449 216.338h-113.32v-178.05c0-21.146 17.143-38.288 38.289-38.288h36.743c21.146 0 38.288 17.142 38.288 38.288z" fill="#e07f5d"/><path d="m427.161 0h-30.905c21.146 0 38.288 17.142 38.288 38.288v178.05h30.905v-178.05c0-21.146-17.142-38.288-38.288-38.288z" fill="#d06d4a"/><path d="m312.66 216.338h-113.32v-178.05c0-21.146 17.142-38.288 38.288-38.288h36.743c21.146 0 38.288 17.142 38.288 38.288v178.05z" fill="#e07f5d"/><path d="m274.372 0h-30.905c21.146 0 38.288 17.142 38.288 38.288v178.05h30.905v-178.05c0-21.146-17.142-38.288-38.288-38.288z" fill="#d06d4a"/><g fill="#eba592"><path d="m379.944 43.983h57.69c4.143 0 7.5-3.357 7.5-7.5s-3.357-7.5-7.5-7.5h-57.69c-4.143 0-7.5 3.357-7.5 7.5s3.358 7.5 7.5 7.5z"/><path d="m437.635 57.715h-57.69c-4.143 0-7.5 3.357-7.5 7.5s3.357 7.5 7.5 7.5h57.69c4.143 0 7.5-3.357 7.5-7.5s-3.358-7.5-7.5-7.5z"/><path d="m437.635 86.447h-57.69c-4.143 0-7.5 3.357-7.5 7.5s3.357 7.5 7.5 7.5h57.69c4.143 0 7.5-3.357 7.5-7.5s-3.358-7.5-7.5-7.5z"/><path d="m284.845 28.983h-57.689c-4.143 0-7.5 3.357-7.5 7.5s3.357 7.5 7.5 7.5h57.689c4.143 0 7.5-3.357 7.5-7.5s-3.358-7.5-7.5-7.5z"/><path d="m284.845 57.715h-57.689c-4.143 0-7.5 3.357-7.5 7.5s3.357 7.5 7.5 7.5h57.689c4.143 0 7.5-3.357 7.5-7.5s-3.358-7.5-7.5-7.5z"/><path d="m284.845 86.447h-57.689c-4.143 0-7.5 3.357-7.5 7.5s3.357 7.5 7.5 7.5h57.689c4.143 0 7.5-3.357 7.5-7.5s-3.358-7.5-7.5-7.5z"/></g><path d="m474.518 405.748h-339.054c-4.159 0-7.667-3.099-8.179-7.227l-28.155-227.057c-.61-4.916 3.225-9.256 8.179-9.256h395.365c4.954 0 8.788 4.339 8.179 9.256l-28.156 227.057c-.512 4.127-4.02 7.227-8.179 7.227z" fill="#ff6167"/><path d="m502.674 162.208h-30.905c4.954 0 8.788 4.339 8.179 9.256l-28.156 227.057c-.512 4.128-4.019 7.227-8.179 7.227h30.905c4.159 0 7.667-3.1 8.179-7.227l28.156-227.057c.609-4.917-3.225-9.256-8.179-9.256z" fill="#fe454a"/><g fill="#686169"><circle cx="16.483" cy="112.071" r="16.483"/><path d="m199.913 367.26c-9.672 0-17.513-7.841-17.513-17.513v-131.864c0-9.672 7.841-17.513 17.513-17.513 9.672 0 17.513 7.841 17.513 17.513v131.863c0 9.673-7.841 17.514-17.513 17.514z"/><path d="m269.965 367.26c-9.672 0-17.513-7.841-17.513-17.513v-131.864c0-9.672 7.841-17.513 17.513-17.513 9.672 0 17.513 7.841 17.513 17.513v131.863c0 9.673-7.841 17.514-17.513 17.514z"/><path d="m340.017 367.26c-9.672 0-17.513-7.841-17.513-17.513v-131.864c0-9.672 7.841-17.513 17.513-17.513 9.672 0 17.513 7.841 17.513 17.513v131.863c0 9.673-7.84 17.514-17.513 17.514z"/><path d="m410.07 367.26c-9.672 0-17.513-7.841-17.513-17.513v-131.864c0-9.672 7.841-17.513 17.513-17.513 9.672 0 17.513 7.841 17.513 17.513v131.863c0 9.673-7.841 17.514-17.513 17.514z"/></g></g></svg>