<svg id="Layer_1" enable-background="new 0 0 512 512" height="512" viewBox="0 0 512 512" width="512" xmlns="http://www.w3.org/2000/svg"><g><path d="m397.71 87.53c-.152-.604-3.882-14.971-16.51-29.209-11.568-13.043-33.118-28.591-70.086-28.591s-58.518 15.548-70.086 28.591c-12.628 14.239-16.357 28.605-16.509 29.209-1.01 4.004 1.41 8.055 5.409 9.083 4.001 1.028 8.082-1.389 9.127-5.382.497-1.898 12.847-46.501 72.06-46.501s71.563 44.603 72.052 46.47c.858 3.4 3.912 5.667 7.267 5.667.607 0 1.225-.074 1.84-.229 4.016-1.014 6.45-5.092 5.436-9.108z" fill="#686169"/><path d="m476.531 360.708h-330.833c-12.761 0-23.107-10.345-23.107-23.107v-226.184h377.046v226.184c.001 12.762-10.344 23.107-23.106 23.107z" fill="#ffe589"/><path d="m468.732 111.417v226.184c0 12.762-10.345 23.107-23.107 23.107h30.905c12.762 0 23.107-10.345 23.107-23.107v-226.184z" fill="#ffcd55"/><path d="m507.879 129.947h-393.529c-2.276 0-4.121-1.845-4.121-4.121v-6.181c0-19.344 15.682-35.026 35.026-35.026h331.718c19.344 0 35.026 15.682 35.026 35.026v6.181c.001 2.276-1.844 4.121-4.12 4.121z" fill="#2fd9e7"/><path d="m476.974 84.619h-30.905c19.344 0 35.026 15.682 35.026 35.026v6.181c0 2.276-1.845 4.121-4.121 4.121h30.905c2.276 0 4.121-1.845 4.121-4.121v-6.181c0-19.344-15.682-35.026-35.026-35.026z" fill="#00d0e4"/><path d="m410.311 366.801c0 10.295-8.302 18.64-18.543 18.64h-96.053c-22.855 0-45.378 5.494-65.692 16.023l-111.062 57.568c-9.044 4.688-18.785 7.882-28.846 9.459l-87.736 13.753c-1.25.196-2.379-.772-2.379-2.039v-89.614c0-1.043.777-1.922 1.81-2.048l50.131-6.152c9.129-1.12 17.997-3.805 26.217-7.937l36.028-18.111c10.763-5.41 20.469-12.725 28.652-21.594l60.03-65.057c6.176-6.693 16.355-7.747 23.767-2.462 8.234 5.871 10.109 17.374 4.169 25.58l-32.353 44.695c-3.21 4.434-.059 10.656 5.397 10.656h187.919c10.242 0 18.544 8.346 18.544 18.64z" fill="#ffd8ca"/><g fill="#ffbead"><path d="m199.899 292.81-32.353 44.695c-3.21 4.434-.059 10.656 5.397 10.656h30.905c-5.455 0-8.606-6.222-5.397-10.656l32.353-44.695c5.94-8.206 4.065-19.709-4.17-25.58-7.419-5.29-17.59-4.233-23.775 2.47l-2.365 2.563c3.908 6.132 3.932 14.294-.595 20.547z"/><path d="m391.768 348.161h-30.905c10.241 0 18.543 8.345 18.543 18.64 0 10.295-8.302 18.64-18.543 18.64h30.905c10.241 0 18.543-8.345 18.543-18.64 0-10.294-8.302-18.64-18.543-18.64z"/><path d="m199.117 401.464-111.062 57.568c-9.045 4.688-18.781 7.882-28.836 9.458l-59.219 9.282v2.433c0 1.267 1.129 2.235 2.379 2.039l87.746-13.754c10.055-1.576 19.791-4.77 28.836-9.458l111.062-57.568c20.313-10.529 42.837-16.023 65.692-16.023h-30.905c-22.856 0-45.38 5.494-65.693 16.023z"/></g><path d="m413.841 303.77c-5.197 6.769-14.898 8.044-21.667 2.846l-52.295-40.152c-6.769-5.197-8.043-14.898-2.846-21.667 5.197-6.769 14.898-8.043 21.667-2.846l52.295 40.152c6.77 5.197 8.044 14.898 2.846 21.667z" fill="#f8f7f7"/><ellipse cx="313.192" cy="226.493" fill="#e07f5d" rx="56.456" ry="74.736" transform="matrix(.609 -.793 .793 .609 -57.188 336.977)"/><path d="m253.913 180.979c-3.264 4.252-5.617 8.975-7.144 13.997 21.47-13.35 54.873-9.565 81.983 11.25s39.394 52.107 32.042 76.297c4.457-2.772 8.413-6.264 11.677-10.516 18.988-24.731 7.841-65.157-24.898-90.294-32.738-25.137-74.672-25.465-93.66-.734z" fill="#d06d4a"/></g></svg>