<svg id="Layer_1" enable-background="new 0 0 512 512" height="512" viewBox="0 0 512 512" width="512" xmlns="http://www.w3.org/2000/svg"><g><path d="m384.371 42.753c-64.86 0-117.441 52.58-117.441 117.441 0 64.86 52.58 117.441 117.441 117.441s117.441-52.58 117.441-117.441c0-64.862-52.581-117.441-117.441-117.441zm0 158.256c-22.54 0-40.816-18.275-40.816-40.815 0-22.541 18.275-40.816 40.816-40.816s40.816 18.275 40.816 40.816c0 22.539-18.276 40.815-40.816 40.815z" fill="#e07f5d"/><g><path d="m384.371 42.753c-5.239 0-10.396.348-15.453 1.013 57.557 7.566 101.988 56.806 101.988 116.428s-44.431 108.862-101.988 116.428c5.057.664 10.214 1.013 15.453 1.013 64.86 0 117.441-52.58 117.441-117.441 0-64.862-52.581-117.441-117.441-117.441z" fill="#d06d4a"/><path d="m384.371 42.753c-56.489 0-103.657 39.886-114.893 93.03h82.179c7.443-9.958 19.326-16.405 32.714-16.405s25.271 6.447 32.714 16.405h82.179c-11.236-53.145-58.404-93.03-114.893-93.03z" fill="#d06d4a"/><g><path d="m384.371 42.753c-5.238 0-10.396.347-15.453 1.011 49.475 6.504 89.246 43.803 99.44 92.019h30.905c-11.235-53.145-58.403-93.03-114.892-93.03z" fill="#b85f3f"/></g></g><g fill="#9f4f33"><path d="m323.861 89.3-3.821-1.543c-3.841-1.553-8.212.306-9.763 4.146-1.551 3.841.305 8.212 4.146 9.763l3.821 1.543c.92.372 1.871.548 2.806.548 2.967 0 5.777-1.773 6.957-4.693 1.551-3.842-.305-8.213-4.146-9.764z"/><path d="m350.531 90.083-2.967 2.86c-2.982 2.875-3.069 7.623-.194 10.604 1.472 1.527 3.435 2.295 5.4 2.295 1.873 0 3.75-.698 5.205-2.101l2.967-2.86c2.982-2.875 3.069-7.623.194-10.604-2.874-2.982-7.622-3.068-10.605-.194z"/><path d="m462.237 97.648c-2.874-2.98-7.623-3.068-10.605-.195l-2.967 2.859c-2.982 2.875-3.07 7.623-.196 10.605 1.472 1.526 3.436 2.295 5.401 2.295 1.873 0 3.749-.697 5.204-2.1l2.967-2.859c2.983-2.874 3.07-7.622.196-10.605z"/><path d="m415.587 72.232c-1.866-3.696-6.377-5.179-10.075-3.314l-3.679 1.857c-3.698 1.867-5.182 6.378-3.314 10.076 1.319 2.613 3.96 4.121 6.701 4.121 1.137 0 2.291-.26 3.375-.807l3.679-1.857c3.696-1.867 5.18-6.377 3.313-10.076z"/><path d="m369.302 62.895c-2.33-3.424-6.995-4.313-10.42-1.982-3.424 2.33-4.312 6.995-1.982 10.42l2.318 3.407c1.451 2.133 3.809 3.282 6.208 3.282 1.452 0 2.92-.421 4.212-1.3 3.425-2.33 4.312-6.995 1.982-10.42z"/><path d="m429.904 98.36c-2.33-3.424-6.995-4.313-10.42-1.982-3.425 2.33-4.312 6.995-1.982 10.42l2.318 3.407c1.451 2.133 3.809 3.282 6.208 3.282 1.452 0 2.92-.421 4.212-1.3 3.424-2.33 4.312-6.995 1.982-10.42z"/></g><path d="m127.629 42.753c-64.86 0-117.441 52.58-117.441 117.441 0 64.86 52.58 117.441 117.441 117.441s117.441-52.58 117.441-117.441c0-64.862-52.581-117.441-117.441-117.441zm0 158.256c-22.54 0-40.816-18.275-40.816-40.815 0-22.541 18.275-40.816 40.816-40.816s40.816 18.275 40.816 40.816c0 22.539-18.276 40.815-40.816 40.815z" fill="#e07f5d"/><g><path d="m127.629 42.753c-5.239 0-10.396.348-15.453 1.013 57.557 7.566 101.988 56.806 101.988 116.428s-44.431 108.862-101.988 116.428c5.057.664 10.214 1.013 15.453 1.013 64.86 0 117.441-52.58 117.441-117.441 0-64.862-52.581-117.441-117.441-117.441z" fill="#d06d4a"/><path d="m127.629 42.753c-56.489 0-103.657 39.886-114.893 93.03h82.179c7.443-9.958 19.326-16.405 32.714-16.405s25.271 6.447 32.714 16.405h82.179c-11.236-53.145-58.404-93.03-114.893-93.03z" fill="#d06d4a"/><g><path d="m127.629 42.753c-5.238 0-10.396.347-15.453 1.011 49.475 6.504 89.246 43.803 99.44 92.019h30.905c-11.235-53.145-58.403-93.03-114.892-93.03z" fill="#b85f3f"/></g></g><g fill="#9f4f33"><path d="m67.119 89.3-3.821-1.543c-3.842-1.553-8.212.305-9.763 4.146s.306 8.211 4.146 9.762l3.821 1.543c.92.372 1.871.548 2.806.548 2.967 0 5.778-1.773 6.957-4.694 1.551-3.841-.305-8.211-4.146-9.762z"/><path d="m93.79 90.083-2.967 2.86c-2.982 2.875-3.069 7.623-.194 10.604 1.472 1.527 3.435 2.295 5.4 2.295 1.873 0 3.75-.698 5.205-2.101l2.967-2.86c2.982-2.875 3.069-7.623.194-10.604-2.874-2.982-7.623-3.068-10.605-.194z"/><path d="m205.496 97.648c-2.875-2.98-7.623-3.068-10.605-.195l-2.967 2.859c-2.982 2.875-3.07 7.623-.196 10.605 1.472 1.526 3.436 2.295 5.401 2.295 1.873 0 3.749-.697 5.204-2.1l2.967-2.859c2.982-2.874 3.07-7.622.196-10.605z"/><path d="m158.845 72.232c-1.866-3.696-6.376-5.179-10.075-3.314l-3.679 1.857c-3.698 1.867-5.182 6.378-3.314 10.076 1.319 2.613 3.96 4.121 6.701 4.121 1.137 0 2.291-.26 3.375-.807l3.679-1.857c3.697-1.867 5.18-6.377 3.313-10.076z"/><path d="m112.561 62.895c-2.33-3.424-6.995-4.313-10.42-1.982-3.425 2.33-4.312 6.995-1.982 10.42l2.318 3.407c1.451 2.133 3.809 3.282 6.208 3.282 1.452 0 2.92-.421 4.212-1.3 3.424-2.33 4.312-6.995 1.982-10.42z"/><path d="m173.163 98.36c-2.33-3.424-6.995-4.313-10.42-1.982-3.424 2.33-4.312 6.995-1.982 10.42l2.318 3.407c1.451 2.133 3.809 3.282 6.208 3.282 1.452 0 2.92-.421 4.212-1.3 3.425-2.33 4.312-6.995 1.982-10.42z"/></g><path d="m26.27 253.992v68.258c0 15.185 11.655 27.496 26.032 27.496h407.397c14.377 0 26.032-12.31 26.032-27.496v-68.258z" fill="#e49a6b"/><path d="m454.825 253.992v68.258c0 15.185-11.655 27.496-26.032 27.496h30.905c14.377 0 26.032-12.31 26.032-27.496v-68.258z" fill="#e0925b"/><path d="m410.311 353.779c0 10.295-8.302 18.64-18.543 18.64h-96.053c-22.855 0-45.378 5.494-65.692 16.023l-111.062 57.568c-9.044 4.688-18.785 7.882-28.846 9.459l-87.736 13.753c-1.25.196-2.379-.772-2.379-2.039v-89.613c0-1.043.777-1.922 1.81-2.048l50.131-6.152c9.129-1.12 17.997-3.805 26.217-7.937l36.028-18.111c10.763-5.41 20.469-12.725 28.652-21.594l60.03-65.057c6.176-6.693 16.355-7.747 23.767-2.462 8.234 5.871 10.109 17.374 4.169 25.58l-32.353 44.695c-3.21 4.434-.059 10.656 5.397 10.656h187.919c10.242 0 18.544 8.345 18.544 18.639z" fill="#ffd8ca"/><g fill="#ffbead"><path d="m199.899 279.789-32.353 44.695c-3.21 4.434-.059 10.656 5.397 10.656h30.905c-5.455 0-8.606-6.222-5.397-10.656l32.353-44.695c5.94-8.206 4.065-19.709-4.17-25.58-7.419-5.29-17.59-4.233-23.775 2.47l-2.365 2.563c3.908 6.131 3.932 14.293-.595 20.547z"/><path d="m391.768 335.14h-30.905c10.241 0 18.543 8.345 18.543 18.64 0 10.295-8.302 18.64-18.543 18.64h30.905c10.241 0 18.543-8.345 18.543-18.64 0-10.295-8.302-18.64-18.543-18.64z"/><path d="m199.117 388.442-111.062 57.568c-9.045 4.688-18.781 7.882-28.836 9.458l-59.219 9.283v2.433c0 1.267 1.129 2.235 2.379 2.039l87.746-13.754c10.055-1.576 19.791-4.77 28.836-9.458l111.062-57.568c20.313-10.529 42.837-16.023 65.692-16.023h-30.905c-22.856-.001-45.38 5.493-65.693 16.022z"/></g><path d="m493.457 259.091h-474.914c-10.241 0-18.543-8.303-18.543-18.544v-8.241c0-2.276 1.845-4.121 4.121-4.121h503.759c2.276 0 4.121 1.845 4.121 4.121v8.241c-.001 10.241-8.303 18.544-18.544 18.544z" fill="#e0925b"/><path d="m507.879 228.185h-30.905c2.276 0 4.121 1.845 4.121 4.121v8.241c0 10.241-8.302 18.543-18.543 18.543h30.905c10.241 0 18.543-8.302 18.543-18.543v-8.241c0-2.276-1.845-4.121-4.121-4.121z" fill="#d48145"/></g></svg>