<svg id="Layer_1" enable-background="new 0 0 512 512" height="512" viewBox="0 0 512 512" width="512" xmlns="http://www.w3.org/2000/svg"><g><path d="m433.331 119.492v178.415c0 2.867-2.324 5.191-5.191 5.191h-218.154c-2.867 0-5.191-2.324-5.191-5.191v-178.415c0-8.339.739-16.661 2.21-24.869l9.221-51.476h205.674l9.221 51.476c1.47 8.208 2.21 16.531 2.21 24.869z" fill="#e49a6b"/><path d="m431.121 94.624-9.221-51.477h-18.296l9.221 51.476c1.47 8.208 2.21 16.53 2.21 24.869v178.415c0 2.867-2.324 5.191-5.191 5.191h18.296c2.867 0 5.191-2.324 5.191-5.191v-178.415c0-8.338-.74-16.661-2.21-24.868z" fill="#e0925b"/><path d="m428.182 43.148h-218.238c-3.393 0-6.144-2.751-6.144-6.144v-33.345c0-2.021 1.639-3.659 3.66-3.659h223.207c2.021 0 3.659 1.638 3.659 3.659v33.345c0 3.393-2.751 6.144-6.144 6.144z" fill="#e0925b"/><path d="m430.666 0h-18.296c2.021 0 3.659 1.638 3.659 3.659v33.345c0 3.393-2.751 6.144-6.144 6.144h18.296c3.393 0 6.144-2.751 6.144-6.144v-33.345c.001-2.021-1.638-3.659-3.659-3.659z" fill="#d48145"/><path d="m298.109 21.791h41.909v46.349h-41.909z" fill="#f8f7f7"/><path d="m468.163 471.622h-337.062c-4.143 0-7.5 3.357-7.5 7.5s3.357 7.5 7.5 7.5h337.062c4.143 0 7.5-3.357 7.5-7.5s-3.357-7.5-7.5-7.5z" fill="#afbbc6"/><circle cx="116.878" cy="479.122" fill="#686169" r="32.878"/><circle cx="479.122" cy="479.122" fill="#686169" r="32.878"/><g fill="#afbbc6"><path d="m167.924 381.82c-3.667-1.922-8.201-.512-10.126 3.157l-47.562 90.66c-1.924 3.668-.511 8.201 3.157 10.126 1.112.583 2.304.86 3.479.86 2.698 0 5.307-1.462 6.647-4.018l47.562-90.66c1.924-3.667.511-8.2-3.157-10.125z"/><path d="m485.88 475.869-43.646-90.66c-1.798-3.733-6.284-5.301-10.011-3.505-3.732 1.797-5.302 6.279-3.505 10.011l43.646 90.66c1.292 2.684 3.972 4.249 6.763 4.249 1.092 0 2.2-.239 3.248-.744 3.732-1.797 5.302-6.279 3.505-10.011z"/></g><path d="m117.355 170.429-4.313-30.962c-2.771-19.895-20.008-34.896-40.094-34.896h-47.435c-4.143 0-7.5 3.357-7.5 7.5s3.357 7.5 7.5 7.5h47.436c12.643 0 23.492 9.443 25.236 21.967l4.313 30.962c.523 3.751 3.736 6.466 7.419 6.466.345 0 .693-.023 1.045-.072 4.102-.574 6.965-4.363 6.393-8.465z" fill="#afbbc6"/><path d="m474.518 405.748h-339.054c-4.159 0-7.667-3.099-8.179-7.227l-28.155-227.057c-.61-4.916 3.225-9.256 8.179-9.256h395.365c4.954 0 8.788 4.339 8.179 9.256l-28.156 227.057c-.512 4.127-4.02 7.227-8.179 7.227z" fill="#ff6167"/><path d="m502.674 162.208h-30.905c4.954 0 8.788 4.339 8.179 9.256l-28.156 227.057c-.512 4.128-4.019 7.227-8.179 7.227h30.905c4.159 0 7.667-3.1 8.179-7.227l28.156-227.057c.609-4.917-3.225-9.256-8.179-9.256z" fill="#fe454a"/><g fill="#686169"><circle cx="16.483" cy="112.071" r="16.483"/><path d="m199.913 367.26c-9.672 0-17.513-7.841-17.513-17.513v-131.864c0-9.672 7.841-17.513 17.513-17.513 9.672 0 17.513 7.841 17.513 17.513v131.863c0 9.673-7.841 17.514-17.513 17.514z"/><path d="m269.965 367.26c-9.672 0-17.513-7.841-17.513-17.513v-131.864c0-9.672 7.841-17.513 17.513-17.513 9.672 0 17.513 7.841 17.513 17.513v131.863c0 9.673-7.841 17.514-17.513 17.514z"/><path d="m340.017 367.26c-9.672 0-17.513-7.841-17.513-17.513v-131.864c0-9.672 7.841-17.513 17.513-17.513 9.672 0 17.513 7.841 17.513 17.513v131.863c0 9.673-7.84 17.514-17.513 17.514z"/><path d="m410.07 367.26c-9.672 0-17.513-7.841-17.513-17.513v-131.864c0-9.672 7.841-17.513 17.513-17.513 9.672 0 17.513 7.841 17.513 17.513v131.863c0 9.673-7.841 17.514-17.513 17.514z"/></g></g></svg>