<svg id="Layer_1" enable-background="new 0 0 512 512" height="512" viewBox="0 0 512 512" width="512" xmlns="http://www.w3.org/2000/svg"><g><path d="m116.174 406.555 7.225 14.671c2.053 4.17 6.022 7.06 10.614 7.728l16.156 2.353c11.562 1.684 16.179 15.923 7.812 24.096l-11.69 11.42c-3.322 3.246-4.838 7.922-4.054 12.504l2.76 16.125c1.975 11.541-10.112 20.341-20.453 14.892l-14.45-7.613c-4.107-2.164-9.013-2.164-13.119 0l-14.45 7.613c-10.342 5.449-22.428-3.352-20.453-14.892l2.76-16.125c.784-4.583-.732-9.259-4.054-12.504l-11.69-11.42c-8.367-8.173-3.75-22.413 7.812-24.096l16.156-2.353c4.591-.669 8.56-3.559 10.614-7.728l7.225-14.671c5.168-10.5 20.108-10.5 25.279 0z" fill="#ffe589"/><g><path d="m150.169 431.307-16.156-2.353c-4.591-.668-8.56-3.558-10.614-7.728l-7.225-14.672c-5.171-10.499-20.111-10.499-25.282 0l-4.929 10.01 6.531 13.261c2.053 4.169 6.022 7.06 10.614 7.728l16.156 2.353c11.562 1.684 16.179 15.924 7.812 24.097l-11.69 11.42c-3.322 3.245-4.838 7.922-4.054 12.505l2.76 16.125c.049.284.082.565.114.846l10.338 5.447c10.342 5.449 22.428-3.352 20.453-14.893l-2.76-16.125c-.784-4.582.732-9.259 4.054-12.504l11.69-11.421c8.367-8.173 3.75-22.412-7.812-24.096z" fill="#ffd86e"/></g><path d="m421.108 406.555 7.225 14.671c2.053 4.17 6.022 7.06 10.614 7.728l16.156 2.353c11.562 1.684 16.179 15.923 7.812 24.096l-11.69 11.42c-3.322 3.246-4.838 7.922-4.054 12.504l2.76 16.125c1.975 11.541-10.112 20.341-20.453 14.892l-14.45-7.613c-4.107-2.164-9.013-2.164-13.119 0l-14.45 7.613c-10.342 5.449-22.428-3.352-20.453-14.892l2.76-16.125c.784-4.583-.732-9.259-4.054-12.504l-11.69-11.42c-8.367-8.173-3.75-22.413 7.812-24.096l16.156-2.353c4.591-.669 8.56-3.559 10.614-7.728l7.225-14.671c5.168-10.5 20.108-10.5 25.279 0z" fill="#ffe589"/><g><path d="m455.102 431.307-16.155-2.353c-4.592-.668-8.561-3.558-10.614-7.728l-7.225-14.672c-5.171-10.499-20.111-10.499-25.282 0l-4.714 9.573 6.316 12.825c2.053 4.169 6.022 7.059 10.614 7.728l16.155 2.353c11.562 1.684 16.179 15.923 7.813 24.097l-11.69 11.421c-3.322 3.245-4.839 7.922-4.054 12.504l2.76 16.125c.102.595.157 1.18.186 1.758l10.266 5.409c10.342 5.449 22.428-3.352 20.453-14.893l-2.76-16.125c-.784-4.582.732-9.259 4.054-12.504l11.69-11.421c8.366-8.174 3.749-22.413-7.813-24.097z" fill="#ffd86e"/></g><path d="m270.415 391.218 8.239 16.805c2.342 4.776 6.868 8.086 12.103 8.852l18.423 2.695c13.185 1.929 18.45 18.24 8.909 27.601l-13.331 13.081c-3.789 3.718-5.518 9.074-4.623 14.323l3.147 18.471c2.252 13.219-11.531 23.3-23.324 17.059l-16.478-8.721c-4.683-2.478-10.278-2.478-14.961 0l-16.478 8.721c-11.793 6.241-25.576-3.839-23.324-17.059l3.147-18.471c.894-5.249-.834-10.606-4.623-14.323l-13.331-13.081c-9.541-9.362-4.276-25.673 8.909-27.601l18.423-2.695c5.236-.766 9.762-4.076 12.103-8.852l8.239-16.805c5.897-12.027 22.934-12.027 28.831 0z" fill="#ffe589"/><g><path d="m309.181 419.57-18.423-2.695c-5.236-.766-9.762-4.076-12.103-8.852l-8.239-16.806c-5.896-12.027-22.933-12.027-28.83 0l-3.136 6.397c.382.582.741 1.192 1.061 1.845l8.239 16.805c2.342 4.776 6.868 8.087 12.103 8.852l18.423 2.695c13.185 1.929 18.45 18.24 8.909 27.602l-13.331 13.081c-3.789 3.718-5.517 9.074-4.623 14.323l3.147 18.471c.287 1.682.311 3.312.115 4.866l7.466 3.951c11.793 6.241 25.576-3.84 23.324-17.058l-3.147-18.471c-.894-5.249.834-10.606 4.623-14.323l13.331-13.081c9.541-9.362 4.276-25.673-8.909-27.602z" fill="#ffd86e"/></g><path d="m368.756 365.571h-233.566v-25.94c0-39.827 32.286-72.113 72.113-72.113h97.394c39.827 0 72.113 32.286 72.113 72.113v17.886c0 4.448-3.606 8.054-8.054 8.054z" fill="#ffe589"/><path d="m304.697 267.518h-30.905c39.827 0 72.113 32.286 72.113 72.113v17.886c0 4.448-3.606 8.054-8.054 8.054h30.905c4.448 0 8.054-3.606 8.054-8.054v-17.887c0-39.826-32.286-72.112-72.113-72.112z" fill="#ffd86e"/><path d="m231.838 217.467h48.324v78.578h-48.324z" fill="#ffd8ca"/><path d="m253.147 217.467h27.014v78.578h-27.014z" fill="#ffbead"/><path d="m231.838 248.584s-2.312 32.036 24.162 47.461c0 0-15.054 16.809-30.281 11.47-12.065-4.23-18.892-26.735-21.207-35.9-.584-2.311.345-4.734 2.317-6.072z" fill="#f3f0f3"/><path d="m280.162 248.584s2.312 32.036-24.162 47.461c0 0 15.054 16.809 30.281 11.47 12.065-4.23 18.892-26.735 21.207-35.9.584-2.311-.345-4.734-2.317-6.072z" fill="#f3f0f3"/><g fill="#ffbead"><path d="m189.195 137.099c0 17.621-10.776 31.906-24.069 31.906s-21.015-16.405-21.015-34.026 7.722-29.786 21.015-29.786 24.069 14.285 24.069 31.906z"/><path d="m323.061 137.099c0 17.621 10.776 31.906 24.069 31.906s21.015-16.405 21.015-34.026-7.722-29.786-21.015-29.786c-13.292 0-24.069 14.285-24.069 31.906z"/></g><path d="m178.444 155.279v-52.861c0-42.904 34.78-77.684 77.684-77.684 42.904 0 77.684 34.78 77.684 77.684v52.568c0 42.985-34.846 77.83-77.83 77.83-42.823.001-77.538-34.714-77.538-77.537z" fill="#ffd8ca"/><path d="m256.128 24.734c-5.291 0-10.459.529-15.453 1.537 35.501 7.165 62.232 38.534 62.232 76.147v52.568c0 37.689-26.788 69.12-62.363 76.293 4.989 1.008 10.152 1.537 15.438 1.537 42.985 0 77.83-34.846 77.83-77.83v-52.568c0-42.903-34.78-77.684-77.684-77.684z" fill="#ffbead"/><path d="m256.128 10.818c-119.137 0-85.578 102.837-83.01 108.358 2.413 5.197 5.326 19.337 5.326 19.337s16.55-13.299 16.017-18.375c-.853-8.11-5.549-57.927 14.94-53.231 20.482 4.696 28.917 8.11 46.042 8.11s25.559-3.413 46.042-8.11c20.489-4.696 15.794 45.121 14.94 53.231-.534 5.075 17.388 18.42 17.388 18.42s1.541-14.186 3.955-19.383c3.818-8.209 37.497-108.357-81.64-108.357z" fill="#ad7271"/><g><path d="m256.128 10.818c-5.431 0-10.544.214-15.357.622 56.648 4.752 71.599 35.864 73.204 63.525 5.507 13.592 3.044 39.519 2.449 45.173-.534 5.075 17.388 18.421 17.388 18.421s1.541-14.186 3.955-19.383c3.819-8.21 37.498-108.358-81.639-108.358z" fill="#986564"/></g><g><path d="m249.401 171.052c2.515.656 4.62.984 6.727.984 2.105 0 4.212-.328 6.727-.984 4.008-1.046 6.409-5.143 5.363-9.15-1.045-4.008-5.142-6.413-9.15-5.363-2.553.666-3.322.667-5.877 0-4.011-1.048-8.104 1.355-9.151 5.362s1.354 8.105 5.361 9.151z" fill="#ffbead"/><path d="m269.795 184.781c-10.984 2.867-16.35 2.867-27.334 0-4.013-1.049-8.104 1.355-9.151 5.362-1.046 4.008 1.354 8.105 5.362 9.151 6.771 1.768 12.113 2.651 17.456 2.651s10.686-.884 17.456-2.651c4.008-1.046 6.408-5.144 5.362-9.151-1.047-4.007-5.145-6.41-9.151-5.362z" fill="#ffbead"/><g fill="#986564"><path d="m217.667 113.25c6.912-1.805 10.088-1.805 17 0 .635.166 1.272.245 1.899.245 3.33 0 6.371-2.234 7.252-5.607 1.046-4.008-1.354-8.104-5.362-9.151-9.418-2.459-15.16-2.459-24.578 0-4.008 1.047-6.408 5.144-5.362 9.151 1.046 4.008 5.146 6.412 9.151 5.362z"/><path d="m298.379 98.736c-9.418-2.459-15.161-2.459-24.579 0-4.008 1.047-6.408 5.144-5.362 9.151 1.047 4.008 5.145 6.412 9.151 5.362 6.912-1.805 10.089-1.805 17.001 0 .635.166 1.272.245 1.899.245 3.33 0 6.371-2.234 7.252-5.607 1.046-4.007-1.354-8.104-5.362-9.151z"/><path d="m222.302 126.625c-4.143 0-7.5 3.357-7.5 7.5v4.833c0 4.143 3.357 7.5 7.5 7.5s7.5-3.357 7.5-7.5v-4.833c0-4.143-3.358-7.5-7.5-7.5z"/><path d="m289.955 126.625c-4.143 0-7.5 3.357-7.5 7.5v4.833c0 4.143 3.357 7.5 7.5 7.5s7.5-3.357 7.5-7.5v-4.833c0-4.143-3.357-7.5-7.5-7.5z"/></g></g><path d="m352.322 82.414h-192.644v-33.282c0-27.135 21.997-49.132 49.132-49.132h94.38c27.135 0 49.132 21.997 49.132 49.132z" fill="#ff6167"/><path d="m303.19 0h-30.905c27.135 0 49.132 21.997 49.132 49.132v33.282h30.905v-33.282c0-27.135-21.997-49.132-49.132-49.132z" fill="#fe454a"/><path d="m350.391 86.099h-188.782c-5.755 0-7.674-8.887-2.609-12.051 13.889-8.675 41.921-18.855 97-18.855s83.112 10.18 97 18.855c5.065 3.164 3.146 12.051-2.609 12.051z" fill="#f8f7f7"/></g></svg>