<svg id="Layer_1" enable-background="new 0 0 512 512" height="512" viewBox="0 0 512 512" width="512" xmlns="http://www.w3.org/2000/svg"><g><path d="m312.145 512h-286.39c-2.276 0-4.121-1.845-4.121-4.121v-503.758c0-2.276 1.845-4.121 4.121-4.121h286.39c2.276 0 4.121 1.845 4.121 4.121v503.759c0 2.275-1.845 4.12-4.121 4.12z" fill="#e49a6b"/><path d="m312.145 0h-30.905c2.276 0 4.121 1.845 4.121 4.121v503.759c0 2.276-1.845 4.121-4.121 4.121h30.905c2.276 0 4.121-1.845 4.121-4.121v-503.759c0-2.276-1.845-4.121-4.121-4.121z" fill="#e0925b"/><path d="m52.539 476.974v-441.948c0-2.276 1.845-4.121 4.121-4.121h224.579c2.276 0 4.121 1.845 4.121 4.121v441.948c0 2.276-1.845 4.121-4.121 4.121h-224.579c-2.276 0-4.121-1.845-4.121-4.121z" fill="#bb723b"/><path d="m285.36 198.31v30.905h-100.958v251.88h-30.905v-251.88h-100.958v-30.905h100.958v-167.405h30.905v167.405z" fill="#d48145"/><path d="m416.359 281.223c-.079-.534-2.011-13.238-8.662-26.054-9.42-18.147-23.581-27.739-40.953-27.739s-31.533 9.592-40.952 27.739c-6.652 12.815-8.583 25.52-8.662 26.054-.604 4.093 2.221 7.895 6.312 8.507 4.098.604 7.906-2.212 8.526-6.303.062-.409 6.53-40.997 34.776-40.997s34.716 40.588 34.775 40.984c.551 3.727 3.753 6.405 7.41 6.405.365 0 .734-.026 1.105-.081 4.099-.605 6.93-4.418 6.325-8.515z" fill="#7b727b"/><path d="m245.183 256c-8.534 0-15.453-6.918-15.453-15.453v-53.569c0-8.534 6.918-15.453 15.453-15.453 8.534 0 15.453 6.918 15.453 15.453v53.569c0 8.535-6.919 15.453-15.453 15.453z" fill="#afbbc6"/><path d="m469.688 512h-205.887c-11.42 0-20.678-9.258-20.678-20.678v-191.465c0-11.42 9.258-20.678 20.678-20.678h205.888c11.42 0 20.678 9.258 20.678 20.678v191.465c-.001 11.42-9.259 20.678-20.679 20.678z" fill="#f8f7f7"/><path d="m469.688 279.179h-30.905c11.42 0 20.678 9.258 20.678 20.678v191.465c0 11.42-9.258 20.678-20.678 20.678h30.905c11.42 0 20.678-9.258 20.678-20.678v-191.465c0-11.42-9.258-20.678-20.678-20.678z" fill="#efefef"/><path d="m366.744 325.26c-4.143 0-7.5 3.357-7.5 7.5v15.991c0 4.143 3.357 7.5 7.5 7.5s7.5-3.357 7.5-7.5v-15.991c0-4.143-3.357-7.5-7.5-7.5z" fill="#afbbc6"/><path d="m428.272 453.829h-123.055c-3.9 0-7.402-2.387-8.828-6.017l-8.968-22.828h158.648l-8.968 22.828c-1.427 3.63-4.929 6.017-8.829 6.017z" fill="#7b727b"/><path d="m415.163 424.984-8.968 22.828c-1.426 3.63-4.928 6.017-8.828 6.017h30.905c3.9 0 7.402-2.387 8.828-6.017l8.968-22.828z" fill="#686169"/><path d="m434.736 424.984h-135.983v-8.242c0-37.551 30.441-67.992 67.992-67.992 37.551 0 67.992 30.441 67.992 67.992v8.242z" fill="#cfdbe4"/><g fill="#afbbc6"><path d="m366.745 348.751c-5.318 0-10.486.63-15.453 1.785 30.102 7 52.539 33.974 52.539 66.207v8.242h30.905v-8.242c0-37.551-30.441-67.992-67.991-67.992z"/><path d="m449.308 417.484h-165.126c-4.143 0-7.5 3.357-7.5 7.5s3.357 7.5 7.5 7.5h165.126c4.143 0 7.5-3.357 7.5-7.5s-3.358-7.5-7.5-7.5z"/></g></g></svg>