<svg id="Layer_1" enable-background="new 0 0 512 512" height="512" viewBox="0 0 512 512" width="512" xmlns="http://www.w3.org/2000/svg"><g><path d="m105.229 296.654c-4.142 0-7.5 3.357-7.5 7.5v52.463c0 4.143 3.358 7.5 7.5 7.5s7.5-3.357 7.5-7.5v-52.463c0-4.142-3.358-7.5-7.5-7.5z" fill="#686169"/><path d="m38.267 375.111h133.924v115.504h-133.924z" fill="#2fd9e7"/><path d="m133.163 490.615h-55.869v-40.898c0-4.262 3.455-7.718 7.718-7.718h40.434c4.262 0 7.718 3.455 7.718 7.718v40.898z" fill="#686169"/><path d="m141.285 375.111h30.905v115.504h-30.905z" fill="#00d0e4"/><path d="m60.633 414.495h-.093c-12.302 0-22.274-9.973-22.274-22.274v-33.029c0-7.008 5.681-12.689 12.689-12.689h31.953v45.718c0 12.301-9.973 22.274-22.275 22.274z" fill="#ff6167"/><path d="m105.275 414.495h-.093c-12.302 0-22.274-9.973-22.274-22.274v-45.718h44.641v45.718c0 12.301-9.973 22.274-22.274 22.274z" fill="#f8f7f7"/><path d="m107.854 346.503v45.764c0 8.756-5.085 16.326-12.473 19.949 2.971 1.457 6.312 2.279 9.847 2.279 12.327 0 22.321-9.952 22.321-22.228v-45.764z" fill="#efefef"/><path d="m149.916 414.495h-.093c-12.302 0-22.274-9.973-22.274-22.274v-45.718h31.953c7.008 0 12.689 5.681 12.689 12.689v33.029c-.001 12.301-9.973 22.274-22.275 22.274z" fill="#ff6167"/><path d="m173.055 314.268h-135.653c-9.109 0-16.493-7.384-16.493-16.493v-11.614c0-1.826 1.48-3.307 3.307-3.307h162.026c1.826 0 3.307 1.48 3.307 3.307v11.614c-.001 9.108-7.385 16.493-16.494 16.493z" fill="#e0925b"/><path d="m186.242 282.854h-30.905c1.826 0 3.307 1.48 3.307 3.307v11.614c0 9.109-7.384 16.493-16.493 16.493h30.905c9.109 0 16.493-7.384 16.493-16.493v-11.614c-.001-1.826-1.481-3.307-3.307-3.307z" fill="#d48145"/><path d="m186.245 254.009h-162.034c-1.869 0-3.364-1.542-3.306-3.41.458-14.586 7.212-70.99 84.323-70.99s83.865 56.404 84.323 70.99c.059 1.868-1.437 3.41-3.306 3.41z" fill="#e0925b"/><path d="m105.228 179.609c-5.506 0-10.641.296-15.453.836 62.578 7.014 68.445 56.61 68.87 70.154.059 1.868-1.437 3.41-3.306 3.41h30.905c1.869 0 3.364-1.542 3.306-3.41-.456-14.586-7.211-70.99-84.322-70.99z" fill="#d48145"/><path d="m185.046 282.854h-159.635c-7.965 0-14.423-6.457-14.423-14.423 0-7.965 6.457-14.423 14.423-14.423h159.635c7.965 0 14.423 6.457 14.423 14.423-.001 7.966-6.458 14.423-14.423 14.423z" fill="#e07f5d"/><path d="m185.046 254.009h-30.906c7.965 0 14.423 6.457 14.423 14.423 0 7.965-6.457 14.423-14.423 14.423h30.905c7.965 0 14.423-6.457 14.423-14.423s-6.457-14.423-14.422-14.423z" fill="#d06d4a"/><path d="m328.383 229.73h154.527v260.885h-154.527z" fill="#ff6167"/><path d="m452.005 229.73h30.905v260.885h-30.905z" fill="#fe454a"/><g fill="#e4f7fc"><path d="m388.133 291.541h-26.785c-1.138 0-2.06-.922-2.06-2.06v-26.785c0-1.138.922-2.06 2.06-2.06h26.785c1.138 0 2.06.922 2.06 2.06v26.785c.001 1.138-.922 2.06-2.06 2.06z"/><path d="m449.944 291.541h-26.784c-1.138 0-2.06-.922-2.06-2.06v-26.785c0-1.138.922-2.06 2.06-2.06h26.785c1.138 0 2.06.922 2.06 2.06v26.785c0 1.138-.923 2.06-2.061 2.06z"/></g><g><path d="m388.133 353.352h-26.785c-1.138 0-2.06-.922-2.06-2.06v-26.785c0-1.138.922-2.06 2.06-2.06h26.785c1.138 0 2.06.922 2.06 2.06v26.785c.001 1.138-.922 2.06-2.06 2.06z" fill="#dcf5f8"/><path d="m449.944 353.352h-26.784c-1.138 0-2.06-.922-2.06-2.06v-26.785c0-1.138.922-2.06 2.06-2.06h26.785c1.138 0 2.06.922 2.06 2.06v26.785c0 1.138-.923 2.06-2.061 2.06z" fill="#e4f7fc"/></g><g fill="#dcf5f8"><path d="m388.133 415.163h-26.785c-1.138 0-2.06-.922-2.06-2.06v-26.785c0-1.138.922-2.06 2.06-2.06h26.785c1.138 0 2.06.922 2.06 2.06v26.785c.001 1.138-.922 2.06-2.06 2.06z"/><path d="m449.944 415.163h-26.784c-1.138 0-2.06-.922-2.06-2.06v-26.785c0-1.138.922-2.06 2.06-2.06h26.785c1.138 0 2.06.922 2.06 2.06v26.785c0 1.138-.923 2.06-2.061 2.06z"/></g><path d="m452.005 490.615h-92.716v-46.607c0-1.138.922-2.06 2.06-2.06h88.596c1.138 0 2.06.922 2.06 2.06z" fill="#686169"/><g><g><path d="m105.229 153.349c-4.142 0-7.5-3.357-7.5-7.5v-7.5c0-4.143 3.358-7.5 7.5-7.5s7.5 3.357 7.5 7.5v7.5c0 4.142-3.358 7.5-7.5 7.5z" fill="#7b727b"/></g><g><path d="m105.229 114.762c-4.142 0-7.5-3.357-7.5-7.5v-15.543c0-4.143 3.358-7.5 7.5-7.5s7.5 3.357 7.5 7.5v15.543c0 4.142-3.358 7.5-7.5 7.5zm300.417-.044c-4.142 0-7.5-3.357-7.5-7.5v-15.544c0-4.143 3.358-7.5 7.5-7.5s7.5 3.357 7.5 7.5v15.544c0 4.142-3.357 7.5-7.5 7.5zm-300.417-46.586c-4.142 0-7.5-3.357-7.5-7.5v-15.544c0-4.143 3.358-7.5 7.5-7.5s7.5 3.357 7.5 7.5v15.544c0 4.142-3.358 7.5-7.5 7.5zm300.417-.045c-4.142 0-7.5-3.357-7.5-7.5v-15.543c0-4.143 3.358-7.5 7.5-7.5s7.5 3.357 7.5 7.5v15.543c0 4.142-3.357 7.5-7.5 7.5zm-295.547-45.464c-1.659 0-3.329-.548-4.718-1.674-3.218-2.607-3.712-7.331-1.104-10.549 4.588-5.661 11.008-9.275 18.077-10.179 4.11-.524 7.865 2.381 8.39 6.489s-2.38 7.865-6.489 8.39c-3.222.412-6.178 2.097-8.324 4.745-1.483 1.829-3.648 2.778-5.832 2.778zm290.649-.034c-2.179 0-4.339-.944-5.822-2.766-2.15-2.644-5.11-4.321-8.333-4.727-4.11-.517-7.023-4.267-6.506-8.376.517-4.11 4.263-7.027 8.376-6.507 7.071.889 13.499 4.49 18.098 10.141 2.614 3.213 2.129 7.938-1.083 10.552-1.392 1.132-3.066 1.683-4.73 1.683zm-44.299-7.589h-15.543c-4.142 0-7.5-3.357-7.5-7.5s3.358-7.5 7.5-7.5h15.543c4.142 0 7.5 3.357 7.5 7.5s-3.358 7.5-7.5 7.5zm-46.631 0h-15.543c-4.142 0-7.5-3.357-7.5-7.5s3.358-7.5 7.5-7.5h15.543c4.142 0 7.5 3.357 7.5 7.5s-3.358 7.5-7.5 7.5zm-46.63 0h-15.543c-4.142 0-7.5-3.357-7.5-7.5s3.358-7.5 7.5-7.5h15.543c4.142 0 7.5 3.357 7.5 7.5s-3.358 7.5-7.5 7.5zm-46.63 0h-15.543c-4.142 0-7.5-3.357-7.5-7.5s3.358-7.5 7.5-7.5h15.543c4.142 0 7.5 3.357 7.5 7.5s-3.358 7.5-7.5 7.5zm-46.631 0h-15.543c-4.142 0-7.5-3.357-7.5-7.5s3.358-7.5 7.5-7.5h15.543c4.142 0 7.5 3.357 7.5 7.5s-3.358 7.5-7.5 7.5z" fill="#7b727b"/></g><g><path d="m405.646 153.349c-4.142 0-7.5-3.357-7.5-7.5v-7.5c0-4.143 3.358-7.5 7.5-7.5s7.5 3.357 7.5 7.5v7.5c0 4.142-3.357 7.5-7.5 7.5z" fill="#7b727b"/></g></g><path d="m377.991 174.816 24.318 24.318c1.843 1.843 4.832 1.843 6.675 0l24.318-24.318c2.973-2.973.868-8.057-3.337-8.057h-48.636c-4.205 0-6.311 5.084-3.338 8.057z" fill="#2fd9e7"/><path d="m496.547 512h-481.094c-8.535 0-15.453-6.918-15.453-15.453 0-8.534 6.918-15.453 15.453-15.453h481.095c8.534 0 15.453 6.918 15.453 15.453-.001 8.535-6.919 15.453-15.454 15.453z" fill="#e0925b"/><path d="m496.547 481.095h-30.905c8.534 0 15.453 6.918 15.453 15.453 0 8.534-6.919 15.453-15.453 15.453h30.905c8.534 0 15.453-6.918 15.453-15.453s-6.919-15.453-15.453-15.453z" fill="#d48145"/></g></svg>