<svg id="Layer_1" enable-background="new 0 0 512 512" height="512" viewBox="0 0 512 512" width="512" xmlns="http://www.w3.org/2000/svg"><g><path d="m347.58 456.098c-34.55-28.797-36.603-87.021-36.603-87.021h-109.943s-2.053 58.224-36.608 87.021z" fill="#d7d7d7"/><path d="m512 330.725v-256.968c0-19.968-16.187-36.155-36.155-36.155h-439.69c-19.968 0-36.155 16.187-36.155 36.155v256.968z" fill="#7b727b"/><path d="m481.094 73.757v256.968h30.906v-256.968c0-19.968-16.187-36.155-36.156-36.155h-30.905c19.968 0 36.155 16.187 36.155 36.155z" fill="#686169"/><path d="m30.905 325.022v-252.515c0-2.209 1.791-4 4-4h442.189c2.209 0 4 1.791 4 4v252.515z" fill="#d6faec"/><path d="m450.189 68.507v256.515h30.905v-252.515c0-2.209-1.791-4-4-4z" fill="#ccfae8"/><path d="m475.845 380.652h-439.69c-19.968 0-36.155-16.187-36.155-36.155v-19.474h512v19.474c0 19.968-16.187 36.155-36.155 36.155z" fill="#f8f7f7"/><path d="m481.095 325.022v19.474c0 19.968-16.187 36.155-36.155 36.155h30.905c19.968 0 36.155-16.187 36.155-36.155v-19.474z" fill="#efefef"/><path d="m381.445 474.398h-250.89c-3.545 0-6.418-2.873-6.418-6.418 0-12.955 10.502-23.457 23.457-23.457h216.812c12.955 0 23.457 10.502 23.457 23.457 0 3.545-2.873 6.418-6.418 6.418z" fill="#f8f7f7"/><path d="m364.406 444.523h-30.906c12.955 0 23.457 10.502 23.457 23.457 0 3.545-2.873 6.418-6.418 6.418h30.905c3.545 0 6.418-2.873 6.418-6.418.001-12.955-10.501-23.457-23.456-23.457z" fill="#efefef"/><path d="m212.147 104.235v178.774c0 4.329-5.234 6.497-8.295 3.436l-126.403-126.419c-2.421-2.421-2.376-6.376.12-8.719 33.779-31.696 78.755-51.605 128.348-53.148 3.414-.107 6.23 2.661 6.23 6.076z" fill="#e49a6b"/><path d="m205.917 98.158c-8.768.273-17.387 1.131-25.83 2.516.723 1.002 1.155 2.231 1.155 3.561v159.596l22.611 22.613c3.061 3.061 8.295.893 8.295-3.436v-178.773c-.001-3.415-2.817-6.183-6.231-6.077z" fill="#e0925b"/><path d="m212.147 136.302v-32.067c0-3.415-2.816-6.183-6.23-6.077-49.594 1.544-94.569 21.452-128.348 53.149-2.497 2.343-2.541 6.298-.12 8.719l21.285 21.287c31.146-25.9 70.413-42.361 113.413-45.011z" fill="#e0925b"/><g><path d="m205.917 98.158c-8.768.273-17.387 1.131-25.83 2.516.723 1.003 1.154 2.231 1.154 3.561v36.451c10.035-2.248 20.357-3.734 30.905-4.384v-32.067c.001-3.415-2.815-6.183-6.229-6.077z" fill="#d48145"/></g><g fill="#d64239"><circle cx="140.676" cy="217.042" r="17.513"/><circle cx="208.826" cy="236.668" r="17.513"/><circle cx="184.2" cy="177.556" r="17.513"/></g><ellipse cx="349.501" cy="193.017" fill="#7edbb0" rx="66.962" ry="66.637"/><path d="m349.501 126.38c-5.321 0-10.49.636-15.453 1.803 29.529 6.945 51.509 33.326 51.509 64.833s-21.981 57.888-51.509 64.833c4.963 1.167 10.132 1.803 15.453 1.803 36.982 0 66.962-29.834 66.962-66.636s-29.98-66.636-66.962-66.636z" fill="#51d39e"/><path d="m388.219 173.608c-2.767-3.083-7.508-3.34-10.591-.571l-35.204 31.603-15.292-14.928c-2.964-2.895-7.713-2.836-10.605.128-2.894 2.964-2.836 7.713.128 10.606l20.316 19.832c1.454 1.419 3.345 2.133 5.24 2.133 1.789 0 3.581-.637 5.009-1.919l40.429-36.293c3.081-2.766 3.337-7.509.57-10.591z" fill="#f8f7f7"/></g></svg>