<svg id="Layer_1" enable-background="new 0 0 512 512" height="512" viewBox="0 0 512 512" width="512" xmlns="http://www.w3.org/2000/svg"><g><path d="m347.317 89.307c-1.097-50.233-41.961-89.783-92.203-89.303-49.961.477-90.453 41.264-90.453 91.335 0 39.36 25.023 72.981 59.996 85.797 9.793 3.589 17.644 11.098 21.506 20.786l8.142 20.425c.697 1.748 3.175 1.739 3.858-.015l7.889-20.232c3.802-9.751 11.605-17.396 21.426-21.013 35.505-13.074 60.716-47.599 59.839-87.78z" fill="#7edbb0"/><path d="m347.317 89.307c-1.097-50.233-41.961-89.783-92.203-89.303-49.961.477-90.453 41.264-90.453 91.335 0 39.36 25.023 72.981 59.996 85.797 9.793 3.589 17.644 11.098 21.506 20.786l8.142 20.425c.697 1.748 3.175 1.739 3.858-.015l7.889-20.232c3.802-9.751 11.605-17.396 21.426-21.013 35.505-13.074 60.716-47.599 59.839-87.78z" fill="#7edbb0"/><path d="m347.317 89.308c-1.097-50.233-41.96-89.783-92.203-89.303-4.932.047-9.769.493-14.487 1.296 42.444 7.183 74.81 43.377 75.785 88.007.877 40.181-24.334 74.706-59.839 87.781-6.316 2.326-11.79 6.325-15.91 11.473 2.268 2.8 4.137 5.942 5.5 9.362l8.142 20.425c.697 1.748 3.175 1.739 3.859-.015l7.889-20.232c3.802-9.751 11.605-17.396 21.426-21.013 35.504-13.076 60.715-47.601 59.838-87.781z" fill="#51d39e"/><path d="m386.089 512h-260.178c-17.831 0-32.287-14.455-32.287-32.287v-23.753c0-3.575 2.898-6.473 6.473-6.473h311.806c3.575 0 6.473 2.898 6.473 6.473v23.753c0 17.832-14.455 32.287-32.287 32.287z" fill="#e49a6b"/><path d="m412.008 449.487h-30.905c3.517 0 6.368 2.946 6.368 6.58v23.111c0 18.127-14.22 32.821-31.761 32.821h30.905c17.541 0 31.761-14.695 31.761-32.821v-23.111c0-3.634-2.851-6.58-6.368-6.58z" fill="#e0925b"/><path d="m412.016 393.993h-312.032c-3.599 0-6.479-2.969-6.366-6.566.881-28.089 13.889-136.707 162.382-136.707s161.501 108.618 162.382 136.707c.113 3.597-2.767 6.566-6.366 6.566z" fill="#e49a6b"/><path d="m256 250.72c-5.33 0-10.466.156-15.453.427 133.939 7.283 146.08 109.2 146.929 136.28.113 3.597-2.767 6.566-6.366 6.566h30.905c3.599 0 6.479-2.969 6.366-6.566-.88-28.089-13.888-136.707-162.381-136.707z" fill="#e0925b"/><g><g fill="#f1f0f1"><path d="m205.163 296.736c2.33 0 4.625-1.082 6.091-3.116 2.421-3.361 1.66-8.048-1.701-10.47l-8.358-6.022c-3.36-2.423-8.047-1.661-10.469 1.7-2.421 3.361-1.66 8.048 1.701 10.47l8.358 6.022c1.326.956 2.859 1.416 4.378 1.416z"/><path d="m308.049 284.718-7.743 6.796c-3.113 2.732-3.422 7.471-.689 10.584 1.482 1.689 3.556 2.553 5.64 2.553 1.757 0 3.521-.613 4.944-1.863l7.743-6.796c3.113-2.732 3.422-7.471.689-10.584-2.732-3.115-7.472-3.422-10.584-.69z"/><path d="m260.621 296.21-10.277.711c-4.132.286-7.25 3.868-6.964 8 .273 3.956 3.568 6.982 7.474 6.982.174 0 .349-.006.525-.018l10.277-.711c4.132-.286 7.25-3.868 6.965-8-.287-4.132-3.879-7.238-8-6.964z"/><path d="m303.578 331.861-7.772-6.763c-3.123-2.719-7.86-2.389-10.581.735-2.719 3.125-2.39 7.862.735 10.581l7.772 6.763c1.42 1.236 3.174 1.842 4.92 1.842 2.095 0 4.178-.873 5.661-2.577 2.719-3.125 2.39-7.863-.735-10.581z"/><path d="m211.086 323.154-9.449 4.103c-3.799 1.65-5.542 6.067-3.893 9.867 1.227 2.826 3.986 4.515 6.883 4.515.997 0 2.01-.2 2.983-.622l9.449-4.103c3.799-1.65 5.542-6.067 3.893-9.867-1.649-3.799-6.065-5.542-9.866-3.893z"/><path d="m158.064 310.314-8.268 6.146c-3.324 2.471-4.016 7.169-1.545 10.493 1.472 1.98 3.734 3.026 6.025 3.026 1.555 0 3.124-.481 4.468-1.48l8.268-6.146c3.324-2.471 4.016-7.169 1.545-10.493-2.471-3.325-7.168-4.018-10.493-1.546z"/><path d="m364.317 316.459-8.269-6.146c-3.323-2.471-8.023-1.78-10.493 1.546-2.471 3.324-1.779 8.022 1.546 10.493l8.269 6.146c1.344.999 2.912 1.48 4.468 1.48 2.291 0 4.554-1.046 6.025-3.026 2.471-3.324 1.78-8.022-1.546-10.493z"/></g></g><path d="m306.375 72.64-25.231-21.895c-3.127-2.714-7.864-2.38-10.58.75-2.714 3.128-2.379 7.865.75 10.58l10.06 8.729h-28.268c-17.73 0-32.154 14.425-32.154 32.154v24.319c0 4.143 3.358 7.5 7.5 7.5s7.5-3.357 7.5-7.5v-24.319c0-9.459 7.695-17.154 17.154-17.154h28.32l-10.121 8.812c-3.124 2.72-3.451 7.457-.731 10.581 1.482 1.703 3.565 2.575 5.659 2.575 1.747 0 3.501-.606 4.922-1.844l25.231-21.969c1.638-1.426 2.577-3.491 2.575-5.662-.003-2.17-.945-4.233-2.586-5.657z" fill="#f1f0f1"/><path d="m411.193 451.507h-310.386c-8.735 0-15.817-7.081-15.817-15.817v-.745c0-8.735 7.081-15.817 15.817-15.817h310.387c8.735 0 15.817 7.081 15.817 15.817v.745c-.001 8.736-7.082 15.817-15.818 15.817z" fill="#7edbb0"/><path d="m411.557 419.128h-30.905c8.534 0 15.453 7.248 15.453 16.189 0 8.941-6.918 16.189-15.453 16.189h30.905c8.534 0 15.453-7.248 15.453-16.189 0-8.94-6.918-16.189-15.453-16.189z" fill="#51d39e"/><path d="m411.557 420.602h-311.114c-8.534 0-15.453-6.918-15.453-15.453 0-8.534 6.918-15.453 15.453-15.453h311.115c8.534 0 15.453 6.918 15.453 15.453-.001 8.534-6.919 15.453-15.454 15.453z" fill="#e07f5d"/><path d="m411.557 389.696h-30.905c8.534 0 15.453 6.918 15.453 15.453 0 8.534-6.918 15.453-15.453 15.453h30.905c8.534 0 15.453-6.918 15.453-15.453 0-8.534-6.918-15.453-15.453-15.453z" fill="#d06d4a"/></g></svg>