<svg id="Layer_1" enable-background="new 0 0 512 512" height="512" viewBox="0 0 512 512" width="512" xmlns="http://www.w3.org/2000/svg"><g><path d="m305.104 394.044h-289.929v-251.485c0-2.209 1.791-4 4-4h281.929c2.209 0 4 1.791 4 4z" fill="#f1f0f1"/><path d="m274.199 138.56v255.484h30.905v-251.484c0-2.209-1.791-4-4-4z" fill="#e7e4e7"/><path d="m455.011 276.604h-149.907v-90.656h119.739z" fill="#e4f7fc"/><path d="m424.843 185.948h-30.906l30.168 90.656h30.906z" fill="#d1f2fe"/><path d="m494.447 394.044h-189.343v-117.44h173.448c8.779 0 15.895 7.117 15.895 15.895z" fill="#ff6167"/><path d="m478.552 276.603h-30.905c8.779 0 15.895 7.117 15.895 15.895v101.545h30.905v-101.544c0-8.779-7.116-15.896-15.895-15.896z" fill="#fe454a"/><path d="m496.547 411.557h-481.094c-8.535 0-15.453-6.918-15.453-15.452 0-8.534 6.918-15.453 15.453-15.453h481.095c8.534 0 15.453 6.918 15.453 15.453-.001 8.534-6.919 15.452-15.454 15.452z" fill="#e0dce0"/><path d="m496.547 380.652h-30.905c8.534 0 15.453 6.918 15.453 15.453 0 8.534-6.918 15.453-15.453 15.453h30.905c8.534 0 15.453-6.918 15.453-15.453 0-8.535-6.918-15.453-15.453-15.453z" fill="#cbc4cc"/><circle cx="408.467" cy="410.527" fill="#7a6d79" r="46.358"/><circle cx="408.467" cy="410.527" fill="#d0d3d2" r="16.483"/><path d="m494.447 353.154h-18.833c-11.379 0-20.604-9.225-20.604-20.604 0-11.379 9.225-20.604 20.604-20.604h18.833z" fill="#ffe589"/><path d="m372.779 304.446h-15.215c-4.143 0-7.5 3.357-7.5 7.5s3.357 7.5 7.5 7.5h15.215c4.143 0 7.5-3.357 7.5-7.5s-3.357-7.5-7.5-7.5z" fill="#f1f0f1"/><path d="m305.104 185.948h30.905v90.656h-30.905z" fill="#fe454a"/><path d="m427.696 185.948h-122.592v-30.905h122.592c8.534 0 15.453 6.918 15.453 15.453-.001 8.533-6.919 15.452-15.453 15.452z" fill="#ff6167"/><path d="m427.696 155.042h-30.906c8.534 0 15.453 6.919 15.453 15.453s-6.918 15.453-15.453 15.453h30.905c8.534 0 15.453-6.919 15.453-15.453s-6.918-15.453-15.452-15.453z" fill="#fe454a"/><circle cx="95.973" cy="410.527" fill="#7a6d79" r="46.358"/><circle cx="95.973" cy="410.527" fill="#d0d3d2" r="16.483"/><circle cx="159.678" cy="186.978" fill="#2fd9e7" r="81.384"/><path d="m159.678 105.594c-5.286 0-10.448.522-15.453 1.484 37.555 7.221 65.932 40.239 65.932 79.9s-28.377 72.679-65.932 79.9c5.005.962 10.167 1.484 15.453 1.484 44.947 0 81.384-36.437 81.384-81.384s-36.437-81.384-81.384-81.384z" fill="#00d0e4"/><path d="m159.678 74.769c-4.143 0-7.5 3.512-7.5 7.846v22.632c0 4.334 3.357 7.846 7.5 7.846s7.5-3.512 7.5-7.846v-22.632c0-4.333-3.358-7.846-7.5-7.846z" fill="#686169"/><path d="m179.252 83.96h-39.147c-7.965 0-14.423-6.457-14.423-14.423 0-7.965 6.457-14.423 14.423-14.423h39.147c7.965 0 14.423 6.457 14.423 14.423-.001 7.966-6.458 14.423-14.423 14.423z" fill="#7b727b"/><path d="m179.252 55.115h-30.905c7.965 0 14.423 6.457 14.423 14.423s-6.457 14.423-14.423 14.423h30.905c7.965 0 14.423-6.457 14.423-14.423s-6.458-14.423-14.423-14.423z" fill="#686169"/><path d="m159.678 147.068c-4.143 0-7.5 3.357-7.5 7.5v32.409c0 4.143 3.357 7.5 7.5 7.5s7.5-3.357 7.5-7.5v-32.409c0-4.142-3.358-7.5-7.5-7.5z" fill="#ff6167"/><g><g fill="#f1f0f1"><path d="m159.678 119.853c-4.143 0-7.5 3.357-7.5 7.5v2.684c0 4.143 3.357 7.5 7.5 7.5s7.5-3.357 7.5-7.5v-2.684c0-4.143-3.358-7.5-7.5-7.5z"/><path d="m159.678 234.082c-4.143 0-7.5 3.357-7.5 7.5v2.684c0 4.143 3.357 7.5 7.5 7.5s7.5-3.357 7.5-7.5v-2.684c0-4.143-3.358-7.5-7.5-7.5z"/><path d="m199.116 153.871c1.92 0 3.84-.732 5.305-2.198l1.896-1.897c2.928-2.93 2.927-7.679-.003-10.606-2.929-2.93-7.678-2.929-10.606.003l-1.896 1.897c-2.928 2.93-2.927 7.679.003 10.606 1.463 1.464 3.382 2.195 5.301 2.195z"/><path d="m114.937 219.943-1.897 1.897c-2.929 2.93-2.929 7.678 0 10.607 1.465 1.464 3.385 2.196 5.304 2.196s3.839-.732 5.304-2.196l1.897-1.897c2.929-2.93 2.929-7.678 0-10.607-2.931-2.927-7.679-2.927-10.608 0z"/><path d="m218.135 178.31h-2.684c-4.143 0-7.5 3.357-7.5 7.5s3.357 7.5 7.5 7.5h2.684c4.143 0 7.5-3.357 7.5-7.5s-3.358-7.5-7.5-7.5z"/><path d="m103.904 178.31h-2.683c-4.143 0-7.5 3.357-7.5 7.5s3.357 7.5 7.5 7.5h2.683c4.143 0 7.5-3.357 7.5-7.5s-3.357-7.5-7.5-7.5z"/><path d="m204.421 219.945c-2.929-2.931-7.678-2.932-10.606-.003-2.93 2.928-2.931 7.677-.003 10.606l1.896 1.897c1.465 1.466 3.385 2.198 5.305 2.198 1.919 0 3.838-.731 5.302-2.195 2.93-2.928 2.931-7.677.003-10.606z"/><path d="m123.646 139.17c-2.93-2.928-7.678-2.928-10.607 0-2.929 2.93-2.929 7.678 0 10.607l1.897 1.897c1.465 1.464 3.385 2.196 5.304 2.196s3.839-.732 5.304-2.196c2.929-2.93 2.929-7.678 0-10.607z"/></g></g><path d="m252.415 309.773-35.808-21.885c-3.532-2.159-8.15-1.047-10.311 2.488-2.16 3.534-1.046 8.15 2.488 10.311l13.065 7.985h-142.359c-4.143 0-7.5 3.357-7.5 7.5s3.357 7.5 7.5 7.5h141.912l-12.562 7.529c-3.553 2.129-4.707 6.735-2.577 10.288 1.405 2.346 3.891 3.646 6.439 3.646 1.312 0 2.642-.345 3.849-1.068l35.808-21.462c2.251-1.349 3.633-3.776 3.645-6.4s-1.35-5.063-3.589-6.432z" fill="#ff6167"/><path d="m159.678 98.094c-49.011 0-88.884 39.873-88.884 88.884s39.873 88.885 88.884 88.885c49.012 0 88.885-39.874 88.885-88.885s-39.874-88.884-88.885-88.884zm0 162.768c-40.739 0-73.884-33.145-73.884-73.885 0-40.739 33.145-73.884 73.884-73.884 40.74 0 73.885 33.145 73.885 73.884-.001 40.741-33.145 73.885-73.885 73.885z" fill="#7b727b"/></g></svg>