<svg id="Layer_1" enable-background="new 0 0 512 512" height="512" viewBox="0 0 512 512" width="512" xmlns="http://www.w3.org/2000/svg"><g><path d="m383.468 183.793v202.996c0 3.262-2.592 5.906-5.79 5.906h-243.356c-3.198 0-5.79-2.644-5.79-5.906v-202.996c0-9.487.825-18.956 2.465-28.295l10.286-58.568h229.434l10.286 58.568c1.64 9.339 2.465 18.807 2.465 28.295z" fill="#e49a6b"/><path d="m381.003 155.498-10.286-58.568h-30.905l10.286 58.568c1.64 9.339 2.465 18.808 2.465 28.295v202.996c0 3.262-2.592 5.905-5.79 5.905h30.905c3.198 0 5.79-2.644 5.79-5.905v-202.996c0-9.488-.825-18.956-2.465-28.295z" fill="#e0925b"/><path d="m377.72 104.512h-243.441c-3.787 0-6.857-3.07-6.857-6.857v-37.717c0-3.787 3.07-6.857 6.857-6.857h243.441c3.787 0 6.858 3.07 6.858 6.857v37.716c0 3.788-3.07 6.858-6.858 6.858z" fill="#e0925b"/><path d="m481.601 28.82c-39.401-38.655-102.894-38.425-142.009.689-30.747 30.747-37.464 76.559-20.155 113.891 4.847 10.453 5.113 22.452.562 33.037l-9.595 22.316c-.821 1.91 1.122 3.838 3.025 3.003l21.968-9.643c10.587-4.647 22.655-4.524 33.152.323 37.949 17.522 84.615 10.246 115.318-21.827 38.384-40.097 37.358-102.915-2.266-141.789z" fill="#7edbb0"/><g><path d="m481.601 28.82c-23.557-23.111-55.724-32.309-86.146-27.621 20.187 3.096 39.611 12.287 55.241 27.621 39.624 38.874 40.65 101.692 2.266 141.789-15.99 16.704-36.311 26.665-57.473 29.918 31.4 4.829 64.654-5.134 88.379-29.918 38.383-40.097 37.357-102.915-2.267-141.789z" fill="#51d39e"/></g><path d="m410.311 396.532c0 10.295-8.302 18.64-18.543 18.64h-96.053c-22.855 0-45.378 5.494-65.692 16.023l-111.062 57.568c-9.044 4.688-18.785 7.882-28.846 9.459l-87.736 13.753c-1.25.196-2.379-.772-2.379-2.039v-89.614c0-1.043.777-1.922 1.81-2.048l50.131-6.152c9.129-1.12 17.997-3.805 26.217-7.937l36.028-18.111c10.763-5.41 20.469-12.725 28.652-21.594l60.03-65.057c6.176-6.693 16.355-7.747 23.767-2.462 8.234 5.871 10.109 17.374 4.169 25.58l-32.353 44.695c-3.21 4.434-.059 10.656 5.397 10.656h187.919c10.242 0 18.544 8.345 18.544 18.64z" fill="#ffd8ca"/><g fill="#ffbead"><path d="m199.899 322.541-32.353 44.695c-3.21 4.434-.059 10.656 5.397 10.656h30.905c-5.455 0-8.606-6.222-5.397-10.656l32.353-44.695c5.94-8.206 4.065-19.709-4.17-25.58-7.419-5.29-17.59-4.233-23.775 2.47l-2.365 2.563c3.908 6.132 3.932 14.294-.595 20.547z"/><path d="m391.768 377.892h-30.905c10.241 0 18.543 8.345 18.543 18.64 0 10.295-8.302 18.64-18.543 18.64h30.905c10.241 0 18.543-8.345 18.543-18.64 0-10.295-8.302-18.64-18.543-18.64z"/><path d="m199.117 431.195-111.062 57.568c-9.045 4.688-18.781 7.882-28.836 9.458l-59.219 9.282v2.433c0 1.267 1.129 2.235 2.379 2.039l87.746-13.754c10.055-1.576 19.791-4.77 28.836-9.458l111.062-57.568c20.313-10.529 42.837-16.023 65.692-16.023h-30.905c-22.856 0-45.38 5.494-65.693 16.023z"/></g><path d="m467.383 67.682c-2.767-3.083-7.51-3.34-10.591-.571l-62.342 55.963-28.928-28.239c-2.967-2.895-7.714-2.835-10.606.128-2.893 2.964-2.836 7.713.128 10.606l33.952 33.144c1.454 1.419 3.346 2.133 5.24 2.133 1.789 0 3.581-.637 5.009-1.919l67.566-60.653c3.084-2.768 3.338-7.51.572-10.592z" fill="#f8f7f7"/></g></svg>