<svg id="Capa_1" enable-background="new 0 0 512 512" height="512" viewBox="0 0 512 512" width="512" xmlns="http://www.w3.org/2000/svg"><g><path d="m406 137.308v-77.308l-30-30-30 30v77.308c-14.626 11.027-24.503 27.036-28.207 44.692l28.207 30h30 30l28.209-30c-3.704-17.657-13.583-33.666-28.209-44.692z" fill="#ff6a4d"/><path d="m434.209 182c-3.704-17.657-13.583-33.666-28.209-44.692v-77.308l-30-30v182h30z" fill="#e64d2e"/><path d="m376 0h-30v60h30 30v-60z" fill="#474f54"/><path d="m376 0h30v60h-30z" fill="#32393f"/><path d="m434.209 182h-58.209-58.207c-1.029 4.909-1.793 9.899-1.793 15l-15 24.844v50.156l15 15h60 60v-90c0-5.101-.762-10.091-1.791-15z" fill="#474f54"/><path d="m436 197c0-5.101-.762-10.091-1.791-15h-58.209v105h60z" fill="#32393f"/><path d="m286 137.308v-77.308l-30-30-30 30v77.308c-14.626 11.027-24.503 27.036-28.207 44.692l28.207 30h30 30l28.209-30c-3.704-17.657-13.583-33.666-28.209-44.692z" fill="#ff6a4d"/><path d="m314.209 182c-3.704-17.657-13.583-33.666-28.209-44.692v-77.308l-30-30v182h30z" fill="#e64d2e"/><path d="m256 0h-30v60h30 30v-60z" fill="#474f54"/><path d="m256 0h30v60h-30z" fill="#32393f"/><path d="m314.209 182h-58.209-58.207c-1.029 4.909-1.793 9.899-1.793 15l-15 24.844v50.156l15 15h60 60v-90c0-5.101-.762-10.091-1.791-15z" fill="#474f54"/><path d="m316 197c0-5.101-.762-10.091-1.791-15h-58.209v105h60z" fill="#32393f"/><path d="m166 137.308v-77.308l-30-30-30 30v77.308c-14.626 11.026-24.503 27.035-28.207 44.692l28.207 30h30 30l28.209-30c-3.704-17.657-13.583-33.666-28.209-44.692z" fill="#ff6a4d"/><path d="m194.209 182c-3.704-17.657-13.583-33.666-28.209-44.692v-77.308l-30-30v182h30z" fill="#e64d2e"/><path d="m136 0h-30v60h30 30v-60z" fill="#474f54"/><path d="m136 0h30v60h-30z" fill="#32393f"/><path d="m194.209 182h-58.209-58.207c-1.029 4.909-1.793 9.899-1.793 15v90h60 60v-90c0-5.101-.762-10.091-1.791-15z" fill="#474f54"/><path d="m196 197c0-5.101-.762-10.091-1.791-15h-58.209v105h60z" fill="#32393f"/><path d="m512 212v300h-512v-300h30v30h452v-30z" fill="#ffd480"/><g fill="#fabe2c"><path d="m512 212v300h-256v-270h226v-30z"/><path d="m30 272h452v90h-452z"/><path d="m30 392h452v90h-452z"/></g><path d="m256 272h226v90h-226z" fill="#ff9100"/><path d="m256 392h226v90h-226z" fill="#ff9100"/><path d="m60 302h30v30h-30z" fill="#575f64"/><path d="m422 302h30v30h-30z" fill="#474f54"/><path d="m60 422h30v30h-30z" fill="#575f64"/><path d="m422 422h30v30h-30z" fill="#474f54"/></g></svg>