<svg id="Capa_1" enable-background="new 0 0 511.994 511.994" height="512" viewBox="0 0 511.994 511.994" width="512" xmlns="http://www.w3.org/2000/svg"><g><path d="m390.997 105.994v-27.51l-4.014-4.307c-1.635-1.756-2.487-3.869-2.622-6.313-.498-8.145-3.765-15.82-9.243-21.636-5.596-5.933-13.213-10.609-21.665-11.386-1.714-.132-3.691-.571-5.156-3.486-3.354-7.471-9.243-13.462-16.641-16.904-7.163-3.296-15.439-4.014-23.203-2.007-2.681.586-4.57.103-6.211-1.523-5.625-5.874-12.729-9.511-20.522-10.595-7.837-1.113-16.011.688-22.983 5.054-.831.549-1.796.879-2.739.879-.969 0-1.915-.344-2.813-.923-6.899-4.321-14.985-6.138-22.91-5.01-7.793 1.084-14.897 4.721-20.288 10.36-2.373 2.358-4.702 2.168-6.343 1.787-7.852-2.036-16.143-1.348-23.35 1.992-7.354 3.428-13.242 9.419-16.318 16.318-1.743 3.486-3.721 3.926-5.64 4.072-8.247.762-15.864 5.438-21.489 11.4-5.42 5.771-8.701 13.433-9.243 21.797-.115 2.278-.982 4.393-2.593 6.123l-4.014 4.307v27.51l30 22.5v307.5l-30 30c3.003 1.243 26.631 46 135 46 45.731 0 102.116-14.488 135-46l-30-30v-307.5z" fill="#a9e62e"/><path d="m360.997 435.994v-307.5l30-22.5v-27.51l-4.014-4.307c-1.635-1.756-2.487-3.869-2.622-6.313-.498-8.145-3.765-15.82-9.243-21.636-5.596-5.933-13.213-10.609-21.665-11.386-1.714-.132-3.691-.571-5.156-3.486-3.354-7.471-9.243-13.462-16.641-16.904-7.163-3.296-15.439-4.014-23.203-2.007-2.681.586-4.57.103-6.211-1.523-5.625-5.874-12.729-9.511-20.522-10.595-7.837-1.113-16.011.688-22.983 5.054-.831.549-1.796.878-2.739.878v505.735c45.731 0 102.116-14.488 135-46z" fill="#7bcc29"/><path d="m285.997 60.994c-16.569 0-30 13.431-30 30 0-16.569-13.431-30-30-30s-30 13.431-30 30v150h60 60v-150c0-16.569-13.431-30-30-30z" fill="#e64d2e"/><path d="m315.997 240.994h-60v-150c0-16.569 13.431-30 30-30 16.569 0 30 13.431 30 30z" fill="#cd0000"/><path d="m390.997 255.994v-150c-99.412 0-180 80.588-180 180s80.588 180 180 180v-150l-30-30z" fill="#ff9100"/><path d="m255.997 167.208c-32.986-37.458-81.165-61.214-135-61.214v150l30 30-30 30v150c53.835 0 102.014-23.758 135-61.216 27.925-31.712 45-73.207 45-118.784s-17.074-87.074-45-118.786z" fill="#ffd480"/><path d="m255.997 167.208v237.57c27.925-31.712 45-73.207 45-118.784s-17.074-87.074-45-118.786z" fill="#fabe2c"/><g><path d="m180.997 180.994h30v30h-30z" fill="#fabe2c"/></g><g><path d="m180.997 360.994h30v30h-30z" fill="#fabe2c"/></g><path d="m255.997 255.994h-135v60h135 135v-60z" fill="#f89580"/><path d="m255.997 255.994h135v60h-135z" fill="#ed7d6b"/></g></svg>