<svg id="Capa_1" enable-background="new 0 0 512 512" height="512" viewBox="0 0 512 512" width="512" xmlns="http://www.w3.org/2000/svg"><g><path d="m507.074 369.086c-3.354-6.987-3.398-14.839-.308-23.569 2.783-7.207 3.882-15.015 3.076-23.364-1.128-7.617-3.911-14.912-7.822-20.713-5.244-8.291-6.943-15.923-5.01-24.434 1.143-7.324.557-15.088-1.685-22.441-2.505-8.291-6.694-15.161-12.056-19.995-5.991-5.83-9.141-13.33-9.375-22.09-.103-8.774-2.183-16.538-5.933-22.646-3.823-6.694-9.067-12.451-15.396-16.816-7.28-4.834-11.777-11.499-13.491-20.229-1.641-7.251-5.039-14.268-9.58-19.98-4.746-6.343-11.411-11.323-18.838-14.253-4.014-1.719-7.465-4.039-10.327-6.885-2.842-2.825-5.103-6.167-6.738-9.976-3.12-7.837-8.101-14.473-14.063-18.94-6.05-4.79-13.066-8.188-20.742-9.917-8.306-1.626-14.971-6.123-19.951-13.623-4.219-6.108-9.976-11.353-16.274-14.941-6.504-3.984-14.268-6.064-22.808-6.167-8.994-.234-16.494-3.384-21.943-8.965-5.244-5.801-12.114-10.005-20.347-12.466-7.383-2.227-15.146-2.842-23.54-1.479-7.441 1.758-15.088.015-22.998-4.966-6.167-4.16-13.462-6.943-21.855-8.159-7.559-.776-15.366.381-22.207 3.018-9.111 3.267-16.934 3.208-24.565-.454-6.812-2.9-14.443-4.102-22.881-3.472-9.053.806-16.406 3.296-22.046 7.339-6.709 4.468-14.78 5.801-23.613 4.131-8.511-1.758-16.45-1.479-23.071.645-18.281 5.284-31.435 20.241-33.486 38.112l-.835 7.192 218.525 218.525 218.525 218.525 7.207-.835c17.871-2.08 32.827-15.234 37.983-33.135 2.241-7.061 2.505-14.941.806-23.247-1.758-9.082-.381-17.08 3.794-23.379 4.307-6.006 6.797-13.345 7.632-22.427l.015-.308c.586-8.216-.6-15.833-3.779-23.216z" fill="#a9e62e"/><path d="m460.624 494.799c17.871-2.08 32.827-15.234 37.983-33.135 2.241-7.061 2.505-14.941.806-23.247-1.758-9.082-.381-17.08 3.794-23.379 4.307-6.006 6.797-13.345 7.632-22.427l.015-.308c.586-8.218-.601-15.835-3.779-23.218-3.354-6.987-3.398-14.839-.308-23.569 2.783-7.207 3.882-15.015 3.076-23.364-1.128-7.617-3.911-14.912-7.822-20.713-5.244-8.291-6.943-15.923-5.01-24.434 1.143-7.324.557-15.088-1.685-22.441-2.505-8.291-6.694-15.161-12.056-19.995-5.991-5.83-9.141-13.33-9.375-22.09-.103-8.774-2.183-16.538-5.933-22.646-3.823-6.694-9.067-12.451-15.396-16.816-7.28-4.834-11.777-11.499-13.491-20.229-1.641-7.251-5.039-14.268-9.58-19.98-4.746-6.343-11.411-11.323-18.838-14.253-4.014-1.719-7.465-4.039-10.327-6.885l-165.438 165.438 218.525 218.525z" fill="#7bcc29"/><g><path d="m209.433 254.667-134.693-100.547 3.062-10.078c12.539-41.338 47.153-68.042 88.198-68.042 36.812 0 69.565 22.075 83.423 56.25 15.234 37.529 3.721 79.951-30.806 113.496z" fill="#e64d2e"/></g><g><path d="m356.898 437.362-106.875-125.405 8.203-9.712c33.984-40.283 78.311-55.518 118.594-40.811 35.391 12.935 59.18 46.92 59.18 84.566 0 41.807-27.407 76.641-69.829 88.726z" fill="#cd0000"/></g><path d="m351.416 160.584c-24.444-24.445-58.194-39.584-95.416-39.584-53.394 0-101.001 31.055-124.248 81.05l-4.409 9.521 86.543 86.543 86.543 86.543 9.521-4.409c49.995-23.247 81.05-70.854 81.05-124.248 0-37.222-15.139-70.972-39.584-95.416z" fill="#ff6a4d"/><path d="m309.95 380.248c49.995-23.247 81.05-70.854 81.05-124.248 0-37.222-15.139-70.972-39.584-95.416l-137.53 137.53 86.543 86.543z" fill="#e64d2e"/><path d="m309.007 202.993c-13.581-13.581-32.331-21.993-53.007-21.993-32.285 0-60.513 20.449-71.909 52.104l49.47 45.335 51.326 47.038c28.447-12.685 46.113-39.301 46.113-69.477 0-20.676-8.412-39.426-21.993-53.007z" fill="#e64d2e"/><path d="m331 256c0-20.676-8.412-39.426-21.993-53.007l-75.447 75.447 51.326 47.038c28.448-12.686 46.114-39.302 46.114-69.478z" fill="#cd0000"/><path d="m256 256-256-256v512h512z" fill="#ffd480"/><path d="m256 256-256 256h512z" fill="#fabe2c"/><g><path d="m61 301h30v30h-30z" fill="#fabe2c"/></g><g><path d="m241 361h30v30h-30z" fill="#ff9100"/></g><g><path d="m121 241h30v30h-30z" fill="#fabe2c"/></g><g><path d="m181 421h30v30h-30z" fill="#ff9100"/></g><g fill="#fabe2c"><path d="m61 421h30v30h-30z"/><path d="m121 361h30v30h-30z"/><path d="m181 301h30v30h-30z"/></g><g fill="#ff9100"><path d="m91 421-30 30h30z"/><path d="m151 361-30 30h30z"/><path d="m211 301-30 30h30z"/></g></g></svg>