<svg id="Capa_1" enable-background="new 0 0 512 512" height="512" viewBox="0 0 512 512" width="512" xmlns="http://www.w3.org/2000/svg"><g><path d="m242 436h-106-106l-30 15v61h136 136v-61z" fill="#fabe2c"/><path d="m272 451-30-15h-106v76h136z" fill="#ff9100"/><path d="m136 0h-106v60l31 15h75 75l31-15v-60z" fill="#f2f9ff"/><path d="m242 60v-60h-106v75h75z" fill="#dfe7f4"/><path d="m242 60h-106-106l-30 106 30 15h106 106l30-15z" fill="#fabe2c"/><path d="m272 166-30-106h-106v121h106z" fill="#ff9100"/><path d="m136 166h-136v285h136 136v-285z" fill="#f2f9ff"/><path d="m136 166h136v285h-136z" fill="#dfe7f4"/><path d="m467 241c-30.941 0-57.554 18.847-69 45.656v44.344h39c41.353 0 75-33.647 75-75v-15z" fill="#6b0"/><path d="m407 270.344c-8.417-13.586-17.571-23.126-19.395-24.95l-21.226 21.196c7.12 7.179 25.621 30.059 25.621 49.41h15 15c0-16.946-7.185-33.04-15-45.656z" fill="#a9e62e"/><path d="m407 270.344v45.656h15c0-16.946-7.185-33.04-15-45.656z" fill="#7bcc29"/><path d="m407 301c-57.891 0-105 47.109-105 105s47.109 106 105 106 105-48.109 105-106-47.109-105-105-105z" fill="#fabe2c"/><path d="m512 406c0-57.891-47.109-105-105-105v211c57.891 0 105-48.109 105-106z" fill="#ff9100"/><path d="m136 211h-15v45h15 15v-45z" fill="#a9e62e"/><path d="m136 211h15v45h-15z" fill="#7bcc29"/><circle cx="136" cy="316" fill="#fabe2c" r="75"/><path d="m211 316c0-41.353-33.647-75-75-75v150c41.353 0 75-33.647 75-75z" fill="#ff9100"/></g></svg>