<svg id="Capa_1" enable-background="new 0 0 512 512" height="512" viewBox="0 0 512 512" width="512" xmlns="http://www.w3.org/2000/svg"><g><path d="m512 181c0-99.258-88.48-181-196-181-45.352 0-86.94 15.127-120 38.872-43.997 31.599-72.841 80.288-74.883 135.932l44.151 186.196h30.732 295.272l-29.663-59.297c32.579-33.149 50.391-75.6 50.391-120.703z" fill="#ff6a4d"/><path d="m461.609 301.703c32.579-33.149 50.391-75.6 50.391-120.703 0-99.258-88.48-181-196-181-45.352 0-86.94 15.127-120 38.872v322.128h295.272z" fill="#e64d2e"/><path d="m196 151c-107.52 0-196 80.742-196 180 0 45.103 18.813 87.554 51.391 120.703l-30.663 60.297h175.272c107.52 0 196-81.742 196-181s-88.48-180-196-180z" fill="#fabe2c"/><path d="m392 331c0-99.258-88.48-180-196-180v361c107.52 0 196-81.742 196-181z" fill="#ff9100"/><g><path d="m196 211h-15v60h15 15v-60z" fill="#dfe7f4"/><path d="m196 211h15v60h-15z" fill="#c7cfe1"/><path d="m196 241c-57.99 0-105 47.01-105 105v30h105 105v-30c0-57.99-47.01-105-105-105z" fill="#f2f9ff"/><path d="m301 346c0-57.99-47.01-105-105-105v135h105z" fill="#dfe7f4"/><path d="m196 361h-135v30h135 135v-30z" fill="#dfe7f4"/><path d="m196 361h135v30h-135z" fill="#c7cfe1"/></g></g></svg>