<svg id="Capa_1" enable-background="new 0 0 512 512" height="512" viewBox="0 0 512 512" width="512" xmlns="http://www.w3.org/2000/svg"><g><path d="m196 107.199h-150l8.101 103.801 14.399 30 127.5-14.861 129.901-15.139 14.699-30 5.4-73.801z" fill="#f2f9ff"/><path d="m340.6 181 5.4-73.801h-150v118.94l129.901-15.139z" fill="#dfe7f4"/><g><path d="m224.052 240.722-29.707-4.248 33.647-236.474h133.008v30h-106.992z" fill="#474f54"/></g><path d="m325.901 181c-70.862.287-101.635 7.434-129.901 14.617-37.473 9.501-62.983 14.813-127.5 15.383h-14.399l23.099 301h118.8 119.7l24.9-331z" fill="#ffd480"/><g><path d="m340.6 181h-14.7c-70.862.287-101.635 7.434-129.901 14.617v316.383h119.7z" fill="#fabe2c"/></g><g><path d="m136 271h30v30h-30z" fill="#f2f9ff"/></g><g><path d="m136 391h30v30h-30z" fill="#f2f9ff"/></g><g><path d="m226 271h30v30h-30z" fill="#dfe7f4"/></g><g><path d="m451 391c-38.39 0-71.686 20.94-90 51.78-18.314-30.84-51.61-51.78-90-51.78h-45v15c0 57.891 47.109 106 105 106h30 30c57.891 0 105-48.109 105-106v-15z" fill="#a9e62e"/></g><path d="m496 406v-15h-45c-38.39 0-71.686 20.94-90 51.78v69.22h30c57.891 0 105-48.109 105-106z" fill="#7bcc29"/><g><path d="m181 331h30v30h-30z" fill="#f2f9ff"/></g><g><path d="m196 331h15v30h-15z" fill="#dfe7f4"/></g><path d="m196 91h-180v30h180 180v-30z" fill="#dfe7f4"/><path d="m196 91h180v30h-180z" fill="#c7cfe1"/></g></svg>