<svg id="Capa_1" enable-background="new 0 0 512 512" height="512" viewBox="0 0 512 512" width="512" xmlns="http://www.w3.org/2000/svg"><g><g fill="#ff6a4d"><path d="m136 437h-90l-30 15v60h120 120v-60l-30-15z"/><path d="m204.701 124.823c-5.039-1.67-8.701-7.72-8.701-14.37v-80.453h-60-60v80.453c0 6.65-3.662 12.7-8.716 14.37-30.674 10.225-51.284 38.833-51.284 71.177v15l30 15h90 90l30-15v-15c0-32.344-20.61-60.952-51.299-71.177z"/></g><path d="m256 452-30-15h-90v75h120z" fill="#e64d2e"/><path d="m256 211v-15c0-32.344-20.61-60.952-51.299-71.177-5.039-1.67-8.701-7.72-8.701-14.37v-80.453h-60v196h90z" fill="#e64d2e"/><path d="m196 0h-60-60c-16.569 0-30 13.431-30 30v30h90 90v-30c0-16.569-13.431-30-30-30z" fill="#575f64"/><path d="m226 30c0-16.569-13.431-30-30-30h-60v60h90z" fill="#474f54"/><path d="m391 270.344c-8.417-13.586-17.571-23.126-19.395-24.95l-21.226 21.196c7.12 7.179 25.621 30.059 25.621 49.41v15h15 15v-15c0-16.946-7.185-33.04-15-45.656z" fill="#a9e62e"/><path d="m406 316c0-16.946-7.185-33.04-15-45.656v60.656h15z" fill="#7bcc29"/><path d="m436 301c-13.594 0-26.396 4.409-37.002 12.744-2.283 1.787-5.143 2.679-7.998 2.679-2.858 0-5.711-.892-7.983-2.679-10.65-8.335-23.438-12.744-37.017-12.744-33.091 0-60 26.909-60 60 0 92.52 28.74 151 75 151 7.266 0 14.502-1.787 20.918-5.186 2.966-1.571 6.021-2.357 9.082-2.357 3.047 0 6.101.778 9.082 2.357 6.416 3.399 13.652 5.186 20.918 5.186 45.557 0 75-59.872 75-151 0-33.091-26.909-60-60-60z" fill="#ff6a4d"/><path d="m421 512c45.557 0 75-59.872 75-151 0-33.091-26.909-60-60-60-13.594 0-26.396 4.409-37.002 12.744-2.283 1.787-5.143 2.679-7.998 2.679v188.035c3.047 0 6.101.778 9.082 2.357 6.416 3.398 13.652 5.185 20.918 5.185z" fill="#e64d2e"/><path d="m136 211h-120v241h120 120v-241z" fill="#f2f9ff"/><path d="m136 211h120v241h-120z" fill="#dfe7f4"/><circle cx="136" cy="331" fill="#ff6a4d" r="60"/><path d="m196 331c0-33.091-26.909-60-60-60v120c33.091 0 60-26.909 60-60z" fill="#e64d2e"/></g></svg>