<svg id="Capa_1" enable-background="new 0 0 512.048 512.048" height="512" viewBox="0 0 512.048 512.048" width="512" xmlns="http://www.w3.org/2000/svg"><g><path d="m463.722 48.374c-.007-.007-.013-.016-.02-.024-64.336-64.336-169.014-64.336-233.35 0l-182 182c-64.336 64.336-64.336 169.014 0 233.35.007.007.016.013.024.02 64.34 64.314 168.995 64.31 233.326-.02l182-182c64.328-64.329 64.334-168.986.02-233.326z" fill="#fabe2c"/><path d="m281.701 463.7 182-182c64.329-64.329 64.334-168.986.02-233.326l-415.345 415.346c64.339 64.314 168.995 64.31 233.325-.02z" fill="#ff9100"/><g fill="#ff6a4d"><path d="m358.423 26.392-332.029 332.029c-35.515 35.515-34.867 92.443 0 127.28l459.31-459.31c-35.193-35.223-92.132-35.148-127.281.001z"/><path d="m153.674 485.702 332.029-332.029c35.132-35.132 35.12-92.161 0-127.28l-459.31 459.31c35.133 35.131 92.163 35.117 127.281-.001z"/></g><path d="m153.674 485.702 332.029-332.029c35.132-35.132 35.12-92.161 0-127.28l-459.31 459.31c35.133 35.131 92.163 35.117 127.281-.001z" fill="#e64d2e"/><path d="m421.056 92.475c-1.104 1.15-2.582 1.562-3.851 2.415-4.574 3.071-9.818 4.775-15.471 3.664-35.718-7.2-67.231 24.437-60.073 60.073 1.139 5.685-.582 10.842-3.419 15.225-1.604 2.483-3.582 4.446-6.07 6.07-4.336 2.827-9.454 4.592-15.297 3.475-35.248-7.216-67.278 24.029-60.073 60.088 1.152 5.742-.591 10.873-3.428 15.234-1.613 2.481-3.582 4.451-6.066 6.066-4.367 2.84-9.514 4.596-15.276 3.47-35.839-7.086-67.224 24.478-60.073 60.073 1.139 5.682-.584 10.844-3.424 15.231-1.599 2.468-3.565 4.42-6.039 6.039-4.334 2.834-9.457 4.609-15.322 3.501-35.411-7.187-67.255 24.17-60.073 60.073l14.762-2.941 14.652-2.919c-1.126-5.636.564-10.701 3.309-15.042 1.675-2.651 3.774-4.746 6.429-6.429 4.318-2.737 9.359-4.44 15.033-3.329 35.63 7.137 67.238-24.287 60.088-60.073-1.124-5.616.56-10.681 3.305-15.024 1.67-2.64 3.763-4.73 6.411-6.411 4.31-2.736 9.349-4.444 15.055-3.336 35.85 7.101 67.2-24.457 60.073-60.059-1.121-5.605.551-10.671 3.285-15.018 1.674-2.664 3.785-4.766 6.454-6.454 4.299-2.721 9.324-4.424 15.046-3.327 35.511 7.202 67.231-24.254 60.073-60.073-1.121-5.594.546-10.653 3.276-14.995 1.668-2.653 3.772-4.75 6.436-6.436 4.297-2.721 9.324-4.427 15.059-3.34 17.153 3.369 34.688-2.065 46.86-14.722z" fill="#ffd480"/><g fill="#fabe2c"><path d="m395.846 127.968c17.153 3.369 34.688-2.065 46.86-14.722l-21.65-20.771c-1.104 1.15-2.582 1.562-3.851 2.415l-36.418 36.418c4.298-2.721 9.324-4.427 15.059-3.34z"/><path d="m141.285 382.514c35.63 7.137 67.238-24.287 60.088-60.073-1.124-5.616.56-10.681 3.305-15.024l-36.143 36.143c-1.599 2.468-3.565 4.42-6.039 6.039l-36.244 36.244c4.318-2.737 9.359-4.44 15.033-3.329z"/><path d="m119.824 392.272-17.961 17.961 14.652-2.919c-1.126-5.636.564-10.701 3.309-15.042z"/><path d="m226.144 297.671c35.85 7.101 67.2-24.457 60.073-60.059-1.121-5.605.551-10.671 3.285-15.018l-36.127 36.127c-1.613 2.481-3.582 4.451-6.066 6.066l-36.22 36.22c4.31-2.736 9.349-4.444 15.055-3.336z"/><path d="m311.002 212.812c35.511 7.202 67.231-24.254 60.073-60.073-1.121-5.594.546-10.653 3.276-14.995l-36.108 36.108c-1.604 2.483-3.582 4.446-6.07 6.07l-36.216 36.216c4.299-2.72 9.323-4.423 15.045-3.326z"/></g></g></svg>