<svg id="Capa_1" enable-background="new 0 0 512.513 512.513" height="512" viewBox="0 0 512.513 512.513" width="512" xmlns="http://www.w3.org/2000/svg"><g><path d="m190.822 397.559-88.096 19.394 20.757 95.56 87.978-19.409z" fill="#dfe7f4"/><path d="m346.271 0h-90-84.038c-76.846 0-154.691 60.776-168.798 132.715-6.65 33.926-2.725 68.203 11.353 99.126 26.221 57.583 43.144 120.996 56.444 180.952l5.654 25.415 146.279-32.622-3.252-14.634c-6.01-26.955 10.926-52.747 36.357-59.282 3.997-1.027 8.161-1.67 12.524-1.67h71.821c91.031 0 171.777-68.665 171.61-165-.157-91.408-74.839-165-165.954-165z" fill="#ffe1ba"/><path d="m340.617 330c91.031 0 171.777-68.665 171.61-165-.16-91.407-74.841-165-165.956-165h-90v331.67c3.997-1.027 8.161-1.67 12.524-1.67z" fill="#ffbfab"/><path d="m346.271 60h-90-84.038c-48.354 0-101.269 40.166-109.911 84.258-4.292 21.87-1.904 42.979 7.09 62.739 18.486 40.649 34.853 86.851 49.354 145.386l3.53 14.224 38.218-8.525 2.461-8.54c12.332-42.759 49.744-73.434 93.296-78.499 4.147-.482 8.28-1.042 12.524-1.042h71.821c55.831 0 111.284-41.012 111.671-104.478.358-58.366-48.016-105.523-106.016-105.523z" fill="#ff6a4d"/><path d="m340.617 270c55.831 0 111.284-41.011 111.672-104.479.356-58.365-48.017-105.521-106.018-105.521h-90v211.042c4.147-.482 8.28-1.042 12.524-1.042z" fill="#e64d2e"/><path d="m346.271 210c-24.814 0-45-20.186-45-45s20.186-45 45-45 45 20.186 45 45-20.186 45-45 45z" fill="#dfe7f4"/></g></svg>