<svg id="Capa_1" enable-background="new 0 0 511.941 511.941" height="512" viewBox="0 0 511.941 511.941" width="512" xmlns="http://www.w3.org/2000/svg"><g><path d="m255.971 149.941h120l30-15-48.003-68.994h-101.997-101.997l-48.003 68.994 30 15z" fill="#f2f9ff"/><path d="m255.971 421.941h-120l-30 15 48.003 68.995h101.997 101.997l48.003-68.995-30-15z" fill="#f2f9ff"/><path d="m405.971 436.941-30-15h-120v83.995h101.997z" fill="#dfe7f4"/><path d="m405.971 134.941-48.003-68.994h-101.997v83.994h120z" fill="#dfe7f4"/><path d="m255.971 8.73-8.731-8.73-21.211 21.211 29.942 29.941 34.394 34.395 21.211-21.211z" fill="#f2f9ff"/><g fill="#dfe7f4"><path d="m311.576 64.336-55.605-55.606v42.422l34.394 34.395z"/><path d="m105.971 481.941v30h150 150v-30h-150z"/><path d="m255.971 59.941h-150v30h150 150v-30z"/></g><path d="m255.971 59.941h150v30h-150z" fill="#c7cfe1"/><path d="m255.971 481.941h150v30h-150z" fill="#c7cfe1"/><g fill="#ff6a4d"><path d="m255.971 134.941h-150v151l15 30c43.682 0 70.21-17.007 100.928-36.709 10.675-6.846 21.859-13.901 34.072-20.598 32.335-17.73 72.587-32.693 135-32.693l15-30v-61z"/><path d="m290.043 292.65c-10.675 6.848-21.859 13.901-34.072 20.598-32.335 17.73-72.589 32.693-135 32.693l-15 30v61h150 150v-151l-15-30c-43.682 0-70.21 17.007-100.928 36.709z"/></g><path d="m405.971 195.941v-61h-150v123.693c32.335-17.73 72.587-32.693 135-32.693z" fill="#e64d2e"/><path d="m405.971 285.941-15-30c-43.682 0-70.21 17.007-100.928 36.709-10.675 6.848-21.859 13.901-34.072 20.598v123.693h150z" fill="#e64d2e"/><path d="m390.971 195.941c-62.413 0-102.665 14.963-135 32.693-12.213 6.696-23.397 13.751-34.072 20.598-30.718 19.702-57.246 36.709-100.928 36.709h-15v90h15c62.411 0 102.665-14.963 135-32.693 12.213-6.696 23.397-13.749 34.072-20.598 30.718-19.702 57.246-36.709 100.928-36.709h15v-90z" fill="#f2f9ff"/><path d="m390.971 285.941h15v-90h-15c-62.413 0-102.665 14.963-135 32.693v114.613c12.213-6.696 23.397-13.749 34.072-20.598 30.718-19.701 57.246-36.708 100.928-36.708z" fill="#dfe7f4"/></g></svg>