<svg id="Capa_1" enable-background="new 0 0 512 512" height="512" viewBox="0 0 512 512" width="512" xmlns="http://www.w3.org/2000/svg"><g><path d="m227.5 166h-91.5-92.5l-28.5 15 5.7 60 39.3 15h76 75l39.3-15 5.7-60z" fill="#f2f9ff"/><path d="m136 436h-76l-19.2 15 5.7 61h89.5 88.5l5.7-61-19.2-15z" fill="#f2f9ff"/><path d="m230.2 451-19.2-15h-75v76h88.5z" fill="#dfe7f4"/><path d="m250.3 241 5.7-60-28.5-15h-91.5v90h75z" fill="#dfe7f4"/><path d="m136 241h-115.3l20.1 210h95.2 94.2l20.1-210z" fill="#80d4ff"/><path d="m250.3 241h-114.3v210h94.2z" fill="#4da6ff"/><circle cx="136" cy="346" fill="#f2f9ff" r="45"/><path d="m181 346c0-24.814-20.186-45-45-45v90c24.814 0 45-20.186 45-45z" fill="#dfe7f4"/><path d="m468.5 166h-92.5-91.5l-28.5 15 5.7 60 39.3 15h75 76l39.3-15 5.7-60z" fill="#f2f9ff"/><path d="m376 436h-75l-19.2 15 5.7 61h88.5 89.5l5.7-61-19.2-15z" fill="#f2f9ff"/><path d="m471.2 451-19.2-15h-76v76h89.5z" fill="#dfe7f4"/><path d="m491.3 241 5.7-60-28.5-15h-92.5v90h76z" fill="#dfe7f4"/><path d="m376 241h-114.3l20.1 210h94.2 95.2l20.1-210z" fill="#80d4ff"/><path d="m491.3 241h-115.3v210h95.2z" fill="#4da6ff"/><circle cx="376" cy="346" fill="#f2f9ff" r="45"/><path d="m421 346c0-24.814-20.186-45-45-45v90c24.814 0 45-20.186 45-45z" fill="#dfe7f4"/><path d="m437 0h-181-181c-41.353 0-75 33.647-75 75v106h256 256v-106c0-41.353-33.647-75-75-75zm-181 120c-49.629 0-90-26.919-90-60.01h90 90c0 33.091-40.371 60.01-90 60.01z" fill="#dfe7f4"/><path d="m512 75c0-41.353-33.647-75-75-75h-181v59.99h90c0 33.091-40.371 60.01-90 60.01v61h256z" fill="#c7cfe1"/></g></svg>