<svg id="Capa_1" enable-background="new 0 0 512 512" height="512" viewBox="0 0 512 512" width="512" xmlns="http://www.w3.org/2000/svg"><g><path d="m233.59 111.001-28.202-1.104-93.097 55.775-21.291 30.755v74.573l148.231-123.292c-1.245-12.34-3.177-24.668-5.641-36.707z" fill="#fabe2c"/><path d="m210.042 40.525-14.619-7.655-80.464 40.428-12.823 21.443c-7.02 27.588-11.136 57.914-11.136 86.259l130.891-112.716c-3.556-10.075-7.52-19.409-11.849-27.759z" fill="#fabe2c"/><path d="m221.891 187.081-116.46 73.916-14.431 24.159v56.274l150-108.029v-43.447z" fill="#fabe2c"/><path d="m168.065 151.352c31.106-13.006 54.044-23.687 65.524-40.351-3.071-15.013-7.013-29.447-11.699-42.717-13.469 7.222-27.874 13.303-42.166 19.244-47.606 19.805-88.724 36.914-88.724 93.472v15.427c21.465-21.376 50.865-34.128 77.065-45.075z" fill="#ffd480"/><path d="m210.042 40.525c-12.361-23.844-27.539-40.525-44.042-40.525-27.101 0-50.687 42.97-63.864 94.741 19.563-15.189 43.381-25.474 66.075-34.913 14.756-6.132 29.093-12.191 41.831-19.303z" fill="#ffd480"/><path d="m241 189.954v-8.954c0-10.887-.635-22.075-1.769-33.292-17.281 13.326-38.956 22.689-59.608 31.315-47.549 19.877-88.623 37.045-88.623 91.977v14.156c21.716-19.975 51.35-34.189 79.204-47.203 37.11-17.347 62.831-30.676 70.796-47.999z" fill="#ffd480"/><path d="m91 341.43v79.57h150v-187.599c-16.608 12.063-37.361 22.035-58.096 31.725-41.918 19.59-84.737 40.018-91.904 76.304z" fill="#ffd480"/><path d="m413.59 111.001-28.202-1.104-93.097 55.775-21.291 30.755v74.573l148.231-123.292c-1.245-12.34-3.177-24.668-5.641-36.707z" fill="#ff9100"/><path d="m390.042 40.525-14.619-7.655-80.464 40.428-12.823 21.443c-7.02 27.588-11.136 57.914-11.136 86.259l130.891-112.716c-3.556-10.075-7.52-19.409-11.849-27.759z" fill="#ff9100"/><path d="m401.891 187.081-116.46 73.916-14.431 24.159v56.274l150-108.029v-43.447z" fill="#ff9100"/><g fill="#fabe2c"><path d="m348.065 151.352c31.106-13.006 54.044-23.687 65.524-40.351-3.071-15.013-7.013-29.447-11.699-42.717-13.469 7.222-27.874 13.303-42.166 19.244-47.606 19.805-88.724 36.914-88.724 93.472v15.427c21.465-21.376 50.865-34.128 77.065-45.075z"/><path d="m390.042 40.525c-12.361-23.844-27.539-40.525-44.042-40.525-27.101 0-50.687 42.97-63.864 94.741 19.563-15.189 43.381-25.474 66.075-34.913 14.756-6.132 29.093-12.191 41.831-19.303z"/><path d="m421 189.954v-8.954c0-10.887-.635-22.075-1.769-33.292-17.281 13.326-38.956 22.689-59.608 31.315-47.549 19.877-88.623 37.045-88.623 91.977v14.156c21.716-19.975 51.35-34.189 79.204-47.203 37.11-17.347 62.831-30.676 70.796-47.999z"/><path d="m271 341.43v79.57h150v-187.599c-16.608 12.063-37.361 22.035-58.096 31.725-41.918 19.59-84.737 40.018-91.904 76.304z"/></g><path d="m346 330.099-90-30-90 30-105-34.799v155.7l30 31h165 165l30-31v-155.7z" fill="#ffe1ba"/><path d="m451 451v-155.7l-105 34.799-90-30v181.901h165z" fill="#ffbfab"/><path d="m256 451h-195v61h195 195v-61z" fill="#ffbfab"/><path d="m256 451h195v61h-195z" fill="#ed7d6b"/></g></svg>