<svg id="Capa_1" enable-background="new 0 0 512 512" height="512" viewBox="0 0 512 512" width="512" xmlns="http://www.w3.org/2000/svg"><g><path d="m256 441.808-73.491-89.348-114.791-111.401-66.932 30.476c8.085 133.445 119.758 240.465 255.214 240.465 17.972 0 35.495-1.913 52.421-5.46z" fill="#ffe1ba"/><path d="m256 441.808v70.192c17.972 0 35.495-1.913 52.421-5.46z" fill="#ffbfab"/><path d="m256 0c-141.773 0-256 116.968-256 256 0 5.244.472 10.369.786 15.535 92.798-6.423 121.3 48.816 151.723 110.925 23.339 47.642 47.476 97.865 103.491 116.67.13.044.234.112.366.156 16.122 5.363 33.697 7.467 52.055 7.255 42.762-8.959 81.497-28.746 113.47-56.215 54.456-46.789 90.109-116.999 90.109-194.326 0-140.7-115.3-256-256-256zm0 331c-41.4 0-75-33.6-75-75s33.6-75 75-75 75 33.6 75 75-33.6 75-75 75z" fill="#ff6a4d"/><path d="m308.421 506.54c42.762-8.959 81.497-28.746 113.47-56.215 54.456-46.788 90.109-116.998 90.109-194.325 0-140.7-115.3-256-256-256v181c41.4 0 75 33.6 75 75s-33.6 75-75 75v168.13c.13.044.234.112.366.156 16.123 5.362 33.697 7.466 52.055 7.254z" fill="#e64d2e"/><g><circle cx="256" cy="256" fill="none" r="75"/></g><g><path d="m166.002 84.788h29.997v72.423h-29.997z" fill="#ffd480" transform="matrix(.707 -.707 .707 .707 -32.546 163.426)"/></g><g><path d="m264.788 76.002h72.423v29.997h-72.423z" fill="#7bcc29" transform="matrix(.707 -.707 .707 .707 23.814 239.492)"/></g><g><path d="m406.002 234.788h29.997v72.423h-29.997z" fill="#fabe2c" transform="matrix(.707 -.707 .707 .707 -68.318 377.066)"/></g><g><path d="m324.788 376.002h72.423v29.997h-72.423z" fill="#dfe7f4" transform="matrix(.707 -.707 .707 .707 -170.744 369.787)"/></g><g><path d="m91 181h30v30h-30z" fill="#f2f9ff"/></g><g><path d="m361 151h30v30h-30z" fill="#dfe7f4"/></g><g><path d="m256 391h30v30h-30z" fill="#7bcc29"/></g></g></svg>