<svg id="Capa_1" enable-background="new 0 0 512 512" height="512" viewBox="0 0 512 512" width="512" xmlns="http://www.w3.org/2000/svg"><g><path d="m346 91h-90-90c-57.9 0-105 47.1-105 105l51.301 30h143.699 143.699l51.301-30c0-57.9-47.1-105-105-105z" fill="#e64d2e"/><path d="m451 196c0-57.9-47.1-105-105-105h-90v135h143.699z" fill="#cd0000"/><path d="m346 30v211h-75v-185.501l15-25.499z" fill="#ffd480"/><path d="m316 30h30v211h-30z" fill="#fabe2c"/><path d="m241 30v189.099l-15 21.901h-60v-211z" fill="#ffd480"/><path d="m241 30v189.099l-15 21.901h-30v-211z" fill="#fabe2c"/><path d="m226 0h60v241h-60z" fill="#ffd480"/><path d="m256 0h30v241h-30z" fill="#fabe2c"/><path d="m346 196c-33.289 32.009-86.393 30-90 30-15.676 0-60.566-1.697-90-30h-105l63.9 316 16.8-7.2c.3 0 57.9-22.8 114.3-22.8s114 22.8 114.3 22.8l16.8 7.2 63.9-316z" fill="#ff6a4d"/><path d="m387.1 512 63.9-316h-105c-33.289 32.009-86.393 30-90 30v256c56.4 0 114 22.8 114.3 22.8z" fill="#e64d2e"/><ellipse cx="256" cy="346" fill="#f2f9ff" rx="105" ry="75"/><path d="m361 346c0 41.999-46.199 75-105 75v-150c58.801 0 105 32.999 105 75z" fill="#dfe7f4"/><path d="m256 331h-15v30h15 15v-30z" fill="#dfe7f4"/><path d="m256 331h15v30h-15z" fill="#c7cfe1"/></g></svg>