<svg id="Capa_1" enable-background="new 0 0 512 512" height="512" viewBox="0 0 512 512" width="512" xmlns="http://www.w3.org/2000/svg"><g><path d="m504.354 227.89v-.015c-12.552-20.7-28.173-38.985-45.764-54.987l-27.107 5.167 3.741-24.142c-32.093-22.906-69.362-38.221-108.798-44.467l-39.426 58.984 30 128.996h124.072c8.013 9.053 20.024 12.876 32.651 10.063 18.56-4.219 38.276-23.628 38.276-51.313.001-10.239-2.636-20.01-7.645-28.286z" fill="#cd0000"/><path d="m185.574 109.446c-39.437 6.246-76.708 21.564-108.801 44.473l4.437 23.58-27.799-4.603c-17.589 16.003-33.212 34.29-45.764 54.994-5.01 8.276-7.647 18.047-7.647 28.286 0 27.686 19.717 47.109 38.276 51.313 2.754.615 5.479.923 8.13.923 9.551 0 18.237-3.911 24.507-10.986h124.087l30-129.007z" fill="#e64d2e"/><path d="m435.224 153.913-118.224 123.979v19.534h22.833l118.757-124.538c-7.441-6.769-15.196-13.143-23.366-18.975z" fill="#e64d2e"/><path d="m195 277.905-118.228-123.986c-8.17 5.832-15.921 12.206-23.362 18.977l118.746 124.53h22.844z" fill="#ff6a4d"/><path d="m287 106h-31-31c-13.325 0-26.45 1.39-39.426 3.446l9.426 58.973 30 39.007h31 31l30-38.996 9.426-58.984c-12.978-2.056-26.101-3.446-39.426-3.446z" fill="#474f54"/><path d="m317 168.43 9.426-58.984c-12.978-2.056-26.101-3.446-39.426-3.446h-31v101.426h31z" fill="#32393f"/><g><path d="m475.408 311.034c-21.564-79.067-85.435-131.264-158.408-142.604l-30 30.852v183.75l30 22.968h86.045c23.54 0 45.249-10.737 59.546-29.473 14.37-18.794 19.028-42.671 12.817-65.493z" fill="#dfe7f4"/></g><g><path d="m36.65 310.844c-6.284 22.866-1.655 46.787 12.715 65.64 14.297 18.749 36.021 29.516 59.59 29.516h86.045l30-19.688v-190.794l-30-27.099c-72.618 11.283-136.589 63.061-158.35 142.425z" fill="#f2f9ff"/></g><g><path d="m105 316h30v30h-30z" fill="#dfe7f4"/></g><g><path d="m135 256h30v30h-30z" fill="#dfe7f4"/></g><g><path d="m347 256h30v30h-30z" fill="#c7cfe1"/></g><g><path d="m377 316h30v30h-30z" fill="#c7cfe1"/></g><path d="m287 166h-31-31c-10.109 0-20.125.884-30 2.419v237.581h61 61v-237.57c-9.868-1.535-19.882-2.43-30-2.43z" fill="#575f64"/><path d="m317 168.43c-9.868-1.534-19.882-2.43-30-2.43h-31v240h61z" fill="#474f54"/></g></svg>