<svg id="Capa_1" enable-background="new 0 0 512 512" height="512" viewBox="0 0 512 512" width="512" xmlns="http://www.w3.org/2000/svg"><g><path d="m480.883 495.14c-.293-2.388-29.883-243.802-29.883-480.14v-15h-60v121c0 16.567-13.431 30-30 30s-30-13.433-30-30v-30h-75-75v30c0 16.567-13.431 30-30 30s-30-13.433-30-30v-121h-60v15c0 236.25-29.59 477.752-29.883 480.14l-2.109 16.86h226.992 226.992z" fill="#fabe2c"/><path d="m480.883 495.14c-.293-2.388-29.883-243.802-29.883-480.14v-15h-60v121c0 16.567-13.431 30-30 30s-30-13.433-30-30v-30h-75v421h226.992z" fill="#ff9100"/><g><path d="m256 211h-15v60h15 15v-60z" fill="#dfe7f4"/><path d="m256 211h15v60h-15z" fill="#c7cfe1"/><path d="m256 241c-57.99 0-105 47.01-105 105v30h105 105v-30c0-57.99-47.01-105-105-105z" fill="#f2f9ff"/><path d="m361 346c0-57.99-47.01-105-105-105v135h105z" fill="#dfe7f4"/><path d="m256 361h-135v30h135 135v-30z" fill="#dfe7f4"/><path d="m256 361h135v30h-135z" fill="#c7cfe1"/></g></g></svg>