<svg id="Capa_1" enable-background="new 0 0 512 512" height="512" viewBox="0 0 512 512" width="512" xmlns="http://www.w3.org/2000/svg"><g><path d="m256 382.211h-256v129.789h256 256v-129.789z" fill="#ffd480"/><path d="m256 382.211h256v129.789h-256z" fill="#fabe2c"/><path d="m256 0h-256v382.211l68.789 68.789h187.211 187.211l68.789-68.789v-382.211z" fill="#ff6a4d"/><path d="m512 382.211v-382.211h-256v451h187.211z" fill="#e64d2e"/><path d="m380.501 128.5c-36.599-24.6-80.552-36.901-124.501-36.901-43.951 0-87.9 12.301-124.501 36.901l-12.299 8.399 33.6 50.7h103.2 103.2l33.6-50.7z" fill="#fabe2c"/><path d="m392.8 136.899-12.299-8.399c-36.599-24.6-80.552-36.901-124.501-36.901v96h103.2z" fill="#ff9100"/><path d="m256 151c-39 0-75 13.799-103.2 36.599l103.2 155.4 103.2-155.4c-28.2-22.8-64.2-36.599-103.2-36.599z" fill="#ffd480"/><path d="m256 151v191.999l103.2-155.4c-28.2-22.8-64.2-36.599-103.2-36.599z" fill="#fabe2c"/><g><path d="m61 61h60v30h-60z" fill="#f2f9ff"/></g><g><path d="m391 61h60v30h-60z" fill="#dfe7f4"/></g><path d="m256 361h-135v30h135 135v-30z" fill="#e64d2e"/><path d="m256 361h135v30h-135z" fill="#cd0000"/><path d="m256 181h-15v30h15 15v-30z" fill="#fabe2c"/><path d="m256 181h15v30h-15z" fill="#ff9100"/></g></svg>