<svg id="Capa_1" enable-background="new 0 0 511.912 511.912" height="512" viewBox="0 0 511.912 511.912" width="512" xmlns="http://www.w3.org/2000/svg"><g><path d="m435.663 267.968c-7.559-37.822-14.707-73.535-14.707-132.056v-15h-165-165v15c0 58.521-7.148 94.233-14.707 132.056-7.515 37.588-15.293 76.465-15.293 137.944v106h195 195v-106c0-61.479-7.778-100.356-15.293-137.944z" fill="#ff6a4d"/><path d="m450.956 405.912c0-61.479-7.778-100.356-15.293-137.944-7.559-37.822-14.707-73.535-14.707-132.056v-15h-165v391h195z" fill="#e64d2e"/><path d="m300.956 240.912h-45-45c-41.422 0-75 33.578-75 75v60c0 41.42 33.578 75 75 75h45 45c41.422 0 75-33.58 75-75v-60c0-41.422-33.578-75-75-75z" fill="#fabe2c"/><path d="m375.956 375.912v-60c0-41.422-33.578-75-75-75h-45v210h45c41.422 0 75-33.58 75-75z" fill="#ff9100"/><path d="m255.956 0c-75.022 0-101.999 52.707-105 55.371v125.541h30v-116.239c16.377-21.797 44.063-34.673 75-34.673 30.923 0 58.623 12.876 75 34.673v116.239h30v-125.541c-2.999-2.664-29.94-55.371-105-55.371z" fill="#575f64"/><path d="m330.956 64.673v116.239h30v-125.541c-2.999-2.664-29.94-55.371-105-55.371v30c30.923 0 58.623 12.876 75 34.673z" fill="#474f54"/><path d="m360.956 315.912h-105-105c-16.569 0-30 13.431-30 30 0 16.567 13.431 30 30 30h105 105c16.569 0 30-13.433 30-30 0-16.569-13.431-30-30-30z" fill="#e64d2e"/><path d="m390.956 345.912c0-16.569-13.431-30-30-30h-105v60h105c16.569 0 30-13.433 30-30z" fill="#cd0000"/></g></svg>