<svg id="Capa_1" enable-background="new 0 0 511.912 511.912" height="512" viewBox="0 0 511.912 511.912" width="512" xmlns="http://www.w3.org/2000/svg"><g><path d="m435.663 267.968c-7.559-37.822-14.707-73.535-14.707-132.056v-15h-165-165v15c0 58.521-7.148 94.233-14.707 132.056-7.515 37.588-15.293 76.465-15.293 137.944v106h195 195v-106c0-61.479-7.778-100.356-15.293-137.944z" fill="#ff6a4d"/><path d="m450.956 405.912c0-61.479-7.778-100.356-15.293-137.944-7.559-37.822-14.707-73.535-14.707-132.056v-15h-165v391h195z" fill="#e64d2e"/><path d="m255.956 0c-75.022 0-101.999 52.707-105 55.371v125.541h30v-116.239c16.377-21.797 44.063-34.673 75-34.673 30.923 0 58.623 12.876 75 34.673v116.239h30v-125.541c-2.999-2.664-29.94-55.371-105-55.371z" fill="#575f64"/><path d="m330.956 64.673v116.239h30v-125.541c-2.999-2.664-29.94-55.371-105-55.371v30c30.923 0 58.623 12.876 75 34.673z" fill="#474f54"/><path d="m226.703 381.376-10.605-10.605-10.606-10.606-46.816 46.816-10.606-10.605-21.211 21.211 21.211 21.211 21.211 21.211 21.211-21.211-10.605-10.606z" fill="#f2f9ff"/><path d="m190.492 438.798-10.605-10.606 46.816-46.816-10.605-10.605-68.028 68.027 21.211 21.211z" fill="#dfe7f4"/><path d="m353.983 232.885c-28.301-28.33-77.754-28.33-106.055 0-46.099 46.084-74.165 116.748-42.437 148.491 34.984 34.984 110.054-3.981 148.491-42.437 29.373-29.34 29.263-76.823.001-106.054z" fill="#ffd480"/><path d="m353.983 338.939c29.372-29.341 29.262-76.824 0-106.055l-148.491 148.492c34.984 34.984 110.054-3.981 148.491-42.437z" fill="#fabe2c"/></g></svg>