<svg id="Capa_1" enable-background="new 0 0 511.912 511.912" height="512" viewBox="0 0 511.912 511.912" width="512" xmlns="http://www.w3.org/2000/svg"><g><path d="m435.663 267.968c-7.559-37.822-14.707-73.535-14.707-132.056v-15h-165-165v15c0 58.521-7.148 94.233-14.707 132.056-7.515 37.588-15.293 76.465-15.293 137.944v106h195 195v-106c0-61.479-7.778-100.356-15.293-137.944z" fill="#ff6a4d"/><path d="m450.956 405.912c0-61.479-7.778-100.356-15.293-137.944-7.559-37.822-14.707-73.535-14.707-132.056v-15h-165v391h195z" fill="#e64d2e"/><path d="m255.956 0c-75.022 0-101.999 52.707-105 55.371v125.541h30v-116.239c16.377-21.797 44.063-34.673 75-34.673 30.923 0 58.623 12.876 75 34.673v116.239h30v-125.541c-2.999-2.664-29.94-55.371-105-55.371z" fill="#575f64"/><path d="m330.956 64.673v116.239h30v-125.541c-2.999-2.664-29.94-55.371-105-55.371v30c30.923 0 58.623 12.876 75 34.673z" fill="#474f54"/><path d="m330.956 287.412-10.499 103.5-34.501 15h-60l-34.501-15-10.499-103.5z" fill="#80d4ff"/><path d="m255.956 287.412h75l-10.499 103.5-34.501 15h-30z" fill="#4da6ff"/><path d="m320.457 390.912-6.001 60h-117l-6.001-60z" fill="#f2f9ff"/><path d="m255.956 390.912h64.501l-6.001 60h-58.5z" fill="#dfe7f4"/><path d="m330.956 285.912h-150c0-41.4 33.6-75 75-75s75 33.6 75 75z" fill="#f2f9ff"/><path d="m330.956 285.912h-75v-75c41.4 0 75 33.6 75 75z" fill="#dfe7f4"/><path d="m165.956 270.912h180v30h-180z" fill="#dfe7f4"/><path d="m255.956 270.912h90v30h-90z" fill="#c7cfe1"/></g></svg>