<svg id="Capa_1" enable-background="new 0 0 512 512" height="512" viewBox="0 0 512 512" width="512" xmlns="http://www.w3.org/2000/svg"><g><path d="m91 151v105c0 32.999 27.001 60 60 60l30 15h150l30-15c32.999 0 60-27.001 60-60v-105z" fill="#f2f9ff"/><path d="m421 151v105c0 32.999-27.001 60-60 60l-30 15h-75v-180z" fill="#dfe7f4"/><path d="m329.5 172.599-34.2 68.401h-78.6l-34.2-68.401 27-13.2h93z" fill="#dfe7f4"/><path d="m302.5 159.399 27 13.2-34.2 68.401h-39.3v-81.601z" fill="#c7cfe1"/><path d="m421 346v105c0 32.999-27.001 61-60 61l-15-30-15 30h-150l-15-30-15 30c-32.999 0-60-28.001-60-61v-105z" fill="#f2f9ff"/><path d="m421 346v105c0 32.999-27.001 61-60 61l-15-30-15 30h-75v-166z" fill="#dfe7f4"/><path d="m329.5 367.599-34.2 68.401h-78.6l-34.2-68.401 27-13.2h93z" fill="#dfe7f4"/><path d="m302.5 354.399 27 13.2-34.2 68.401h-39.3v-81.601z" fill="#c7cfe1"/><path d="m451 346v30h-390v-30c0-16.5 13.5-30 30-30h330c16.5 0 30 13.5 30 30z" fill="#80d4ff"/><path d="m451 346v30h-195v-60h165c16.5 0 30 13.5 30 30z" fill="#4da6ff"/><path d="m451 151v30h-390v-30c0-16.5 13.5-30 30-30h330c16.5 0 30 13.5 30 30z" fill="#80d4ff"/><path d="m451 151v30h-195v-60h165c16.5 0 30 13.5 30 30z" fill="#4da6ff"/><path d="m361 55.499v456.501h-30v-446.901c-7.8-9.299-32.701-35.099-75-35.099s-67.5 25.8-75 35.099v446.901h-30v-456.501l2.401-3.9c1.499-2.1 35.399-51.599 102.599-51.599s101.1 49.499 102.599 51.599z" fill="#575f64"/><path d="m361 55.499v456.501h-30v-446.901c-7.8-9.299-32.701-35.099-75-35.099v-30c67.2 0 101.1 49.499 102.599 51.599z" fill="#474f54"/></g></svg>