<svg id="Capa_1" enable-background="new 0 0 512 512" height="512" viewBox="0 0 512 512" width="512" xmlns="http://www.w3.org/2000/svg"><g><path d="m496.707 268.012c-7.559-37.823-14.707-73.535-14.707-132.056v-15h-166-166v15c0 58.521-7.148 94.233-14.707 132.056-7.515 37.588-15.293 76.465-15.293 137.944v106h196 196v-106c0-61.479-7.778-100.356-15.293-137.944z" fill="#ff6a4d"/><path d="m512 405.956c0-61.479-7.778-100.356-15.293-137.944-7.559-37.823-14.707-73.535-14.707-132.056v-15h-166v391h196z" fill="#e64d2e"/><g><path d="m316 240.956h-15v60h15 15v-60z" fill="#dfe7f4"/><path d="m316 240.956h15v60h-15z" fill="#c7cfe1"/><path d="m316 270.956c-57.99 0-105 47.01-105 105v30h105 105v-30c0-57.989-47.01-105-105-105z" fill="#f2f9ff"/><path d="m421 375.956c0-57.99-47.01-105-105-105v135h105z" fill="#dfe7f4"/><path d="m316 390.956h-135v30h135 136v-30z" fill="#dfe7f4"/><path d="m316 390.956h136v30h-136z" fill="#c7cfe1"/></g><g fill="#80d4ff"><path d="m60 240.956h60v30h-60z"/><path d="m30 300.956h60v30h-60z"/><path d="m0 360.956h60v30h-60z"/></g><path d="m316 .044c-75.022 0-101.999 52.707-105 55.371v125.541h30v-116.239c16.377-21.797 44.063-34.673 75-34.673 30.923 0 58.623 12.876 75 34.673v116.239h30v-125.541c-2.999-2.664-29.94-55.371-105-55.371z" fill="#575f64"/><path d="m391 64.717v116.239h30v-125.541c-2.999-2.664-29.94-55.371-105-55.371v30c30.923 0 58.623 12.876 75 34.673z" fill="#474f54"/></g></svg>