<svg id="Capa_1" enable-background="new 0 0 511.846 511.846" height="512" viewBox="0 0 511.846 511.846" width="512" xmlns="http://www.w3.org/2000/svg"><g><path d="m416.071 415.946-76.562-76.562-43.262-13.262-15.901 15.901c-3.662 3.66-11.239 5.923-17.699 2.401-29.134-16.172-49.265-31.089-64.973-46.328-20.667-20.045-33.47-40.659-46.926-65.574-3.413-6.251-2.01-13.59 2.399-17.999l15.901-15.601-7.976-37.976-80-79.998-39.225-9.225-11.1 10.8c-30.646 30.631-39.62 77.944-21.3 117.3 23.628 51.138 60.454 112.623 116.889 169.611 43.879 44.31 99.611 85.9 170.211 117.788 13.2 5.7 26.999 8.701 41.1 8.701 26.506 0 53.417-10.208 74.399-31.201l11.4-11.4z" fill="#575f64"/><path d="m337.647 495.923c26.506 0 53.417-10.208 74.399-31.201l11.4-11.4-7.375-37.375-76.562-76.562-43.262-13.262-15.901 15.901c-3.662 3.66-11.239 5.923-17.699 2.401-29.134-16.172-49.265-31.089-64.973-46.328l-71.338 71.338c43.879 44.31 99.611 85.9 170.211 117.788 13.2 5.699 26.999 8.7 41.1 8.7z" fill="#474f54"/><path d="m466.046 411.023-42.6 42.299-127.2-127.2 42.3-42.599z" fill="#32393f"/><path d="m211.346 156.323-42.299 42.599-127.2-127.199 42.299-42.6z" fill="#474f54"/><g><path d="m165.846 45.923h30v30h-30z" fill="#80d4ff"/></g><g><path d="m225.846 45.923h30v30h-30z" fill="#80d4ff"/></g><g><path d="m390.846 225.923h30v30h-30z" fill="#4da6ff"/></g><g><path d="m390.846 285.923h30v30h-30z" fill="#4da6ff"/></g><g><path d="m375.846 15.923h-15v60h15 15v-60z" fill="#dfe7f4"/><path d="m375.846 15.923h15v60h-15z" fill="#c7cfe1"/><path d="m375.846 45.923c-57.99 0-106 47.01-106 105v30h106 106v-30c0-57.989-48.01-105-106-105z" fill="#f2f9ff"/><path d="m481.846 150.923c0-57.989-48.01-105-106-105v135h106z" fill="#dfe7f4"/><path d="m375.846 165.923h-136v30h136 136v-30z" fill="#dfe7f4"/><path d="m375.846 165.923h136v30h-136z" fill="#c7cfe1"/></g></g></svg>