<svg id="Capa_1" enable-background="new 0 0 512 512" height="512" viewBox="0 0 512 512" width="512" xmlns="http://www.w3.org/2000/svg"><g><path d="m256 211h-15v45h15 15v-45z" fill="#dfe7f4"/><path d="m256 211h15v45h-15z" fill="#c7cfe1"/><path d="m256 241c-124.072 0-226 101.928-226 226v30h226 226v-30c0-124.072-101.928-226-226-226z" fill="#f2f9ff"/><path d="m482 467c0-124.072-101.928-226-226-226v256h226z" fill="#dfe7f4"/><path d="m360.927 229.56 10.913-62.124-46.626-44.385 64.38-9.126 28.403-56.177 28.403 56.177 65.38 9.126-47.611 44.385 10.913 62.109-57.085-29.297z" fill="#fabe2c"/><path d="m36.918 229.56 10.913-62.124-47.611-44.385 65.38-9.126 28.403-56.177 28.403 56.177 64.38 9.126-46.626 44.385 10.913 62.124-57.07-29.312z" fill="#ffd480"/><path d="m348.798 66.054-64.424-9.126-28.374-56.928-28.374 56.928-64.424 9.126 46.626 44.37-10.913 62.139 57.085-29.312 57.07 29.341-10.913-62.154z" fill="#ffd480"/><path d="m302.157 110.438 46.641-44.384-64.424-9.126-28.374-56.928v143.251l57.07 29.341z" fill="#fabe2c"/><path d="m256 482h-256v30h256 256v-30z" fill="#dfe7f4"/><path d="m256 482h256v30h-256z" fill="#c7cfe1"/></g></svg>