<svg id="Capa_1" enable-background="new 0 0 512 512" height="512" viewBox="0 0 512 512" width="512" xmlns="http://www.w3.org/2000/svg"><g><path d="m301 61-15 30-15 17.5v206.875l15 30.625h195l31-15v-270z" fill="#e64d2e"/><path d="m271 61h-255v15c0 7.8-7.301 15-16 15v30c8.699 0 16.5 7.2 16.5 15s-7.8 15-16.5 15v30c8.699 0 16.5 7.2 16.5 15s-7.8 15-16.5 15v30c8.699 0 16.5 7.2 16.5 15s-7.8 15-16.5 15v30c8.699 0 16.5 7.2 16.5 15s-7.8 15-16.5 15l16.5 15h269.5v-255z" fill="#ff6a4d"/><g><path d="m106 151h30v30h-30z" fill="#ffd480"/></g><g><path d="m196 211h30v30h-30z" fill="#ffd480"/></g><g><path d="m102.36 181.002h127.279v29.997h-127.279z" fill="#ffd480" transform="matrix(.707 -.707 .707 .707 -89.973 174.787)"/></g><g><path d="m271 166h30v60h-30z" fill="#e64d2e"/></g><g><path d="m331 121h120v30h-120z" fill="#cd0000"/></g><g><path d="m331 181h120v30h-120z" fill="#cd0000"/></g><g><path d="m331 241h120v30h-120z" fill="#cd0000"/></g><g><path d="m271 61h30v75h-30z" fill="#e64d2e"/></g><path d="m271 256h30v90h-30z" fill="#e64d2e"/><g fill="#cd0000"><path d="m286 61h15v75h-15z"/><path d="m286 166h15v60h-15z"/><path d="m286 256h15v90h-15z"/></g><path d="m512 331v60l-31 15h-437.5l-43.5-15c8.699 0 16.5-7.2 16.5-15s-7.8-15-16.5-15v-30z" fill="#ffd480"/><path d="m512 331v60l-31 15h-195v-75z" fill="#fabe2c"/><path d="m512 391v60h-496v-15c0-7.8-7.301-15-16-15v-30z" fill="#ff6a4d"/><path d="m286 391h226v60h-226z" fill="#e64d2e"/></g></svg>