<svg id="Capa_1" enable-background="new 0 0 512 512" height="512" viewBox="0 0 512 512" width="512" xmlns="http://www.w3.org/2000/svg"><g><path d="m512 106v270h-451v-270l30-30h391z" fill="#ff6a4d"/><path d="m512 106v270h-286v-300h256z" fill="#e64d2e"/><path d="m0 166v300h452v-300z" fill="#80d4ff"/><path d="m226 166h226v300h-226z" fill="#4da6ff"/><g fill="#f2f9ff"><path d="m181 316h30v30h-30z"/><path d="m121 316h30v30h-30z"/><path d="m61 316h30v30h-30z"/><path d="m61 376h332v30h-332z"/></g><path d="m226 376h167v30h-167z" fill="#dfe7f4"/><path d="m61 226h90v30h-90z" fill="#f2f9ff"/><path d="m61 46h451v60h-451z" fill="#474f54"/><path d="m226 46h286v60h-286z" fill="#32393f"/></g></svg>