<svg id="Capa_1" enable-background="new 0 0 512 512" height="512" viewBox="0 0 512 512" width="512" xmlns="http://www.w3.org/2000/svg"><g><path d="m512 391v60h-181l-30-30h-90l-30 30h-181v-60l30-30h452z" fill="#a9e62e"/><path d="m482 361 30 30v60h-181l-30-30h-45v-60z" fill="#7bcc29"/><path d="m512 331v60h-512v-60l30-30h452z" fill="#7bcc29"/><path d="m512 331v60h-256v-90h226z" fill="#53b323"/><path d="m181 301h150v150h-150z" fill="#f2f9ff"/><path d="m256 301h75v150h-75z" fill="#dfe7f4"/><path d="m0 61h512v270h-512z" fill="#a9e62e"/><path d="m256 61h256v270h-256z" fill="#7bcc29"/><path d="m61 121v150h390v-150z" fill="#7bcc29"/><path d="m256 121h195v150h-195z" fill="#6b0"/><path d="m256 121c-41.4 0-75 33.6-75 75s33.6 75 75 75 75-33.6 75-75-33.6-75-75-75z" fill="#a9e62e"/><path d="m121 181h30v30h-30z" fill="#a9e62e"/><g fill="#7bcc29"><path d="m361 181h30v30h-30z"/><path d="m256 271v-150c41.4 0 75 33.6 75 75s-33.6 75-75 75z"/></g></g></svg>