<svg id="Capa_1" enable-background="new 0 0 512 512" height="512" viewBox="0 0 512 512" width="512" xmlns="http://www.w3.org/2000/svg"><g><path d="m512 301v-21.211l-34.189-38.789-85.811-90h-90v240l30 30h180v-90l-30-15z" fill="#dfe7f4"/><path d="m0 61h332v360h-332z" fill="#ff6a4d"/><path d="m166 61h166v360h-166z" fill="#e64d2e"/><path d="m392 151v90h85.811l-30-90z" fill="#32393f"/><path d="m437 451c-24.814 0-45-20.186-45-45s20.186-45 45-45 45 20.186 45 45-20.186 45-45 45z" fill="#32393f"/><path d="m75 451c-24.814 0-45-20.186-45-45s20.186-45 45-45 45 20.186 45 45-20.186 45-45 45z" fill="#474f54"/><path d="m257 451c-24.814 0-45-20.186-45-45s20.186-45 45-45 45 20.186 45 45-20.186 45-45 45z" fill="#32393f"/><g><path d="m166 121h-15v60h15 15v-60z" fill="#dfe7f4"/><path d="m166 121h15v60h-15z" fill="#c7cfe1"/><path d="m166 151c-57.99 0-106 47.01-106 105v30h106 106v-30c0-57.99-48.01-105-106-105z" fill="#f2f9ff"/><path d="m272 256c0-57.99-48.01-105-106-105v135h106z" fill="#dfe7f4"/><path d="m166 271h-136v30h136 136v-30z" fill="#dfe7f4"/><path d="m166 271h136v30h-136z" fill="#c7cfe1"/></g><circle cx="75" cy="406" fill="#f2f9ff" r="15"/><circle cx="257" cy="406" fill="#dfe7f4" r="15"/><circle cx="437" cy="406" fill="#dfe7f4" r="15"/><path d="m452 301h60v30h-60z" fill="#c7cfe1"/></g></svg>