<svg id="Capa_1" enable-background="new 0 0 512 512" height="512" viewBox="0 0 512 512" width="512" xmlns="http://www.w3.org/2000/svg"><g><path d="m411.626 89.897c-32.783-57.128-89.473-89.897-155.537-89.897-66.006 0-122.739 32.798-155.64 89.971-34.453 59.854-34.351 134.019.249 193.564 21.387 36.812 48.838 68.881 73.066 96.303 36.123 40.884 67.324 77.201 67.324 117.162h15 15c0-40.049 31.113-76.205 67.134-116.898 24.038-27.173 51.284-58.949 72.627-95.482 35.011-59.928 35.318-134.547.777-194.723z" fill="#ff6a4d"/><path d="m338.223 380.102c24.038-27.173 51.284-58.949 72.627-95.482 35.01-59.927 35.317-134.546.776-194.722-32.783-57.129-89.473-89.898-155.537-89.898v497h15c0-40.049 31.113-76.205 67.134-116.898z" fill="#e64d2e"/><path d="m256.089 482h-105v30h105 105v-30z" fill="#80d4ff"/><path d="m256.089 482h105v30h-105z" fill="#4da6ff"/><g><path d="m256.089 60h-15v60h15 15v-60z" fill="#dfe7f4"/><path d="m256.089 60h15v60h-15z" fill="#c7cfe1"/><path d="m256.089 90c-57.99 0-105 47.01-105 105v30h105 105v-30c0-57.99-47.01-105-105-105z" fill="#f2f9ff"/><path d="m361.089 195c0-57.99-47.01-105-105-105v135h105z" fill="#dfe7f4"/><path d="m256.089 210h-135v30h135 135v-30z" fill="#dfe7f4"/><path d="m256.089 210h135v30h-135z" fill="#c7cfe1"/></g></g></svg>