<svg id="Capa_1" enable-background="new 0 0 512 512" height="512" viewBox="0 0 512 512" width="512" xmlns="http://www.w3.org/2000/svg"><g><path d="m256 361h-225v151h225 225v-151z" fill="#ff6a4d"/><path d="m256 361h225v151h-225z" fill="#e64d2e"/><path d="m121 451h-30v-30h60z" fill="#474f54"/><path d="m421 451h-30l-30-30h60z" fill="#32393f"/><path d="m256 30h-45c0-16.5-43.5-30-60-30s-30 13.5-30 30v30 391h135 135v-421z" fill="#f2f9ff"/><path d="m256 30h135v421h-135z" fill="#dfe7f4"/><path d="m256 286c-8.276 0-15-6.724-15-15s6.724-15 15-15 15 6.724 15 15h30c0-19.53-12.578-36.024-30-42.237v-32.763h-15-15v32.763c-17.422 6.213-30 22.707-30 42.237 0 24.814 20.186 45 45 45 8.276 0 15 6.724 15 15s-6.724 15-15 15-15-6.724-15-15h-30c0 19.53 12.578 36.024 30 42.237v32.763h15 15v-32.763c17.422-6.213 30-22.707 30-42.237 0-24.814-20.186-45-45-45z" fill="#575f64"/><path d="m271 373.237c17.422-6.213 30-22.707 30-42.237 0-24.814-20.186-45-45-45v30c8.276 0 15 6.724 15 15s-6.724 15-15 15v60h15z" fill="#474f54"/><path d="m271 271h30c0-19.53-12.578-36.024-30-42.237v-32.763h-15v60c8.276 0 15 6.724 15 15z" fill="#474f54"/><path d="m256 120h-75v31h75 75v-31z" fill="#dfe7f4"/><path d="m256 120h75v31h-75z" fill="#c7cfe1"/><path d="m406 0h-150-105c16.5 0 30 13.5 30 30v30h75 195v-15c0-24.901-20.099-45-45-45z" fill="#dfe7f4"/><path d="m451 45c0-24.901-20.099-45-45-45h-150v60h195z" fill="#c7cfe1"/></g></svg>