<svg id="Capa_1" enable-background="new 0 0 512 512" height="512" viewBox="0 0 512 512" width="512" xmlns="http://www.w3.org/2000/svg"><g><circle cx="180" cy="180" fill="#80d4ff" r="180"/><path d="m360 180c0-99.258-80.742-180-180-180v360c99.258 0 180-80.742 180-180z" fill="#4da6ff"/><path d="m328.488 165c-3.029-30.062-14.711-57.283-32.833-79.444l-26.402-1.02 5.191-20.191c-22.161-18.122-49.382-29.804-79.444-32.833l-15 13.488-15-13.488c-30.062 3.029-57.283 14.711-79.444 32.833l-1.02 26.402-20.191-5.191c-18.122 22.161-29.804 49.382-32.833 79.444l13.488 15-13.488 15c3.029 30.062 14.711 57.283 32.833 79.444l26.402 1.02-5.191 20.191c22.161 18.122 49.382 29.804 79.444 32.833l15-13.488 15 13.488c30.062-3.029 57.283-14.711 79.444-32.833l-5.191-20.191 26.402-1.02c18.122-22.161 29.804-49.382 32.833-79.444l-13.488-15z" fill="#f2f9ff"/><path d="m274.444 295.655-5.191-20.191 26.402-1.02c18.122-22.161 29.804-49.382 32.833-79.444l-13.488-15 13.488-15c-3.029-30.062-14.711-57.283-32.833-79.444l-26.402-1.02 5.191-20.191c-22.161-18.122-49.382-29.804-79.444-32.833l-15 13.488v270l15 13.488c30.062-3.029 57.283-14.711 79.444-32.833z" fill="#dfe7f4"/><g><path d="m376 330h-15v60h15 15v-60z" fill="#dfe7f4"/><path d="m376 330h15v60h-15z" fill="#c7cfe1"/><path d="m376 360c-57.99 0-106 47.01-106 105v32h106 106v-32c0-57.99-48.01-105-106-105z" fill="#f2f9ff"/><path d="m482 465c0-57.99-48.01-105-106-105v137h106z" fill="#dfe7f4"/><path d="m376 482h-136v30h136 136v-30z" fill="#dfe7f4"/><path d="m376 482h136v30h-136z" fill="#c7cfe1"/></g><path d="m300 195h28.488c.505-5.006 1.512-9.862 1.512-15s-1.007-9.994-1.512-15h-28.488z" fill="#474f54"/><path d="m60 165h-28.488c-.505 5.006-1.512 9.862-1.512 15s1.007 9.994 1.512 15h28.488z" fill="#575f64"/><path d="m105.747 84.536-20.191-20.191c-7.787 6.368-14.843 13.423-21.211 21.211l20.191 20.191z" fill="#575f64"/><path d="m254.253 275.464 20.191 20.191c7.787-6.368 14.843-13.423 21.211-21.211l-20.191-20.191z" fill="#474f54"/><path d="m275.464 105.747 20.191-20.191c-6.368-7.787-13.423-14.843-21.211-21.211l-20.191 20.191z" fill="#474f54"/><g fill="#575f64"><path d="m84.536 254.253-20.191 20.191c6.368 7.787 13.423 14.843 21.211 21.211l20.191-20.191z"/><path d="m165 300v28.488c5.006.505 9.862 1.512 15 1.512s9.994-1.007 15-1.512v-28.488h-15z"/><path d="m195 173.789v-83.789h-15-15v96.211l15 15 49.395 49.394 21.21-21.21z"/><path d="m195 60v-28.488c-5.006-.505-9.862-1.512-15-1.512s-9.994 1.007-15 1.512v28.488h15z"/></g><path d="m250.605 229.395-55.605-55.606v-83.789h-15v111.211l49.395 49.394z" fill="#474f54"/><path d="m195 31.512c-5.006-.505-9.862-1.512-15-1.512v30h15z" fill="#474f54"/><path d="m195 300h-15v30c5.138 0 9.994-1.007 15-1.512z" fill="#474f54"/></g></svg>