<svg id="Capa_1" enable-background="new 0 0 512 512" height="512" viewBox="0 0 512 512" width="512" xmlns="http://www.w3.org/2000/svg"><g><g fill="#f2f9ff"><path d="m256 336.303h-232.636l56.236 150h176.4 176.4l56.258-150z"/><path d="m488.654 306.303-56.254-150h-88.248l-24.006 30h-64.146-64.146l-24.003-30h-88.251l-56.254 150h232.654z"/></g><path d="m488.658 336.303h-232.658v150h176.4z" fill="#dfe7f4"/><path d="m432.4 156.303h-88.248l-24.006 30h-64.146v120h232.654z" fill="#dfe7f4"/><g><path d="m191.605 136.908-21.211-21.211c.264-.293 10.606-11.616 10.606-34.394 0-35.2 17.402-53.628 19.395-55.605l21.211 21.211.176-.176c-.44.468-10.782 11.791-10.782 34.57 0 35.2-17.402 53.628-19.395 55.605z" fill="#dfe7f4"/></g><g><path d="m251.605 136.908-21.211-21.211c.264-.293 10.606-11.616 10.606-34.394 0-35.2 17.402-53.628 19.395-55.605l21.211 21.211.176-.176c-.44.468-10.782 11.791-10.782 34.57 0 35.2-17.402 53.628-19.395 55.605z" fill="#dfe7f4"/></g><g><path d="m311.605 136.908-21.211-21.211c.264-.293 10.606-11.616 10.606-34.394 0-35.2 17.402-53.628 19.395-55.605l21.211 21.211.176-.176c-.44.468-10.782 11.791-10.782 34.57 0 35.2-17.402 53.628-19.395 55.605z" fill="#dfe7f4"/></g><path d="m256 156.303h-88.149l24.003 60h64.146 64.146l24.006-60z" fill="#dfe7f4"/><path d="m344.152 156.303h-88.152v60h64.146z" fill="#c7cfe1"/><path d="m482 291.303h-226-226c-16.569 0-30 13.431-30 30 0 16.567 13.431 30 30 30h226 226c16.569 0 30-13.433 30-30 0-16.569-13.431-30-30-30z" fill="#dfe7f4"/><path d="m512 321.303c0-16.569-13.431-30-30-30h-226v60h226c16.569 0 30-13.433 30-30z" fill="#c7cfe1"/></g></svg>