<svg id="Capa_1" enable-background="new 0 0 512 512" height="512" viewBox="0 0 512 512" width="512" xmlns="http://www.w3.org/2000/svg"><g><g><path d="m286 421h-286v-421h316l-30 25.625z" fill="#474f54"/></g><path d="m121 90 30 15h165v-105z" fill="#ff6a4d"/><path d="m316 90h-195v422h195 196v-422z" fill="#575f64"/><path d="m316 90h196v422h-196z" fill="#474f54"/><g><path d="m316 181h-15v60h15 15v-60z" fill="#dfe7f4"/><path d="m316 181h15v60h-15z" fill="#c7cfe1"/><path d="m316 211c-57.99 0-105 47.01-105 105v30h105 105v-30c0-57.99-47.01-105-105-105z" fill="#f2f9ff"/><path d="m421 316c0-57.99-47.01-105-105-105v135h105z" fill="#dfe7f4"/><path d="m316 331h-135v30h135 135v-30z" fill="#dfe7f4"/><path d="m316 331h135v30h-135z" fill="#c7cfe1"/></g><path d="m316 421h-105v30h105 105v-30z" fill="#ffd480"/><path d="m316 421h105v30h-105z" fill="#fabe2c"/></g></svg>