<svg id="Capa_1" enable-background="new 0 0 512 512" height="512" viewBox="0 0 512 512" width="512" xmlns="http://www.w3.org/2000/svg"><g><path d="m91 0v512h330v-512z" fill="#474f54"/><path d="m256 0h165v512h-165z" fill="#32393f"/><path d="m391 30v271l-30 15h-210l-30-15v-271z" fill="#80d4ff"/><path d="m391 30v271l-30 15h-105v-286z" fill="#4da6ff"/><path d="m391 331v151h-270v-151l30-15h210z" fill="#80d4ff"/><path d="m391 331v151h-135v-166h105z" fill="#4da6ff"/><path d="m241 60h30v30h-30z" fill="#f2f9ff"/><path d="m211 422h90v30h-90z" fill="#f2f9ff"/><g><path d="m256 151h-15v60h15 15v-60z" fill="#dfe7f4"/><path d="m256 151h15v60h-15z" fill="#c7cfe1"/><path d="m256 181c-57.99 0-105 47.01-105 105v30h105 105v-30c0-57.99-47.01-105-105-105z" fill="#f2f9ff"/><path d="m361 286c0-57.99-47.01-105-105-105v135h105z" fill="#dfe7f4"/><path d="m256 301h-135v30h135 135v-30z" fill="#dfe7f4"/><path d="m256 301h135v30h-135z" fill="#c7cfe1"/></g><g fill="#dfe7f4"><path d="m256 60h15v30h-15z"/><path d="m256 422h45v30h-45z"/></g></g></svg>