<svg id="Capa_1" enable-background="new 0 0 512 512" height="512" viewBox="0 0 512 512" width="512" xmlns="http://www.w3.org/2000/svg"><g><path d="m171.127 436h-110.127v-168.545l61.582-123.164 26.836 13.418-58.418 116.836v131.455h80.127z" fill="#474f54"/><path d="m451 436h-110.127v-30h80.127v-131.455l-58.418-116.836 26.836-13.418 61.582 123.164z" fill="#32393f"/><path d="m91 31h30v60h-30z" fill="#474f54"/><path d="m391 31h30v60h-30z" fill="#32393f"/><path d="m512 121c0 24.899-20.099 45-45 45h-80.2l-30 90h-201.6l-30-90h-80.2c-24.901 0-45-20.101-45-45 0-24.901 20.099-45 45-45h422c24.901 0 45 20.099 45 45z" fill="#f2f9ff"/><path d="m512 121c0 24.899-20.099 45-45 45h-80.2l-30 90h-100.8v-180h211c24.901 0 45 20.099 45 45z" fill="#dfe7f4"/><path d="m31 16h150v30h-150z" fill="#ff6a4d"/><path d="m331 16h150v30h-150z" fill="#e64d2e"/><g><path d="m256 316h-15v60h15 15v-60z" fill="#dfe7f4"/><path d="m256 316h15v60h-15z" fill="#c7cfe1"/><path d="m256 346c-57.99 0-105 47.01-105 105v30h105 105v-30c0-57.99-47.01-105-105-105z" fill="#f2f9ff"/><path d="m361 451c0-57.99-47.01-105-105-105v135h105z" fill="#dfe7f4"/><path d="m256 466h-135v30h135 135v-30z" fill="#dfe7f4"/><path d="m256 466h135v30h-135z" fill="#c7cfe1"/></g><path d="m256 46c-41.4 0-75 33.6-75 75s33.6 75 75 75 75-33.6 75-75-33.6-75-75-75z" fill="#575f64"/><path d="m331 121c0 41.4-33.6 75-75 75v-150c41.4 0 75 33.6 75 75z" fill="#474f54"/><circle cx="256" cy="121" fill="#80d4ff" r="45"/><path d="m301 121c0 24.899-20.099 45-45 45v-90c24.901 0 45 20.099 45 45z" fill="#4da6ff"/><path d="m241 106h30v30h-30z" fill="#f2f9ff"/><path d="m256 106h15v30h-15z" fill="#dfe7f4"/></g></svg>