<svg id="Capa_1" enable-background="new 0 0 512 512" height="512" viewBox="0 0 512 512" width="512" xmlns="http://www.w3.org/2000/svg"><g><path d="m371.811 0h-115.811-10.811l-10.004 30h-93.457l-34.146 69.291 148.418.98 149.224.983z" fill="#575f64"/><path d="m371.811 0h-115.811v100.271l149.224.983z" fill="#474f54"/><path d="m256 121h-154.149l28.636 315 42.715 15h82.798 82.798l42.715-15 28.636-315z" fill="#ff6a4d"/><path d="m381.513 436 28.636-315h-154.149v330h82.798z" fill="#e64d2e"/><path d="m256 436h-125.513l6.817 76h118.696 118.696l6.817-76z" fill="#dfe7f4"/><path d="m381.513 436h-125.513v76h118.696z" fill="#c7cfe1"/><path d="m256 91h-180v60h180 180v-60z" fill="#dfe7f4"/><path d="m256 91h180v60h-180z" fill="#c7cfe1"/><path d="m319.633 229.442c-17.113-17.115-40.53-21.835-63.633-17.536-19.164 3.565-38.117 13.231-53.027 28.141-35.098 35.098-39.844 87.437-10.605 116.675 16.961 16.961 40.45 21.667 63.633 17.386 19.188-3.543 38.172-13.136 53.027-27.991 35.096-35.097 39.843-87.436 10.605-116.675z" fill="#575f64"/><path d="m319.633 229.442c-17.113-17.115-40.53-21.835-63.633-17.536v162.202c19.188-3.543 38.172-13.136 53.027-27.991 35.097-35.097 39.844-87.436 10.606-116.675z" fill="#474f54"/><g fill="#474f54"><path d="m256 275.821c16.507-9.359 31.972-19.025 36.552-29.572-10.492-6.791-23.708-7.26-36.552-3.649-11.71 3.29-23.113 9.955-31.816 18.658-14.952 14.952-22.194 33.922-20.962 50.272 12.012-12.66 29.26-22.5 45.469-31.551 2.462-1.373 4.865-2.772 7.309-4.158z"/><path d="m263.31 306.186c-2.463 1.373-4.865 2.772-7.31 4.158-16.536 9.375-32.029 19.058-36.579 29.625 10.04 6.427 23.232 7.159 36.579 3.484 11.082-3.052 22.273-8.998 31.816-18.547 14.952-14.952 22.194-33.922 20.962-50.272-12.011 12.661-29.26 22.501-45.468 31.552z"/></g><g fill="#32393f"><path d="m308.778 274.635c-12.012 12.66-29.26 22.5-45.469 31.551-2.463 1.373-4.865 2.772-7.31 4.158v33.109c11.082-3.052 22.273-8.998 31.816-18.547 14.954-14.952 22.196-33.922 20.963-50.271z"/><path d="m292.552 246.25c-10.492-6.791-23.708-7.26-36.552-3.649v33.221c16.507-9.359 31.972-19.025 36.552-29.572z"/></g></g></svg>