<svg id="Capa_1" enable-background="new 0 0 512 512" height="512" viewBox="0 0 512 512" width="512" xmlns="http://www.w3.org/2000/svg"><g><path d="m473.5 330h-22.5-15l-30 30v152h45 45v-152z" fill="#80d4ff"/><path d="m496 360-22.5-30h-22.5v182h45z" fill="#4da6ff"/><path d="m256 0h30v150h-30z" fill="#dfe7f4"/><path d="m226 150-30-30v-120h30z" fill="#dfe7f4"/><path d="m346 120-30 30v-150h30z" fill="#c7cfe1"/><path d="m271 0h15v150h-15z" fill="#c7cfe1"/><path d="m91 180h-45v332h45 45v-332z" fill="#80d4ff"/><path d="m91 180h45v332h-45z" fill="#4da6ff"/><path d="m91 0c-41.353 0-75 33.647-75 75v60c0 36.216 25.809 66.513 60 73.482l15-13.482 15 13.482c34.191-6.969 60-37.266 60-73.482v-60c0-41.353-33.647-75-75-75z" fill="#f2f9ff"/><path d="m166 135v-60c0-41.353-33.647-75-75-75v195l15 13.482c34.191-6.969 60-37.266 60-73.482z" fill="#dfe7f4"/><path d="m91 105h-15v103.482c4.849.989 9.864 1.518 15 1.518s10.151-.529 15-1.518v-103.482z" fill="#dfe7f4"/><path d="m106 105h-15v105c5.136 0 10.151-.529 15-1.518z" fill="#c7cfe1"/><path d="m271 180h-45v332h45 45v-332z" fill="#80d4ff"/><path d="m271 180h45v332h-45z" fill="#4da6ff"/><path d="m346 120v15c0 41.4-33.6 75-75 75s-75-33.6-75-75v-15z" fill="#f2f9ff"/><path d="m346 120v15c0 41.4-33.6 75-75 75v-90z" fill="#dfe7f4"/><path d="m481 0c-10.64 0-20.526 2.814-30 6.828-44.689 18.939-75 79.285-75 158.172v156.211l30 38.789h45 45v-360z" fill="#f2f9ff"/><path d="m496 0h-15c-10.64 0-20.526 2.814-30 6.828v353.172h45z" fill="#dfe7f4"/></g></svg>