<svg id="Capa_1" enable-background="new 0 0 512 512" height="512" viewBox="0 0 512 512" width="512" xmlns="http://www.w3.org/2000/svg"><g><path d="m512 121v301l-33.701 15h-445.598l-32.701-15v-301z" fill="#474f54"/><path d="m512 121v301l-33.701 15h-222.299v-316z" fill="#32393f"/><path d="m61 0v361h390v-361z" fill="#80d4ff"/><path d="m256 0h195v361h-195z" fill="#4da6ff"/><g><path d="m256 121h-15v60h15 15v-60z" fill="#dfe7f4"/><path d="m256 121h15v60h-15z" fill="#c7cfe1"/><path d="m256 151c-57.99 0-105 47.01-105 105v30h105 105v-30c0-57.99-47.01-105-105-105z" fill="#f2f9ff"/><path d="m361 256c0-57.99-47.01-105-105-105v135h105z" fill="#dfe7f4"/><path d="m256 271h-135v30h135 135v-30z" fill="#dfe7f4"/><path d="m256 271h135v30h-135z" fill="#c7cfe1"/></g><path d="m271 61h120v30h-120z" fill="#474f54"/><path d="m121 61h30v30h-30z" fill="#575f64"/><path d="m181 61h30v30h-30z" fill="#575f64"/><path d="m181 422-21 19v56l21 15h150v-90z" fill="#f2f9ff"/><path d="m331 422 30 30v30l-30 30h-75v-90z" fill="#dfe7f4"/><path d="m181 422v90h-105c-41.4 0-76-33.6-76-75v-15z" fill="#dfe7f4"/><path d="m512 422v15c0 41.4-34.6 75-76 75h-105v-90z" fill="#c7cfe1"/></g></svg>