<svg id="Capa_1" enable-background="new 0 0 512 512" height="512" viewBox="0 0 512 512" width="512" xmlns="http://www.w3.org/2000/svg"><g><path d="m256 0h-195v60l34.688 15h160.312 162.188l32.812-15v-60z" fill="#f2f9ff"/><path d="m451 60v-60h-195v75h162.188z" fill="#dfe7f4"/><path d="m256 166h-226v331h226 226v-331z" fill="#fabe2c"/><path d="m256 166h226v331h-226z" fill="#ff9100"/><g><path d="m256 272h-15v60h15 15v-60z" fill="#dfe7f4"/><path d="m256 272h15v60h-15z" fill="#c7cfe1"/><path d="m256 302c-57.99 0-105 47.01-105 105v30h105 105v-30c0-57.99-47.01-105-105-105z" fill="#f2f9ff"/><path d="m361 407c0-57.99-47.01-105-105-105v135h105z" fill="#dfe7f4"/><path d="m256 422h-135v30h135 135v-30z" fill="#dfe7f4"/><path d="m256 422h135v30h-135z" fill="#c7cfe1"/></g><path d="m256 482h-256v30h256 256v-30z" fill="#474f54"/><path d="m256 482h256v30h-256z" fill="#32393f"/><path d="m503.006 139.003-.007.005-51.999-79.008h-195-195l-51.999 79.008-.007-.005c-5.889 7.837-8.994 17.168-8.994 26.997 0 24.814 21.186 45 46 45 11.567 0 22.02-4.508 30-11.704 7.98 7.196 18.433 11.704 30 11.704s22.02-4.508 30-11.704c7.98 7.196 18.433 11.704 30 11.704s22.02-4.508 30-11.704c7.98 7.196 18.433 11.704 30 11.704s22.02-4.508 30-11.704c7.98 7.196 18.433 11.704 30 11.704s22.02-4.508 30-11.704c7.98 7.196 18.433 11.704 30 11.704s22.02-4.508 30-11.704c7.98 7.196 18.433 11.704 30 11.704s22.02-4.508 30-11.704c7.98 7.196 19.433 11.704 31 11.704 24.814 0 45-20.186 45-45 0-9.829-3.105-19.16-8.994-26.997z" fill="#e64d2e"/><path d="m316 199.296c7.98 7.196 18.433 11.704 30 11.704s22.02-4.508 30-11.704c7.98 7.196 18.433 11.704 30 11.704s22.02-4.508 30-11.704c7.98 7.196 19.433 11.704 31 11.704 24.814 0 45-20.186 45-45 0-9.829-3.105-19.16-8.994-26.997l-.007.005-51.999-79.008h-195v139.296c7.98 7.196 18.433 11.704 30 11.704s22.02-4.508 30-11.704z" fill="#cd0000"/></g></svg>