<svg id="Capa_1" enable-background="new 0 0 512 512" height="512" viewBox="0 0 512 512" width="512" xmlns="http://www.w3.org/2000/svg"><g><path d="m512 301v211h-512v-211l29.399-30h61.601v90h120l30 30h30l30-30h120v-90h69.101z" fill="#ffd480"/><path d="m512 301v211h-256v-121h15l30-30h120v-90h69.101z" fill="#fabe2c"/><path d="m421 30v30l-25.499 30h-69.6l-24.901-30v-30c0-16.5 13.5-30 30-30h60c16.5 0 30 13.5 30 30z" fill="#80d4ff"/><path d="m421 30v30l-25.499 30h-34.501v-90h30c16.5 0 30 13.5 30 30z" fill="#4da6ff"/><path d="m421 113.399v-53.399h-120v53.399c-19.2 17.1-30 40.801-30 66.601v211h180v-211c0-25.8-10.8-49.501-30-66.601z" fill="#f2f9ff"/><path d="m451 180v211h-90v-331h60v53.399c19.2 17.1 30 40.801 30 66.601z" fill="#dfe7f4"/><path d="m211 30v30l-25.499 30h-69.6l-24.901-30v-30c0-16.5 13.5-30 30-30h60c16.5 0 30 13.5 30 30z" fill="#80d4ff"/><path d="m211 30v30l-25.499 30h-34.501v-90h30c16.5 0 30 13.5 30 30z" fill="#4da6ff"/><path d="m211 113.399v-53.399h-120v53.399c-19.2 17.1-30 40.801-30 66.601v211h180v-211c0-25.8-10.8-49.501-30-66.601z" fill="#f2f9ff"/><path d="m241 180v211h-90v-331h60v53.399c19.2 17.1 30 40.801 30 66.601z" fill="#dfe7f4"/><path d="m0 241h512v60h-512z" fill="#fabe2c"/><path d="m256 241h256v60h-256z" fill="#ff9100"/></g></svg>