<svg id="Capa_1" enable-background="new 0 0 512 512" height="512" viewBox="0 0 512 512" width="512" xmlns="http://www.w3.org/2000/svg"><g><path d="m366.596 346.82c-2.858-.573-47.739-9.571-50.596-10.144l-30 9.324h-30-30l-30-9.302-50.596 10.122c-48.911 9.771-84.404 53.072-84.404 102.964v62.216h195 195v-62.216c0-49.892-35.493-93.193-84.404-102.964z" fill="#ff6a4d"/><path d="m451 449.784c0-49.893-35.493-93.193-84.404-102.964-2.858-.573-47.739-9.571-50.596-10.144l-30 9.324h-30v166h195z" fill="#e64d2e"/><path d="m275.601 328.612-19.601.218-21.885.242-38.115 7.626v9.302c0 33.091 26.909 60 60 60s60-26.909 60-60v-9.324z" fill="#f2f9ff"/><path d="m316 346v-9.324l-40.399-8.064-19.601.218v77.17c33.091 0 60-26.909 60-60z" fill="#dfe7f4"/><path d="m328.188 120h-72.188-75l-30 15v90c0 47.49 31.732 88.151 75 101.124v19.876c0 16.567 13.431 30 30 30s30-13.433 30-30v-19.876c43.268-12.973 75-53.634 75-101.124v-90z" fill="#ffe1ba"/><path d="m286 346v-19.876c43.268-12.973 75-53.634 75-101.124v-90l-32.813-15h-72.187v256c16.569 0 30-13.433 30-30z" fill="#ffbfab"/><path d="m151 421h60v30h-60z" fill="#f2f9ff"/><path d="m301.938 120h-45.938-60l-45 15c19.36 38.022 64.882 60 105 60 40.254 0 85.64-22.132 105-60z" fill="#474f54"/><path d="m361 135-59.063-15h-45.937v75c40.254 0 85.64-22.132 105-60z" fill="#32393f"/><path d="m256 0c-57.99 0-105 47.01-105 105v30h105 105v-30c0-57.99-47.01-105-105-105z" fill="#ff6a4d"/><path d="m361 105c0-57.99-47.01-105-105-105v135h105z" fill="#e64d2e"/></g></svg>