<svg id="Capa_1" enable-background="new 0 0 512 512" height="512" viewBox="0 0 512 512" width="512" xmlns="http://www.w3.org/2000/svg"><g><path d="m123 302h-52.105l-41.895 41.895 21.211 21.21 33.105-33.105h69.684z" fill="#474f54"/><path d="m288 242h150v90h-150z" fill="#fabe2c"/><path d="m453 302-30 30v-181h30z" fill="#c7cfe1"/><path d="m153 332-30-30v-151h30z" fill="#dfe7f4"/><path d="m288 302h-165v180h165 90l75-45v-135z" fill="#ff6a4d"/><path d="m453 437v-135h-165v180h90z" fill="#e64d2e"/><path d="m198 512c-24.814 0-45-20.186-45-45s20.186-45 45-45 45 20.186 45 45-20.186 45-45 45z" fill="#474f54"/><circle cx="198" cy="467" fill="#f2f9ff" r="15"/><path d="m183 362h90v30h-90z" fill="#474f54"/><path d="m378 512c-41.353 0-75-33.647-75-75s33.647-75 75-75 75 33.647 75 75-33.647 75-75 75z" fill="#32393f"/><circle cx="378" cy="437" fill="#dfe7f4" r="45"/><path d="m363 422h30v30h-30z" fill="#32393f"/><path d="m288 0h-165v60l30 30h135 135l30-30v-60z" fill="#e64d2e"/><path d="m453 60v-60h-165v90h135z" fill="#cd0000"/><path d="m477.478 114.394-24.478-54.394h-165-165l-24.727 54.833c-3.442 6.489-5.273 13.799-5.273 21.167 0 24.814 20.186 45 45 45 11.567 0 22.02-4.508 30-11.704 7.98 7.196 18.433 11.704 30 11.704s22.02-4.508 30-11.704c7.98 7.196 18.433 11.704 30 11.704s22.02-4.508 30-11.704c7.98 7.196 18.433 11.704 30 11.704s22.02-4.508 30-11.704c7.98 7.196 18.433 11.704 30 11.704s22.02-4.508 30-11.704c7.98 7.196 18.433 11.704 30 11.704 24.814 0 45-20.186 45-45 0-7.368-1.831-14.678-5.522-21.606z" fill="#ff6a4d"/><path d="m348 169.296c7.98 7.196 18.433 11.704 30 11.704s22.02-4.508 30-11.704c7.98 7.196 18.433 11.704 30 11.704 24.814 0 45-20.186 45-45 0-7.368-1.831-14.678-5.522-21.606l-24.478-54.394h-165v109.296c7.98 7.196 18.433 11.704 30 11.704s22.02-4.508 30-11.704z" fill="#e64d2e"/></g></svg>