<svg id="Capa_1" enable-background="new 0 0 512 512" height="512" viewBox="0 0 512 512" width="512" xmlns="http://www.w3.org/2000/svg"><g><g fill="#4da6ff"><path d="m421 241h-33v30h18z"/><path d="m312 331h60v30h-60z"/><path d="m269.008 271.073-1.963-29.941c-27.759 1.816-50.449 22.222-55.166 49.644l29.561 5.098c2.358-13.697 13.696-23.893 27.568-24.801z"/><path d="m298.012 241h59.988v30h-59.988z"/><path d="m281 421h60v30h-60z"/><path d="m406.234 332.948-7.588 29.033c13.154 3.442 22.354 15.381 22.368 28.271l-.029 1.597 30.015-.849c0-27.275-18.413-51.152-44.766-58.052z"/><path d="m282 331h-11c-11.045 0-21.167-6.035-26.426-15.762l-26.396 14.268c10.517 19.424 30.747 31.494 52.822 31.494h11z"/><path d="m391 421h-20v30h20c18.062 0 34.995-8.027 46.45-22.017l-23.203-19.014c-5.742 7.017-14.209 11.031-23.247 11.031z"/></g><g><path d="m136 331h-15v60h15 15v-60z" fill="#dfe7f4"/><path d="m136 331h15v60h-15z" fill="#c7cfe1"/><path d="m136 361c-57.99 0-106 47.01-106 105v31h106 105v-31c0-57.99-47.01-105-105-105z" fill="#f2f9ff"/><path d="m241 466c0-57.99-47.01-105-105-105v136h105z" fill="#dfe7f4"/><path d="m136 482h-136v30h136 135v-30z" fill="#dfe7f4"/><path d="m136 482h135v30h-135z" fill="#c7cfe1"/></g><path d="m421 0c-49.629 0-90 40.371-90 90 0 44.707 23.247 74.81 43.755 101.353 16.772 21.694 31.245 41.444 31.245 64.647v15h15 15v-15c0-23.203 14.473-42.953 31.245-64.647 20.508-26.543 44.755-56.646 44.755-101.353 0-49.629-41.371-90-91-90zm15 105h-15-15v-30h15 15z" fill="#ff6a4d"/><path d="m436 256c0-23.203 14.473-42.953 31.245-64.647 20.508-26.543 44.755-56.646 44.755-101.353 0-49.629-41.371-90-91-90v75h15v30h-15v166h15z" fill="#e64d2e"/></g></svg>