<svg id="Capa_1" enable-background="new 0 0 512 512" height="512" viewBox="0 0 512 512" width="512" xmlns="http://www.w3.org/2000/svg"><g><path d="m361 120h-90l-30 30v120h60l30-30h60v-90z" fill="#ff9100"/><path d="m241 90h150v60h-150z" fill="#fabe2c"/><path d="m166 255h-45v257h45 45v-257z" fill="#575f64"/><path d="m166 255h45v257h-45z" fill="#474f54"/><path d="m211 240v-45c0-24.814-20.186-45-45-45s-45 20.186-45 45v60c0 24.853 20.147 45 45 45h120c24.853 0 45-20.147 45-45v-15z" fill="#ff6a4d"/><path d="m331 255v-15h-120v-45c0-24.814-20.186-45-45-45v150h120c24.853 0 45-20.147 45-45z" fill="#e64d2e"/><path d="m181 75h-15-15l-30 15v15c0 24.814 20.186 45 45 45s45-20.186 45-45v-15z" fill="#ffe1ba"/><path d="m211 105v-15l-30-15h-15v75c24.814 0 45-20.186 45-45z" fill="#ffbfab"/><path d="m166 0c-24.814 0-45 20.186-45 45v15l30 15h15 15l30-15v-15c0-24.814-20.186-45-45-45z" fill="#ff6a4d"/><path d="m211 60v-15c0-24.814-20.186-45-45-45v75h15z" fill="#e64d2e"/><path d="m166 60h-45v30h45 75v-30z" fill="#474f54"/><path d="m166 60h75v30h-75z" fill="#32393f"/></g></svg>