<svg id="Capa_1" enable-background="new 0 0 512 512" height="512" viewBox="0 0 512 512" width="512" xmlns="http://www.w3.org/2000/svg"><g><path d="m256 60h-225v30h225 256v-30z" fill="#dfe7f4"/><path d="m256 60h256v30h-256z" fill="#c7cfe1"/><g fill="#fabe2c"><path d="m61 15h30v257.055h-30z"/><path d="m121 15h30v241h-30z"/><path d="m181 15h30v257.055h-30z"/></g><path d="m376 241c-52.632 0-97.733 30.419-120 74.363-22.267-43.944-67.368-74.363-120-74.363-74.559 0-136 60.441-136 135v15l31 15h225 225l31-15v-15c0-74.559-61.441-135-136-135z" fill="#ffd480"/><path d="m512 391v-15c0-74.559-61.441-135-136-135-52.632 0-97.733 30.419-120 74.363v90.637h225z" fill="#fabe2c"/><path d="m136 482c-57.891 0-105-48.109-105-106s47.109-105 105-105 105 47.109 105 105-47.109 106-105 106z" fill="#fabe2c"/><circle cx="136" cy="376" fill="#ffd480" r="75"/><circle cx="136" cy="376" fill="#fabe2c" r="45"/><path d="m376 482c-57.891 0-105-48.109-105-106s47.109-105 105-105 105 47.109 105 105-47.109 106-105 106z" fill="#ff9100"/><circle cx="376" cy="376" fill="#fabe2c" r="75"/><circle cx="376" cy="376" fill="#ff9100" r="45"/><path d="m256 391h-256v15c0 57.9 48.1 106 106 106h150 150c57.9 0 106-48.1 106-106v-15z" fill="#ff6a4d"/><path d="m256 391h256v15c0 57.9-48.1 106-106 106h-150z" fill="#e64d2e"/><path d="m256 0h-225v30h225 256v-30z" fill="#f2f9ff"/><path d="m256 0h256v30h-256z" fill="#dfe7f4"/></g></svg>