<svg id="Capa_1" enable-background="new 0 0 512 512" height="512" viewBox="0 0 512 512" width="512" xmlns="http://www.w3.org/2000/svg"><g><g><path d="m199.633 512-42.92-58.949-70.005 17.329 70.737-196.538 109.336 50.566z" fill="#ff6a4d"/></g><g><path d="m312.323 512-67.148-187.577 109.351-50.566 70.708 196.523-69.99-17.329z" fill="#e64d2e"/></g><path d="m470.541 218.5-39.199-46.978 10.444-60.293-57.422-21.093-21.093-57.437-60.293 10.459-46.978-43.158-46.978 43.158-60.293-10.459-21.093 57.437-57.437 21.093 10.459 60.293-39.199 46.978 39.199 46.978-10.459 60.293 57.437 21.093 21.093 57.422 60.293-10.444 46.978 39.199 46.978-39.199 60.293 10.444 21.093-57.422 57.422-21.093-10.444-60.293z" fill="#fabe2c"/><path d="m363.271 404.286 21.093-57.422 57.422-21.093-10.444-60.293 39.199-46.978-39.199-46.978 10.444-60.293-57.422-21.093-21.093-57.437-60.293 10.459-46.978-43.158v433.041l46.978-39.199z" fill="#ff9100"/><g><path d="m256 106h-15v60h15 15v-60z" fill="#dfe7f4"/><path d="m256 106h15v60h-15z" fill="#c7cfe1"/><path d="m256 136c-57.99 0-105 47.01-105 105v30h105 105v-30c0-57.99-47.01-105-105-105z" fill="#f2f9ff"/><path d="m361 241c0-57.99-47.01-105-105-105v135h105z" fill="#dfe7f4"/><path d="m256 256h-135v30h135 135v-30z" fill="#dfe7f4"/><path d="m256 256h135v30h-135z" fill="#c7cfe1"/></g></g></svg>