<svg id="Capa_1" enable-background="new 0 0 512 512" height="512" viewBox="0 0 512 512" width="512" xmlns="http://www.w3.org/2000/svg"><g><path d="m191.492 320.508-31.816-31.817-159.676 159.676 31.816 31.817 31.817 31.816 159.676-159.676z" fill="#ff6a4d"/><path d="m14.655 393.756h225.816v44.995h-225.816z" fill="#e64d2e" transform="matrix(.707 -.707 .707 .707 -256.974 212.118)"/><path d="m454.82 57.18c-35.31-35.31-84.06-57.18-137.82-57.18-107.52 0-195 87.48-195 195 0 53.76 21.87 102.51 57.18 137.82s84.06 57.18 137.82 57.18c107.52 0 195-87.48 195-195 0-53.76-21.87-102.51-57.18-137.82z" fill="#474f54"/><path d="m512 195c0-53.76-21.87-102.51-57.18-137.82l-275.64 275.64c35.31 35.31 84.06 57.18 137.82 57.18 107.52 0 195-87.48 195-195z" fill="#32393f"/><path d="m433.618 78.382c-29.877-29.877-71.127-48.382-116.618-48.382-90.981 0-165 74.019-165 165 0 45.491 18.505 86.741 48.382 116.618s71.127 48.382 116.618 48.382c90.981 0 165-74.019 165-165 0-45.491-18.505-86.741-48.382-116.618z" fill="#80d4ff"/><path d="m482 195c0-45.491-18.505-86.741-48.382-116.618l-233.236 233.236c29.877 29.877 71.127 48.382 116.618 48.382 90.981 0 165-74.019 165-165z" fill="#4da6ff"/><path d="m302 75h30v45h-30z" fill="#dfe7f4"/><path d="m383.026 128.974c-18.083-14.756-40.865-23.974-66.026-23.974-57.99 0-105 47.01-105 105v30h60 150v-30c0-32.829-15.379-61.772-38.974-81.026z" fill="#f2f9ff"/><path d="m422 210c0-32.829-15.379-61.772-38.974-81.026l-111.026 111.026h150z" fill="#dfe7f4"/><path d="m287 225h-105v30h75 195v-30z" fill="#dfe7f4"/><path d="m452 225h-165l-30 30h195z" fill="#c7cfe1"/></g></svg>