<svg id="Capa_1" enable-background="new 0 0 511.912 511.912" height="512" viewBox="0 0 511.912 511.912" width="512" xmlns="http://www.w3.org/2000/svg"><g><path d="m435.663 267.968c-7.559-37.822-14.707-73.535-14.707-132.056v-15h-165-165v15c0 58.521-7.148 94.233-14.707 132.056-7.515 37.588-15.293 76.465-15.293 137.944v106h195 195v-106c0-61.479-7.778-100.356-15.293-137.944z" fill="#80d4ff"/><path d="m450.956 405.912c0-61.479-7.778-100.356-15.293-137.944-7.559-37.822-14.707-73.535-14.707-132.056v-15h-165v391h195z" fill="#4da6ff"/><path d="m255.956 0c-75.022 0-101.999 52.707-105 55.371v125.541h30v-116.239c16.377-21.797 44.063-34.673 75-34.673 30.923 0 58.623 12.876 75 34.673v116.239h30v-125.541c-2.999-2.664-29.94-55.371-105-55.371z" fill="#f2f9ff"/><path d="m330.956 64.673v116.239h30v-125.541c-2.999-2.664-29.94-55.371-105-55.371v30c30.923 0 58.623 12.876 75 34.673z" fill="#dfe7f4"/><path d="m240.78 348.988-2.271-8.13h-.002l-8.128-2.271c-2.373-.688-58.652-15.864-99.507 25.049l-19.819 19.805 27.48 5.508c13.132 2.629 24.787 9.034 33.818 18.065s15.438 20.687 18.067 33.82l5.508 27.48 19.805-19.819c40.884-40.898 25.708-97.134 25.049-99.507z" fill="#f2f9ff"/><path d="m190.419 440.834 5.508 27.48 19.805-19.819c40.884-40.898 25.708-97.134 25.049-99.507l-2.271-8.13h-.002l-66.156 66.156c9.031 9.031 15.438 20.688 18.067 33.82z" fill="#dfe7f4"/><path d="m308.231 271.135-39.976-40.124c-7.2 4.2-14.399 9.6-20.7 15.901-39.3 39.598-36.299 104.099-36.299 106.8l.899 13.499 13.5.901c33.001 2.401 80.099-9.6 106.8-36.301 6.301-6.299 11.4-13.2 15.901-20.4z" fill="#ffd480"/><path d="m332.456 331.811c6.301-6.299 11.4-13.2 15.901-20.4l-40.126-40.276-96.075 96.075 13.5.901c33.001 2.401 80.099-9.599 106.8-36.3z" fill="#fabe2c"/><path d="m368.456 225.011-.601-13.5-13.499-.599c-30.179 0-59.539 4.358-86.102 20.099-10.314 17.186-9.567 48.333 11.102 68.998v.002c18.135 18.137 45.771 23.018 69 11.4 18.284-30.752 22.154-76.144 20.1-86.4z" fill="#f2f9ff"/><path d="m348.357 311.411c18.283-30.753 22.154-76.144 20.099-86.4l-.601-13.5-88.499 88.499v.002c18.136 18.136 45.772 23.017 69.001 11.399z" fill="#dfe7f4"/></g></svg>