<svg id="Capa_1" enable-background="new 0 0 512 512" height="512" viewBox="0 0 512 512" width="512" xmlns="http://www.w3.org/2000/svg"><g><path d="m303.813 270h-47.813-52.5l-43.5 31 70.2 211h25.8 25.8l69.9-211z" fill="#fabe2c"/><path d="m351.7 301-47.887-31h-47.813v242h25.8z" fill="#ff9100"/><path d="m256 180h-135.901l39.901 121h96 95.7l39.901-121z" fill="#f2f9ff"/><path d="m391.601 180h-135.601v121h95.7z" fill="#dfe7f4"/><path d="m391 150h-30c16.569 0 30-13.433 30-30 0-16.569-13.431-30-30-30h-2.862c1.683-4.73 2.862-9.714 2.862-15 0-41.353-33.647-75-75-75h-15v30h-15-75c-16.569 0-30 13.431-30 30 0 16.567 13.431 30 30 30h-30c-16.569 0-30 13.431-30 30 0 16.567 13.431 30 30 30h-30c-16.569 0-30 13.431-30 30 0 16.567 13.431 30 30 30h135 135c16.569 0 30-13.433 30-30 0-16.569-13.431-30-30-30z" fill="#80d4ff"/><path d="m421 180c0-16.569-13.431-30-30-30h-30c16.569 0 30-13.433 30-30 0-16.569-13.431-30-30-30h-2.862c1.683-4.73 2.862-9.714 2.862-15 0-41.353-33.647-75-75-75h-15v30h-15v180h135c16.569 0 30-13.433 30-30z" fill="#4da6ff"/></g></svg>