<?xml version="1.0" standalone="no"?>
<!DOCTYPE svg PUBLIC "-//W3C//DTD SVG 20010904//EN"
 "http://www.w3.org/TR/2001/REC-SVG-20010904/DTD/svg10.dtd">
<svg version="1.0" xmlns="http://www.w3.org/2000/svg"
 width="826.811886pt" height="427.960531pt" viewBox="0 0 826.811886 427.960531"
 preserveAspectRatio="xMidYMid meet">
<metadata>
Created by potrace 1.12, written by Peter Selinger 2001-2015
</metadata>
<g transform="translate(-387.188114,813.960531) scale(0.100000,-0.100000)"
fill="#000000" stroke="none">
<path d="M4667 8125 c-145 -51 -174 -258 -50 -352 l36 -28 1201 -5 1201 -5 38
-24 c128 -79 125 -257 -6 -332 l-42 -24 -740 -5 c-680 -5 -743 -6 -767 -22
-103 -68 -122 -219 -39 -311 62 -69 43 -67 621 -67 492 0 523 -1 558 -19 50
-26 78 -58 97 -110 18 -51 18 -64 5 -113 -14 -48 -53 -94 -101 -118 -37 -19
-66 -20 -1089 -20 l-1050 0 -46 -21 c-29 -14 -56 -38 -77 -68 -29 -41 -32 -53
-32 -116 0 -60 4 -76 28 -111 15 -22 45 -50 66 -62 l39 -22 981 0 c1077 0
1007 4 1074 -59 77 -71 75 -204 -5 -278 -57 -54 -50 -53 -703 -53 -657 0 -641
1 -699 -56 -34 -34 -65 -98 -66 -134 0 -77 53 -159 125 -191 36 -17 74 -19
400 -19 328 0 364 -2 400 -19 163 -75 148 -302 -24 -360 -25 -8 -220 -11 -683
-11 -627 1 -649 0 -687 -19 -142 -73 -146 -279 -6 -358 l40 -23 813 0 c787 0
814 -1 851 -20 63 -32 111 -105 111 -170 0 -65 -58 -152 -117 -176 -26 -11
-195 -14 -905 -14 -986 0 -918 5 -991 -80 -56 -66 -63 -160 -18 -234 l23 -36
1629 0 1629 0 37 58 c21 31 51 99 69 150 l31 93 22 -58 c22 -61 51 -182 51
-220 l0 -23 2120 0 c1166 0 2120 3 2120 6 0 10 -56 249 -101 428 -78 313 -187
618 -325 906 -107 222 -204 383 -333 554 l-51 67 24 82 c64 222 79 527 37 762
-36 202 -128 440 -238 612 -103 163 -292 363 -449 475 -413 295 -923 389
-1422 262 -53 -13 -126 -36 -163 -50 l-66 -26 -84 40 c-158 74 -296 118 -463
147 -77 13 -323 15 -1945 15 -1546 -1 -1862 -3 -1894 -15z m3793 -381 c82 -14
287 -77 303 -93 4 -4 -8 -42 -28 -85 -19 -42 -44 -112 -55 -154 -21 -80 -46
-259 -37 -268 2 -3 21 17 40 43 54 73 185 198 274 262 141 101 313 174 508
217 122 26 379 24 512 -4 406 -87 721 -322 908 -676 163 -310 194 -713 79
-1038 -38 -107 -137 -305 -184 -367 -23 -29 -39 -55 -37 -57 5 -5 138 29 212
55 32 12 60 21 61 21 4 0 118 -156 161 -220 188 -284 368 -706 472 -1102 l9
-38 -627 0 -628 0 -11 183 c-14 224 -33 386 -72 626 -36 217 -63 331 -99 421
l-27 66 29 49 c40 67 72 155 91 248 61 293 -60 606 -338 875 -174 168 -336
261 -456 262 -98 0 -215 -74 -263 -167 -42 -82 -104 -348 -116 -503 -23 -289
45 -522 203 -688 81 -85 166 -143 255 -174 l64 -23 43 -90 c53 -109 82 -209
128 -436 37 -185 59 -327 80 -526 l12 -123 -427 0 -428 0 -6 38 c-40 244 -151
722 -203 872 l-19 54 32 32 c61 61 86 185 65 325 -14 99 -25 126 -169 419
-132 270 -190 371 -228 395 -27 18 -114 27 -128 14 -3 -4 10 -42 29 -85 119
-275 246 -589 246 -610 0 -60 -91 -97 -138 -56 -11 9 -93 154 -181 322 -89
168 -165 311 -169 318 -7 11 -16 10 -45 -4 -21 -10 -37 -23 -37 -29 0 -5 50
-159 110 -340 118 -352 120 -367 73 -405 -34 -26 -76 -25 -106 3 -15 13 -87
157 -173 345 -81 177 -154 322 -161 322 -19 0 -63 -65 -79 -116 -25 -83 -20
-119 39 -279 138 -375 223 -565 286 -637 50 -56 129 -98 187 -98 37 0 44 -4
67 -38 68 -103 124 -238 181 -432 28 -98 76 -303 76 -326 0 -2 -111 -4 -247
-4 l-248 0 -34 75 c-18 41 -56 111 -83 155 l-50 81 -66 -63 c-112 -108 -217
-168 -369 -214 -79 -24 -104 -27 -238 -27 -134 0 -159 3 -238 27 -201 61 -374
185 -486 349 -46 68 -105 199 -127 282 -27 102 -25 331 4 436 49 181 165 355
309 466 l32 25 43 -30 c81 -56 187 -99 296 -121 94 -19 95 -17 18 62 -77 78
-118 147 -159 267 -91 268 -95 565 -10 834 83 265 278 528 506 685 294 200
636 275 987 215z"/>
<path d="M3979 5762 c-123 -64 -144 -229 -43 -324 58 -54 81 -58 361 -58 230
0 262 2 299 19 169 77 160 320 -15 379 -22 8 -122 12 -291 12 l-258 0 -53 -28z"/>
</g>
</svg>
